<?xml version="1.0" encoding="utf-8"?>
<!DOCTYPE svg PUBLIC "-//W3C//DTD SVG 1.1//EN" "http://www.w3.org/Graphics/SVG/1.1/DTD/svg11.dtd">
<svg version="1.1" xmlns="http://www.w3.org/2000/svg" xmlns:xlink="http://www.w3.org/1999/xlink" x="0px" y="0px" viewBox="0 0 1000 1000" enable-background="new 0 0 1000 1000" xml:space="preserve">
<g><g transform="translate(0.000000,251.000000) scale(0.100000,-0.100000)"><path d="M4277.7,2356.3c-838-133.8-1554.1-436.7-2226.9-944.3c-322.6-240-901-814.4-901-889.2c0-19.7,338.4-609.8,751.5-1318c409.2-704.3,767.2-1322,790.8-1377c23.6-51.1,55.1-94.4,70.8-94.4c11.8,0,47.2,106.2,70.8,240c110.2,598,570.5,1207.9,1137.1,1502.9C4462.7-267.9,4517.7-260,7083-260h2293.8L9274.5-67.3c-173.1,310.8-582.3,834.1-881.3,1117.4C7275.8,2100.6,5741.4,2588.5,4277.7,2356.3z"/><path d="M666-208.9C-183.9-1869.2-73.7-3706.6,976.8-5284.3c523.3-786.9,1447.9-1495.1,2396.1-1829.5c362-129.8,885.2-243.9,924.6-200.6c15.7,15.8,369.8,617.7,786.9,1329.9c417.1,716,782.9,1333.7,814.4,1381l51.1,82.6l-224.3-78.7c-291.2-98.4-842-129.8-1160.7-70.8c-413.1,82.6-798.7,291.1-1113.4,609.8c-216.4,216.4-358,417.1-629.5,889.2c-192.8,334.4-546.9,948.2-786.9,1357.3c-240,413.1-594.1,1019-782.9,1349.5c-188.9,326.6-358,598-377.7,598C858.7,133.4,764.3-20,666-208.9z"/><path d="M6571.5-917.1c184.9-184.9,310.8-358,409.2-562.6c188.8-377.7,236.1-605.9,236.1-1042.6c-3.9-625.6,7.8-602-1502.9-3167.2c-424.9-723.9-826.2-1404.6-885.2-1510.8l-110.2-192.8l527.2,19.7c963.9,39.3,1727.2,295.1,2557.4,861.7c641.3,440.6,1160.6,1026.9,1526.5,1727.2c417.1,794.7,566.6,1404.6,570.5,2282c0,605.9-55.1,963.9-236.1,1546.2l-98.4,303H7936.7H6307.9L6571.5-917.1z"/><path d="M4557.1-736.1c-421-102.3-924.6-495.7-1133.1-885.2c-598-1109.5,70.8-2451.1,1318-2651.8c562.7-90.5,1180.3,125.9,1573.8,546.9c842,912.8,582.3,2305.6-539,2860.3c-275.4,133.8-330.5,145.6-684.6,157.4C4883.6-700.7,4643.6-712.5,4557.1-736.1z"/></g></g>
</svg>