0, 0, Header, 0, 1, 480
1, 0, Start_track
1, 0, Title_t, "Inst 1"
1, 0, Instrument_name_t, "Inst 2"
1, 0, Time_signature, 4, 2, 24, 8
1, 0, Key_signature, 0, "major"
1, 0, SMPTE_offset, 33, 0, 0, 0, 0
1, 0, Tempo, 500000
1, 836, Control_c, 0, 64, 127
1, 1407, Note_on_c, 0, 50, 25
1, 1682, Note_on_c, 0, 53, 29
1, 1838, Note_on_c, 0, 50, 0
1, 1936, Note_on_c, 0, 57, 40
1, 2037, Note_on_c, 0, 53, 0
1, 2232, Note_on_c, 0, 57, 0
1, 2233, Note_on_c, 0, 50, 38
1, 2234, Note_on_c, 0, 69, 48
1, 2518, Note_on_c, 0, 53, 29
1, 2574, Note_on_c, 0, 50, 0
1, 2809, Note_on_c, 0, 57, 22
1, 2834, Note_on_c, 0, 53, 0
1, 3040, Note_on_c, 0, 57, 0
1, 3081, Note_on_c, 0, 50, 31
1, 3347, Note_on_c, 0, 53, 28
1, 3487, Note_on_c, 0, 50, 0
1, 3645, Note_on_c, 0, 57, 34
1, 3755, Note_on_c, 0, 53, 0
1, 3951, Note_on_c, 0, 67, 56
1, 3952, Note_on_c, 0, 50, 41
1, 3963, Note_on_c, 0, 57, 0
1, 3989, Control_c, 0, 64, 0
1, 4058, Note_on_c, 0, 69, 0
1, 4135, Control_c, 0, 64, 127
1, 4250, Note_on_c, 0, 52, 36
1, 4345, Note_on_c, 0, 50, 0
1, 4548, Note_on_c, 0, 55, 38
1, 4599, Note_on_c, 0, 52, 0
1, 4942, Note_on_c, 0, 50, 36
1, 4959, Note_on_c, 0, 55, 0
1, 4974, Note_on_c, 0, 69, 50
1, 5018, Control_c, 0, 64, 0
1, 5042, Note_on_c, 0, 67, 0
1, 5180, Control_c, 0, 64, 127
1, 5317, Note_on_c, 0, 53, 21
1, 5366, Note_on_c, 0, 50, 0
1, 5548, Note_on_c, 0, 57, 32
1, 5600, Note_on_c, 0, 53, 0
1, 5824, Note_on_c, 0, 57, 0
1, 5848, Note_on_c, 0, 50, 30
1, 6183, Note_on_c, 0, 53, 14
1, 6216, Note_on_c, 0, 50, 0
1, 6413, Note_on_c, 0, 57, 28
1, 6459, Note_on_c, 0, 53, 0
1, 6656, Note_on_c, 0, 57, 0
1, 6710, Note_on_c, 0, 62, 42
1, 6722, Note_on_c, 0, 50, 34
1, 6740, Note_on_c, 0, 69, 0
1, 7026, Note_on_c, 0, 53, 21
1, 7047, Note_on_c, 0, 50, 0
1, 7235, Note_on_c, 0, 53, 0
1, 7253, Note_on_c, 0, 57, 32
1, 7481, Note_on_c, 0, 57, 0
1, 7546, Note_on_c, 0, 52, 42
1, 7563, Note_on_c, 0, 64, 36
1, 7586, Control_c, 0, 64, 0
1, 7605, Note_on_c, 0, 62, 0
1, 7721, Control_c, 0, 64, 127
1, 7839, Note_on_c, 0, 52, 0
1, 7840, Note_on_c, 0, 55, 26
1, 8084, Note_on_c, 0, 58, 42
1, 8101, Note_on_c, 0, 55, 0
1, 8186, Note_on_c, 0, 58, 0
1, 8380, Note_on_c, 0, 50, 42
1, 8388, Control_c, 0, 64, 0
1, 8391, Note_on_c, 0, 64, 0
1, 8575, Control_c, 0, 64, 127
1, 8639, Note_on_c, 0, 53, 32
1, 8703, Note_on_c, 0, 50, 0
1, 8913, Note_on_c, 0, 57, 34
1, 8978, Note_on_c, 0, 53, 0
1, 9186, Note_on_c, 0, 69, 61
1, 9195, Note_on_c, 0, 50, 40
1, 9214, Note_on_c, 0, 57, 0
1, 9492, Note_on_c, 0, 53, 27
1, 9548, Note_on_c, 0, 50, 0
1, 9744, Note_on_c, 0, 57, 27
1, 9807, Note_on_c, 0, 53, 0
1, 10014, Note_on_c, 0, 57, 0
1, 10032, Note_on_c, 0, 50, 29
1, 10323, Note_on_c, 0, 53, 24
1, 10426, Note_on_c, 0, 50, 0
1, 10589, Note_on_c, 0, 57, 34
1, 10680, Note_on_c, 0, 53, 0
1, 10900, Note_on_c, 0, 50, 38
1, 10906, Note_on_c, 0, 67, 68
1, 10924, Note_on_c, 0, 57, 0
1, 10942, Control_c, 0, 64, 0
1, 11001, Note_on_c, 0, 69, 0
1, 11086, Control_c, 0, 64, 127
1, 11224, Note_on_c, 0, 52, 34
1, 11353, Note_on_c, 0, 50, 0
1, 11535, Note_on_c, 0, 55, 40
1, 11567, Note_on_c, 0, 52, 0
1, 11949, Note_on_c, 0, 50, 37
1, 11956, Note_on_c, 0, 55, 0
1, 11978, Note_on_c, 0, 69, 48
1, 11993, Control_c, 0, 64, 0
1, 12032, Note_on_c, 0, 67, 0
1, 12166, Control_c, 0, 64, 127
1, 12308, Note_on_c, 0, 53, 17
1, 12320, Note_on_c, 0, 50, 0
1, 12534, Note_on_c, 0, 57, 30
1, 12552, Note_on_c, 0, 53, 0
1, 12767, Note_on_c, 0, 57, 0
1, 12812, Note_on_c, 0, 50, 32
1, 13091, Note_on_c, 0, 53, 31
1, 13167, Note_on_c, 0, 50, 0
1, 13359, Note_on_c, 0, 57, 32
1, 13381, Note_on_c, 0, 53, 0
1, 13643, Note_on_c, 0, 57, 0
1, 13653, Note_on_c, 0, 62, 47
1, 13666, Note_on_c, 0, 50, 35
1, 13672, Note_on_c, 0, 69, 0
1, 13948, Note_on_c, 0, 53, 33
1, 13978, Note_on_c, 0, 62, 0
1, 14047, Note_on_c, 0, 50, 0
1, 14217, Note_on_c, 0, 53, 0
1, 14223, Note_on_c, 0, 57, 35
1, 14453, Note_on_c, 0, 57, 0
1, 14521, Note_on_c, 0, 69, 72
1, 14529, Note_on_c, 0, 52, 52
1, 14536, Note_on_c, 0, 64, 50
1, 14551, Control_c, 0, 64, 0
1, 14683, Control_c, 0, 64, 127
1, 14808, Note_on_c, 0, 55, 35
1, 14817, Note_on_c, 0, 52, 0
1, 14913, Note_on_c, 0, 64, 0
1, 15014, Note_on_c, 0, 69, 0
1, 15095, Note_on_c, 0, 58, 45
1, 15162, Note_on_c, 0, 55, 0
1, 15196, Control_c, 0, 67, 0
1, 15227, Note_on_c, 0, 58, 0
1, 15494, Control_c, 0, 64, 0
1, 15508, Note_on_c, 0, 77, 73
1, 15511, Note_on_c, 0, 50, 51
1, 15517, Note_on_c, 0, 74, 53
1, 15527, Note_on_c, 0, 69, 32
1, 15663, Control_c, 0, 64, 127
1, 15854, Note_on_c, 0, 53, 35
1, 15894, Note_on_c, 0, 50, 0
1, 16098, Note_on_c, 0, 57, 40
1, 16154, Note_on_c, 0, 53, 0
1, 16330, Note_on_c, 0, 57, 0
1, 16384, Note_on_c, 0, 50, 33
1, 16699, Note_on_c, 0, 53, 20
1, 16739, Note_on_c, 0, 50, 0
1, 16937, Note_on_c, 0, 57, 29
1, 16978, Note_on_c, 0, 53, 0
1, 17192, Note_on_c, 0, 57, 0
1, 17234, Note_on_c, 0, 50, 39
1, 17286, Note_on_c, 0, 74, 0
1, 17511, Note_on_c, 0, 69, 0
1, 17521, Note_on_c, 0, 53, 32
1, 17555, Note_on_c, 0, 50, 0
1, 17766, Note_on_c, 0, 57, 38
1, 17804, Note_on_c, 0, 53, 0
1, 18023, Note_on_c, 0, 57, 0
1, 18054, Note_on_c, 0, 50, 43
1, 18058, Note_on_c, 0, 74, 58
1, 18134, Note_on_c, 0, 77, 0
1, 18340, Note_on_c, 0, 53, 40
1, 18451, Note_on_c, 0, 50, 0
1, 18536, Note_on_c, 0, 74, 0
1, 18580, Note_on_c, 0, 57, 45
1, 18604, Note_on_c, 0, 53, 0
1, 18708, Note_on_c, 0, 57, 0
1, 18851, Note_on_c, 0, 70, 60
1, 18854, Note_on_c, 0, 50, 49
1, 18859, Control_c, 0, 64, 0
1, 18864, Note_on_c, 0, 79, 64
1, 18913, Note_on_c, 0, 74, 41
1, 18958, Control_c, 0, 64, 127
1, 18985, Note_on_c, 0, 74, 0
1, 19004, Note_on_c, 0, 70, 0
1, 19017, Note_on_c, 0, 79, 0
1, 19077, Note_on_c, 0, 50, 0
1, 19111, Note_on_c, 0, 55, 55
1, 19126, Note_on_c, 0, 77, 67
1, 19373, Note_on_c, 0, 76, 74
1, 19393, Note_on_c, 0, 58, 55
1, 19435, Note_on_c, 0, 77, 0
1, 19534, Note_on_c, 0, 58, 0
1, 19535, Note_on_c, 0, 55, 0
1, 19545, Note_on_c, 0, 76, 0
1, 19675, Note_on_c, 0, 74, 45
1, 19683, Note_on_c, 0, 50, 55
1, 19687, Note_on_c, 0, 69, 28
1, 19691, Note_on_c, 0, 77, 76
1, 19716, Control_c, 0, 64, 0
1, 19860, Control_c, 0, 64, 127
1, 19982, Note_on_c, 0, 53, 40
1, 20100, Note_on_c, 0, 50, 0
1, 20155, Note_on_c, 0, 74, 0
1, 20249, Note_on_c, 0, 57, 40
1, 20291, Note_on_c, 0, 53, 0
1, 20462, Note_on_c, 0, 57, 0
1, 20528, Note_on_c, 0, 50, 46
1, 20536, Note_on_c, 0, 74, 68
1, 20554, Note_on_c, 0, 69, 0
1, 20676, Note_on_c, 0, 77, 0
1, 20828, Note_on_c, 0, 53, 31
1, 20843, Note_on_c, 0, 74, 0
1, 20849, Note_on_c, 0, 50, 0
1, 21068, Note_on_c, 0, 57, 34
1, 21126, Note_on_c, 0, 53, 0
1, 21247, Note_on_c, 0, 57, 0
1, 21365, Note_on_c, 0, 77, 48
1, 21368, Note_on_c, 0, 50, 44
1, 21384, Note_on_c, 0, 69, 41
1, 21662, Note_on_c, 0, 53, 48
1, 21665, Note_on_c, 0, 76, 61
1, 21705, Note_on_c, 0, 77, 0
1, 21779, Note_on_c, 0, 69, 0
1, 21797, Note_on_c, 0, 50, 0
1, 21906, Note_on_c, 0, 74, 70
1, 21909, Note_on_c, 0, 53, 0
1, 21936, Note_on_c, 0, 57, 42
1, 21974, Note_on_c, 0, 76, 0
1, 22067, Note_on_c, 0, 74, 0
1, 22090, Note_on_c, 0, 57, 0
1, 22213, Note_on_c, 0, 69, 47
1, 22217, Note_on_c, 0, 52, 42
1, 22221, Note_on_c, 0, 72, 43
1, 22224, Note_on_c, 0, 76, 70
1, 22252, Control_c, 0, 64, 0
1, 22411, Control_c, 0, 64, 127
1, 22482, Note_on_c, 0, 57, 47
1, 22581, Note_on_c, 0, 52, 0
1, 22750, Note_on_c, 0, 72, 0
1, 22757, Note_on_c, 0, 60, 53
1, 22816, Note_on_c, 0, 57, 0
1, 22976, Note_on_c, 0, 60, 0
1, 23018, Note_on_c, 0, 69, 0
1, 23031, Note_on_c, 0, 52, 59
1, 23039, Note_on_c, 0, 72, 68
1, 23233, Note_on_c, 0, 76, 0
1, 23317, Note_on_c, 0, 57, 51
1, 23414, Note_on_c, 0, 72, 0
1, 23450, Note_on_c, 0, 52, 0
1, 23605, Note_on_c, 0, 60, 48
1, 23610, Note_on_c, 0, 57, 0
1, 23774, Note_on_c, 0, 60, 0
1, 23870, Note_on_c, 0, 53, 49
1, 23873, Note_on_c, 0, 65, 39
1, 23879, Note_on_c, 0, 70, 42
1, 23882, Note_on_c, 0, 74, 62
1, 23902, Control_c, 0, 64, 0
1, 24063, Control_c, 0, 64, 127
1, 24191, Note_on_c, 0, 58, 35
1, 24283, Note_on_c, 0, 53, 0
1, 24456, Note_on_c, 0, 62, 33
1, 24534, Note_on_c, 0, 58, 0
1, 24706, Note_on_c, 0, 62, 0
1, 24711, Note_on_c, 0, 53, 41
1, 24760, Note_on_c, 0, 74, 0
1, 24834, Note_on_c, 0, 70, 0
1, 24844, Note_on_c, 0, 65, 0
1, 25004, Note_on_c, 0, 58, 50
1, 25244, Note_on_c, 0, 62, 49
1, 25249, Note_on_c, 0, 53, 0
1, 25298, Note_on_c, 0, 58, 0
1, 25339, Note_on_c, 0, 62, 0
1, 25556, Note_on_c, 0, 45, 58
1, 25559, Note_on_c, 0, 72, 74
1, 25562, Note_on_c, 0, 64, 52
1, 25598, Control_c, 0, 64, 0
1, 25737, Control_c, 0, 64, 127
1, 25829, Note_on_c, 0, 45, 0
1, 25848, Note_on_c, 0, 52, 60
1, 26023, Note_on_c, 0, 52, 0
1, 26081, Note_on_c, 0, 64, 0
1, 26115, Note_on_c, 0, 60, 63
1, 26157, Note_on_c, 0, 72, 0
1, 26205, Note_on_c, 0, 60, 0
1, 26454, Note_on_c, 0, 69, 71
1, 26458, Note_on_c, 0, 60, 43
1, 26462, Note_on_c, 0, 41, 64
1, 26466, Note_on_c, 0, 65, 43
1, 26496, Control_c, 0, 64, 0
1, 26685, Control_c, 0, 64, 127
1, 26743, Note_on_c, 0, 48, 58
1, 26808, Note_on_c, 0, 41, 0
1, 26912, Note_on_c, 0, 48, 0
1, 27006, Note_on_c, 0, 57, 62
1, 27204, Note_on_c, 0, 57, 0
1, 27280, Note_on_c, 0, 53, 67
1, 27326, Note_on_c, 0, 60, 0
1, 27529, Note_on_c, 0, 65, 0
1, 27546, Note_on_c, 0, 57, 64
1, 27577, Note_on_c, 0, 69, 0
1, 27816, Note_on_c, 0, 53, 0
1, 27821, Note_on_c, 0, 60, 73
1, 27860, Note_on_c, 0, 57, 0
1, 27945, Note_on_c, 0, 60, 0
1, 28151, Note_on_c, 0, 40, 59
1, 28160, Note_on_c, 0, 61, 63
1, 28169, Note_on_c, 0, 64, 66
1, 28172, Note_on_c, 0, 69, 81
1, 28212, Control_c, 0, 64, 0
1, 28366, Control_c, 0, 64, 127
1, 28447, Note_on_c, 0, 40, 0
1, 28508, Note_on_c, 0, 49, 55
1, 28601, Note_on_c, 0, 61, 0
1, 28648, Note_on_c, 0, 64, 0
1, 28687, Note_on_c, 0, 69, 0
1, 28877, Note_on_c, 0, 57, 66
1, 28988, Note_on_c, 0, 49, 0
1, 29057, Note_on_c, 0, 57, 0
1, 29370, Note_on_c, 0, 77, 80
1, 29383, Note_on_c, 0, 38, 64
1, 29392, Note_on_c, 0, 74, 54
1, 29395, Note_on_c, 0, 69, 55
1, 29426, Control_c, 0, 64, 0
1, 29609, Control_c, 0, 64, 127
1, 29795, Note_on_c, 0, 45, 51
1, 29870, Note_on_c, 0, 38, 0
1, 29951, Note_on_c, 0, 45, 0
1, 30062, Note_on_c, 0, 53, 55
1, 30117, Note_on_c, 0, 74, 0
1, 30211, Note_on_c, 0, 69, 0
1, 30242, Note_on_c, 0, 53, 0
1, 30331, Note_on_c, 0, 50, 50
1, 30591, Note_on_c, 0, 53, 46
1, 30644, Note_on_c, 0, 50, 0
1, 30847, Note_on_c, 0, 57, 46
1, 30912, Note_on_c, 0, 53, 0
1, 31108, Note_on_c, 0, 57, 0
1, 31144, Note_on_c, 0, 77, 0
1, 31149, Note_on_c, 0, 50, 45
1, 31160, Note_on_c, 0, 74, 58
1, 31175, Note_on_c, 0, 65, 51
1, 31421, Note_on_c, 0, 65, 0
1, 31447, Note_on_c, 0, 53, 42
1, 31511, Note_on_c, 0, 74, 0
1, 31603, Note_on_c, 0, 50, 0
1, 31690, Note_on_c, 0, 53, 0
1, 31701, Note_on_c, 0, 57, 45
1, 31830, Note_on_c, 0, 57, 0
1, 31966, Note_on_c, 0, 67, 53
1, 31970, Note_on_c, 0, 70, 55
1, 31987, Control_c, 0, 64, 0
1, 31991, Note_on_c, 0, 46, 45
1, 32005, Note_on_c, 0, 74, 61
1, 32121, Control_c, 0, 64, 127
1, 32147, Note_on_c, 0, 67, 0
1, 32252, Note_on_c, 0, 55, 57
1, 32270, Note_on_c, 0, 76, 65
1, 32330, Note_on_c, 0, 70, 0
1, 32359, Note_on_c, 0, 46, 0
1, 32481, Note_on_c, 0, 74, 0
1, 32526, Note_on_c, 0, 77, 70
1, 32532, Note_on_c, 0, 58, 60
1, 32549, Note_on_c, 0, 55, 0
1, 32565, Note_on_c, 0, 76, 0
1, 32624, Note_on_c, 0, 77, 0
1, 32645, Note_on_c, 0, 58, 0
1, 32818, Note_on_c, 0, 55, 57
1, 32826, Note_on_c, 0, 74, 51
1, 32829, Note_on_c, 0, 79, 77
1, 32846, Note_on_c, 0, 70, 47
1, 32865, Control_c, 0, 64, 0
1, 32993, Control_c, 0, 64, 127
1, 33101, Note_on_c, 0, 58, 44
1, 33213, Note_on_c, 0, 55, 0
1, 33342, Note_on_c, 0, 62, 56
1, 33346, Note_on_c, 0, 74, 0
1, 33461, Note_on_c, 0, 58, 0
1, 33614, Note_on_c, 0, 62, 0
1, 33634, Note_on_c, 0, 55, 58
1, 33645, Note_on_c, 0, 76, 77
1, 33729, Note_on_c, 0, 70, 0
1, 33734, Note_on_c, 0, 79, 0
1, 33925, Note_on_c, 0, 58, 52
1, 33988, Note_on_c, 0, 76, 0
1, 34115, Note_on_c, 0, 55, 0
1, 34169, Note_on_c, 0, 62, 67
1, 34192, Note_on_c, 0, 58, 0
1, 34268, Note_on_c, 0, 62, 0
1, 34454, Note_on_c, 0, 74, 35
1, 34458, Note_on_c, 0, 81, 82
1, 34465, Note_on_c, 0, 77, 43
1, 34468, Note_on_c, 0, 45, 56
1, 34487, Control_c, 0, 64, 0
1, 34624, Control_c, 0, 64, 127
1, 34714, Note_on_c, 0, 45, 0
1, 34725, Note_on_c, 0, 53, 52
1, 34887, Note_on_c, 0, 53, 0
1, 34912, Note_on_c, 0, 74, 0
1, 34971, Note_on_c, 0, 81, 0
1, 34999, Note_on_c, 0, 62, 59
1, 35023, Note_on_c, 0, 77, 0
1, 35078, Note_on_c, 0, 62, 0
1, 35287, Note_on_c, 0, 70, 40
1, 35302, Note_on_c, 0, 39, 66
1, 35310, Note_on_c, 0, 79, 85
1, 35340, Note_on_c, 0, 75, 48
1, 35342, Control_c, 0, 64, 0
1, 35507, Control_c, 0, 64, 127
1, 35582, Note_on_c, 0, 46, 60
1, 35604, Note_on_c, 0, 39, 0
1, 35816, Note_on_c, 0, 46, 0
1, 35857, Note_on_c, 0, 55, 66
1, 36028, Note_on_c, 0, 55, 0
1, 36171, Note_on_c, 0, 51, 66
1, 36491, Note_on_c, 0, 55, 54
1, 36586, Note_on_c, 0, 51, 0
1, 36854, Note_on_c, 0, 58, 62
1, 36875, Note_on_c, 0, 75, 0
1, 36902, Note_on_c, 0, 70, 0
1, 36928, Note_on_c, 0, 55, 0
1, 36956, Note_on_c, 0, 58, 0
1, 36981, Note_on_c, 0, 79, 0
1, 37444, Note_on_c, 0, 38, 58
1, 37453, Note_on_c, 0, 74, 42
1, 37461, Note_on_c, 0, 77, 46
1, 37464, Note_on_c, 0, 81, 54
1, 37502, Control_c, 0, 64, 0
1, 37684, Control_c, 0, 64, 127
1, 38031, Note_on_c, 0, 38, 0
1, 38099, Note_on_c, 0, 45, 40
1, 38466, Note_on_c, 0, 50, 45
1, 38489, Note_on_c, 0, 45, 0
1, 38532, Note_on_c, 0, 50, 0
1, 38667, Note_on_c, 0, 77, 0
1, 38796, Note_on_c, 0, 62, 26
1, 38885, Note_on_c, 0, 74, 0
1, 39040, Note_on_c, 0, 62, 0
1, 39114, Note_on_c, 0, 57, 38
1, 39375, Note_on_c, 0, 57, 0
1, 39387, Note_on_c, 0, 53, 56
1, 39483, Note_on_c, 0, 53, 0
1, 39485, Note_on_c, 0, 81, 0
1, 39676, Note_on_c, 0, 50, 59
1, 39698, Note_on_c, 0, 81, 84
1, 40008, Note_on_c, 0, 45, 62
1, 40102, Note_on_c, 0, 50, 0
1, 40272, Note_on_c, 0, 81, 0
1, 40287, Note_on_c, 0, 45, 0
1, 40296, Note_on_c, 0, 41, 56
1, 40402, Note_on_c, 0, 41, 0
1, 40803, Note_on_c, 0, 84, 76
1, 40806, Note_on_c, 0, 39, 57
1, 40819, Note_on_c, 0, 75, 41
1, 40827, Note_on_c, 0, 79, 58
1, 40850, Control_c, 0, 64, 0
1, 41013, Control_c, 0, 64, 127
1, 41178, Note_on_c, 0, 48, 42
1, 41219, Note_on_c, 0, 39, 0
1, 41405, Note_on_c, 0, 48, 0
1, 41455, Note_on_c, 0, 55, 52
1, 41606, Note_on_c, 0, 55, 0
1, 41729, Note_on_c, 0, 60, 44
1, 41990, Note_on_c, 0, 75, 0
1, 42007, Note_on_c, 0, 84, 0
1, 42027, Note_on_c, 0, 60, 0
1, 42033, Note_on_c, 0, 63, 41
1, 42180, Note_on_c, 0, 82, 56
1, 42256, Note_on_c, 0, 79, 0
1, 42311, Note_on_c, 0, 67, 46
1, 42395, Note_on_c, 0, 82, 0
1, 42418, Note_on_c, 0, 63, 0
1, 42554, Note_on_c, 0, 67, 0
1, 42605, Note_on_c, 0, 60, 53
1, 42615, Note_on_c, 0, 81, 61
1, 42875, Note_on_c, 0, 63, 52
1, 42975, Note_on_c, 0, 60, 0
1, 43025, Note_on_c, 0, 79, 67
1, 43104, Note_on_c, 0, 81, 0
1, 43158, Note_on_c, 0, 67, 53
1, 43170, Note_on_c, 0, 63, 0
1, 43217, Note_on_c, 0, 67, 0
1, 43219, Note_on_c, 0, 79, 0
1, 43456, Note_on_c, 0, 74, 47
1, 43467, Note_on_c, 0, 70, 54
1, 43480, Note_on_c, 0, 79, 64
1, 43487, Control_c, 0, 64, 0
1, 43524, Note_on_c, 0, 43, 36
1, 43612, Control_c, 0, 64, 127
1, 43739, Note_on_c, 0, 81, 64
1, 43748, Note_on_c, 0, 50, 60
1, 43751, Note_on_c, 0, 70, 0
1, 43766, Note_on_c, 0, 43, 0
1, 43795, Note_on_c, 0, 79, 0
1, 43870, Note_on_c, 0, 81, 0
1, 43922, Note_on_c, 0, 50, 0
1, 44030, Note_on_c, 0, 82, 76
1, 44039, Note_on_c, 0, 58, 43
1, 44068, Note_on_c, 0, 74, 0
1, 44140, Note_on_c, 0, 58, 0
1, 44180, Note_on_c, 0, 82, 0
1, 44323, Note_on_c, 0, 55, 53
1, 44329, Note_on_c, 0, 82, 73
1, 44332, Note_on_c, 0, 74, 64
1, 44637, Note_on_c, 0, 58, 40
1, 44641, Note_on_c, 0, 74, 0
1, 44690, Note_on_c, 0, 55, 0
1, 44868, Note_on_c, 0, 62, 57
1, 44966, Note_on_c, 0, 58, 0
1, 45152, Note_on_c, 0, 82, 0
1, 45159, Note_on_c, 0, 62, 0
1, 45164, Note_on_c, 0, 55, 61
1, 45167, Note_on_c, 0, 70, 54
1, 45171, Note_on_c, 0, 79, 70
1, 45402, Note_on_c, 0, 70, 0
1, 45452, Note_on_c, 0, 58, 54
1, 45528, Note_on_c, 0, 79, 0
1, 45678, Note_on_c, 0, 55, 0
1, 45710, Note_on_c, 0, 62, 51
1, 45746, Note_on_c, 0, 58, 0
1, 45794, Note_on_c, 0, 62, 0
1, 46014, Note_on_c, 0, 84, 73
1, 46017, Note_on_c, 0, 39, 50
1, 46023, Note_on_c, 0, 75, 48
1, 46028, Note_on_c, 0, 79, 50
1, 46067, Control_c, 0, 64, 0
1, 46204, Control_c, 0, 64, 127
1, 46290, Note_on_c, 0, 48, 57
1, 46347, Note_on_c, 0, 39, 0
1, 46498, Note_on_c, 0, 48, 0
1, 46543, Note_on_c, 0, 55, 51
1, 46734, Note_on_c, 0, 55, 0
1, 46828, Note_on_c, 0, 60, 59
1, 47126, Note_on_c, 0, 63, 62
1, 47201, Note_on_c, 0, 84, 0
1, 47226, Note_on_c, 0, 60, 0
1, 47259, Note_on_c, 0, 82, 74
1, 47275, Note_on_c, 0, 75, 0
1, 47433, Note_on_c, 0, 79, 0
1, 47441, Note_on_c, 0, 67, 47
1, 47490, Note_on_c, 0, 82, 0
1, 47582, Note_on_c, 0, 63, 0
1, 47711, Note_on_c, 0, 81, 77
1, 47713, Note_on_c, 0, 60, 63
1, 47736, Note_on_c, 0, 67, 0
1, 48001, Note_on_c, 0, 63, 57
1, 48122, Note_on_c, 0, 79, 76
1, 48203, Note_on_c, 0, 81, 0
1, 48207, Note_on_c, 0, 60, 0
1, 48271, Note_on_c, 0, 67, 66
1, 48322, Note_on_c, 0, 63, 0
1, 48343, Note_on_c, 0, 67, 0
1, 48367, Note_on_c, 0, 79, 0
1, 48553, Note_on_c, 0, 69, 45
1, 48559, Note_on_c, 0, 38, 70
1, 48563, Note_on_c, 0, 78, 71
1, 48568, Note_on_c, 0, 74, 43
1, 48597, Control_c, 0, 64, 0
1, 48736, Control_c, 0, 64, 127
1, 48893, Note_on_c, 0, 69, 0
1, 48927, Note_on_c, 0, 38, 0
1, 48942, Note_on_c, 0, 81, 82
1, 48954, Note_on_c, 0, 45, 52
1, 48966, Note_on_c, 0, 74, 0
1, 48993, Note_on_c, 0, 78, 0
1, 49040, Note_on_c, 0, 81, 0
1, 49377, Note_on_c, 0, 81, 69
1, 49380, Note_on_c, 0, 86, 76
1, 49388, Note_on_c, 0, 78, 70
1, 49395, Note_on_c, 0, 54, 57
1, 49398, Note_on_c, 0, 45, 0
1, 49761, Note_on_c, 0, 86, 0
1, 49767, Note_on_c, 0, 81, 0
1, 49796, Note_on_c, 0, 54, 0
1, 49825, Note_on_c, 0, 78, 0
1, 49832, Note_on_c, 0, 57, 60
1, 50354, Note_on_c, 0, 66, 70
1, 50358, Note_on_c, 0, 74, 77
1, 50368, Note_on_c, 0, 62, 61
1, 50680, Note_on_c, 0, 66, 0
1, 50724, Note_on_c, 0, 62, 0
1, 50771, Note_on_c, 0, 74, 0
1, 50792, Note_on_c, 0, 57, 0
1, 51405, Note_on_c, 0, 44, 47
1, 51419, Note_on_c, 0, 77, 66
1, 51440, Note_on_c, 0, 68, 26
1, 51447, Note_on_c, 0, 72, 52
1, 51457, Control_c, 0, 64, 0
1, 51640, Control_c, 0, 64, 127
1, 51730, Note_on_c, 0, 53, 51
1, 51773, Note_on_c, 0, 44, 0
1, 51894, Note_on_c, 0, 53, 0
1, 51984, Note_on_c, 0, 60, 50
1, 52179, Note_on_c, 0, 60, 0
1, 52271, Note_on_c, 0, 56, 44
1, 52522, Note_on_c, 0, 60, 43
1, 52543, Note_on_c, 0, 56, 0
1, 52605, Note_on_c, 0, 77, 0
1, 52680, Note_on_c, 0, 68, 0
1, 52718, Note_on_c, 0, 75, 64
1, 52852, Note_on_c, 0, 72, 0
1, 52874, Note_on_c, 0, 65, 45
1, 52912, Note_on_c, 0, 75, 0
1, 52948, Note_on_c, 0, 60, 0
1, 53101, Note_on_c, 0, 65, 0
1, 53153, Note_on_c, 0, 74, 69
1, 53164, Note_on_c, 0, 56, 45
1, 53453, Note_on_c, 0, 60, 36
1, 53571, Note_on_c, 0, 72, 64
1, 53630, Note_on_c, 0, 56, 0
1, 53641, Note_on_c, 0, 74, 0
1, 53668, Note_on_c, 0, 65, 42
1, 53699, Note_on_c, 0, 60, 0
1, 53736, Note_on_c, 0, 65, 0
1, 53743, Note_on_c, 0, 72, 0
1, 54000, Note_on_c, 0, 43, 37
1, 54004, Control_c, 0, 64, 0
1, 54010, Note_on_c, 0, 72, 54
1, 54032, Note_on_c, 0, 63, 46
1, 54050, Note_on_c, 0, 67, 50
1, 54131, Control_c, 0, 64, 127
1, 54275, Note_on_c, 0, 74, 67
1, 54287, Note_on_c, 0, 43, 0
1, 54290, Note_on_c, 0, 51, 50
1, 54294, Note_on_c, 0, 72, 0
1, 54298, Note_on_c, 0, 63, 0
1, 54389, Note_on_c, 0, 74, 0
1, 54475, Note_on_c, 0, 51, 0
1, 54531, Note_on_c, 0, 67, 0
1, 54541, Note_on_c, 0, 75, 74
1, 54569, Note_on_c, 0, 60, 37
1, 54645, Note_on_c, 0, 60, 0
1, 54699, Note_on_c, 0, 75, 0
1, 54817, Note_on_c, 0, 55, 56
1, 54842, Note_on_c, 0, 75, 78
1, 54850, Note_on_c, 0, 67, 54
1, 55094, Note_on_c, 0, 60, 46
1, 55102, Note_on_c, 0, 55, 0
1, 55328, Note_on_c, 0, 67, 0
1, 55372, Note_on_c, 0, 63, 57
1, 55529, Note_on_c, 0, 60, 0
1, 55650, Note_on_c, 0, 63, 0
1, 55654, Note_on_c, 0, 72, 65
1, 55664, Note_on_c, 0, 55, 51
1, 55721, Note_on_c, 0, 75, 0
1, 55916, Note_on_c, 0, 60, 48
1, 56167, Note_on_c, 0, 55, 0
1, 56169, Note_on_c, 0, 63, 57
1, 56215, Note_on_c, 0, 60, 0
1, 56245, Note_on_c, 0, 72, 0
1, 56251, Note_on_c, 0, 63, 0
1, 56476, Note_on_c, 0, 44, 64
1, 56479, Note_on_c, 0, 77, 85
1, 56484, Note_on_c, 0, 68, 48
1, 56488, Note_on_c, 0, 72, 54
1, 56541, Control_c, 0, 64, 0
1, 56680, Control_c, 0, 64, 127
1, 56764, Note_on_c, 0, 53, 49
1, 56827, Note_on_c, 0, 44, 0
1, 56990, Note_on_c, 0, 53, 0
1, 57038, Note_on_c, 0, 60, 53
1, 57280, Note_on_c, 0, 60, 0
1, 57304, Note_on_c, 0, 56, 53
1, 57565, Note_on_c, 0, 60, 48
1, 57621, Note_on_c, 0, 77, 0
1, 57694, Note_on_c, 0, 56, 0
1, 57710, Note_on_c, 0, 68, 0
1, 57752, Note_on_c, 0, 75, 75
1, 57889, Note_on_c, 0, 65, 44
1, 57898, Note_on_c, 0, 72, 0
1, 57989, Note_on_c, 0, 75, 0
1, 58011, Note_on_c, 0, 60, 0
1, 58130, Note_on_c, 0, 65, 0
1, 58172, Note_on_c, 0, 56, 56
1, 58184, Note_on_c, 0, 74, 73
1, 58427, Note_on_c, 0, 60, 44
1, 58611, Note_on_c, 0, 72, 69
1, 58705, Note_on_c, 0, 74, 0
1, 58727, Note_on_c, 0, 56, 0
1, 58754, Note_on_c, 0, 65, 38
1, 58818, Note_on_c, 0, 60, 0
1, 58819, Note_on_c, 0, 65, 0
1, 58846, Note_on_c, 0, 72, 0
1, 59073, Note_on_c, 0, 43, 62
1, 59088, Note_on_c, 0, 62, 48
1, 59090, Note_on_c, 0, 71, 66
1, 59095, Note_on_c, 0, 67, 31
1, 59118, Control_c, 0, 64, 0
1, 59269, Control_c, 0, 64, 127
1, 59429, Note_on_c, 0, 62, 0
1, 59489, Note_on_c, 0, 74, 69
1, 59494, Note_on_c, 0, 50, 55
1, 59512, Note_on_c, 0, 67, 0
1, 59542, Note_on_c, 0, 71, 0
1, 59547, Note_on_c, 0, 43, 0
1, 59600, Note_on_c, 0, 74, 0
1, 59960, Note_on_c, 0, 74, 65
1, 59963, Note_on_c, 0, 79, 72
1, 59975, Note_on_c, 0, 71, 56
1, 59985, Note_on_c, 0, 59, 54
1, 59988, Note_on_c, 0, 50, 0
1, 60418, Note_on_c, 0, 59, 0
1, 60505, Note_on_c, 0, 55, 47
1, 60745, Note_on_c, 0, 55, 0
1, 61251, Note_on_c, 0, 67, 39
1, 62019, Note_on_c, 0, 71, 0
1, 62177, Note_on_c, 0, 79, 0
1, 62229, Note_on_c, 0, 74, 0
1, 62249, Note_on_c, 0, 67, 0
1, 62867, Control_c, 0, 64, 0
1, 63185, Note_on_c, 0, 60, 38
1, 63434, Note_on_c, 0, 63, 40
1, 63477, Control_c, 0, 64, 127
1, 63518, Note_on_c, 0, 60, 0
1, 63698, Note_on_c, 0, 67, 41
1, 63716, Note_on_c, 0, 63, 0
1, 63966, Note_on_c, 0, 67, 0
1, 63979, Note_on_c, 0, 60, 42
1, 64242, Note_on_c, 0, 60, 0
1, 64244, Note_on_c, 0, 63, 37
1, 64537, Note_on_c, 0, 67, 40
1, 64560, Note_on_c, 0, 63, 0
1, 64782, Note_on_c, 0, 55, 51
1, 64807, Note_on_c, 0, 60, 52
1, 64853, Note_on_c, 0, 67, 0
1, 65074, Note_on_c, 0, 63, 44
1, 65096, Note_on_c, 0, 60, 0
1, 65344, Note_on_c, 0, 67, 50
1, 65411, Note_on_c, 0, 63, 0
1, 65608, Note_on_c, 0, 48, 64
1, 65632, Note_on_c, 0, 60, 56
1, 65683, Note_on_c, 0, 67, 0
1, 65760, Note_on_c, 0, 55, 0
1, 65900, Note_on_c, 0, 63, 45
1, 65919, Note_on_c, 0, 60, 0
1, 66189, Note_on_c, 0, 67, 44
1, 66219, Note_on_c, 0, 63, 0
1, 66433, Note_on_c, 0, 48, 0
1, 66450, Note_on_c, 0, 60, 53
1, 66503, Note_on_c, 0, 67, 0
1, 66718, Note_on_c, 0, 63, 43
1, 66743, Note_on_c, 0, 60, 0
1, 66984, Note_on_c, 0, 67, 54
1, 67012, Note_on_c, 0, 63, 0
1, 67252, Note_on_c, 0, 43, 72
1, 67274, Note_on_c, 0, 60, 61
1, 67337, Note_on_c, 0, 67, 0
1, 67549, Note_on_c, 0, 63, 47
1, 67597, Note_on_c, 0, 60, 0
1, 67810, Note_on_c, 0, 67, 51
1, 67872, Note_on_c, 0, 63, 0
1, 68082, Note_on_c, 0, 36, 73
1, 68096, Note_on_c, 0, 60, 59
1, 68156, Note_on_c, 0, 67, 0
1, 68205, Note_on_c, 0, 43, 0
1, 68369, Note_on_c, 0, 63, 45
1, 68398, Note_on_c, 0, 60, 0
1, 68660, Note_on_c, 0, 67, 43
1, 68734, Note_on_c, 0, 63, 0
1, 68971, Note_on_c, 0, 60, 54
1, 68989, Note_on_c, 0, 67, 0
1, 69238, Note_on_c, 0, 63, 50
1, 69240, Note_on_c, 0, 60, 0
1, 69242, Note_on_c, 0, 36, 0
1, 69470, Note_on_c, 0, 67, 52
1, 69518, Note_on_c, 0, 63, 0
1, 69767, Note_on_c, 0, 60, 65
1, 69770, Note_on_c, 0, 55, 73
1, 69795, Note_on_c, 0, 67, 0
1, 70026, Note_on_c, 0, 63, 55
1, 70061, Note_on_c, 0, 60, 0
1, 70285, Note_on_c, 0, 67, 56
1, 70345, Note_on_c, 0, 63, 0
1, 70565, Note_on_c, 0, 48, 76
1, 70581, Note_on_c, 0, 60, 65
1, 70678, Note_on_c, 0, 67, 0
1, 70751, Note_on_c, 0, 55, 0
1, 70842, Note_on_c, 0, 63, 55
1, 70920, Note_on_c, 0, 60, 0
1, 71116, Note_on_c, 0, 67, 64
1, 71199, Note_on_c, 0, 63, 0
1, 71404, Note_on_c, 0, 60, 59
1, 71537, Note_on_c, 0, 67, 0
1, 71662, Note_on_c, 0, 63, 70
1, 71669, Note_on_c, 0, 48, 0
1, 71755, Note_on_c, 0, 60, 0
1, 71939, Note_on_c, 0, 67, 79
1, 71966, Note_on_c, 0, 63, 0
1, 72100, Note_on_c, 0, 67, 0
1, 72241, Note_on_c, 0, 43, 82
1, 72244, Note_on_c, 0, 31, 78
1, 72255, Control_c, 0, 64, 0
1, 72259, Note_on_c, 0, 67, 80
1, 72262, Note_on_c, 0, 59, 76
1, 72266, Note_on_c, 0, 62, 79
1, 72450, Control_c, 0, 64, 127
1, 72483, Note_on_c, 0, 59, 0
1, 72550, Note_on_c, 0, 62, 0
1, 72592, Note_on_c, 0, 31, 0
1, 72619, Note_on_c, 0, 67, 0
1, 72674, Note_on_c, 0, 43, 0
1, 73213, Control_c, 0, 64, 0
1, 73302, Note_on_c, 0, 36, 82
1, 73315, Note_on_c, 0, 75, 95
1, 73322, Note_on_c, 0, 67, 72
1, 73325, Note_on_c, 0, 72, 74
1, 73367, Control_c, 0, 64, 127
1, 73640, Note_on_c, 0, 72, 0
1, 73704, Note_on_c, 0, 75, 0
1, 73728, Note_on_c, 0, 67, 0
1, 74145, Note_on_c, 0, 36, 0
1, 74174, Note_on_c, 0, 48, 58
1, 74178, Note_on_c, 0, 60, 55
1, 74346, Note_on_c, 0, 48, 0
1, 74443, Note_on_c, 0, 60, 0
1, 74448, Note_on_c, 0, 63, 51
1, 74692, Note_on_c, 0, 63, 0
1, 74697, Note_on_c, 0, 67, 63
1, 74737, Note_on_c, 0, 67, 0
1, 74965, Note_on_c, 0, 51, 65
1, 74981, Note_on_c, 0, 72, 94
1, 74992, Note_on_c, 0, 63, 73
1, 75214, Note_on_c, 0, 63, 0
1, 75237, Note_on_c, 0, 55, 63
1, 75316, Note_on_c, 0, 72, 0
1, 75473, Note_on_c, 0, 51, 0
1, 75508, Note_on_c, 0, 60, 68
1, 75588, Note_on_c, 0, 55, 0
1, 75683, Note_on_c, 0, 60, 0
1, 75809, Note_on_c, 0, 77, 75
1, 75813, Note_on_c, 0, 53, 76
1, 75818, Note_on_c, 0, 68, 52
1, 75875, Control_c, 0, 64, 0
1, 75997, Control_c, 0, 64, 127
1, 76056, Note_on_c, 0, 75, 80
1, 76089, Note_on_c, 0, 77, 0
1, 76229, Note_on_c, 0, 68, 0
1, 76328, Note_on_c, 0, 74, 83
1, 76389, Note_on_c, 0, 75, 0
1, 76482, Note_on_c, 0, 74, 0
1, 76532, Note_on_c, 0, 53, 0
1, 76642, Note_on_c, 0, 48, 64
1, 76645, Note_on_c, 0, 67, 69
1, 76649, Note_on_c, 0, 72, 63
1, 76653, Note_on_c, 0, 75, 83
1, 76680, Control_c, 0, 64, 0
1, 76835, Control_c, 0, 64, 127
1, 76988, Note_on_c, 0, 48, 0
1, 77131, Note_on_c, 0, 72, 0
1, 77134, Note_on_c, 0, 67, 0
1, 77199, Note_on_c, 0, 75, 0
1, 77453, Note_on_c, 0, 72, 83
1, 77460, Note_on_c, 0, 67, 65
1, 77464, Note_on_c, 0, 63, 65
1, 77673, Note_on_c, 0, 72, 0
1, 77693, Note_on_c, 0, 63, 0
1, 77741, Note_on_c, 0, 60, 67
1, 77765, Note_on_c, 0, 67, 0
1, 77991, Note_on_c, 0, 60, 0
1, 78002, Note_on_c, 0, 55, 66
1, 78224, Note_on_c, 0, 55, 0
1, 78272, Note_on_c, 0, 75, 80
1, 78282, Control_c, 0, 64, 0
1, 78289, Note_on_c, 0, 67, 67
1, 78293, Note_on_c, 0, 48, 62
1, 78308, Note_on_c, 0, 72, 60
1, 78426, Control_c, 0, 64, 127
1, 78513, Note_on_c, 0, 75, 0
1, 78549, Note_on_c, 0, 74, 68
1, 78580, Note_on_c, 0, 72, 0
1, 78651, Note_on_c, 0, 67, 0
1, 78703, Note_on_c, 0, 48, 0
1, 78812, Note_on_c, 0, 74, 0
1, 78813, Note_on_c, 0, 72, 56
1, 78944, Note_on_c, 0, 72, 0
1, 79128, Note_on_c, 0, 46, 59
1, 79131, Note_on_c, 0, 70, 53
1, 79134, Note_on_c, 0, 74, 76
1, 79140, Note_on_c, 0, 67, 50
1, 79165, Control_c, 0, 64, 0
1, 79314, Control_c, 0, 64, 127
1, 79407, Note_on_c, 0, 74, 0
1, 79433, Note_on_c, 0, 70, 0
1, 79446, Note_on_c, 0, 67, 0
1, 79486, Note_on_c, 0, 46, 0
1, 79939, Note_on_c, 0, 62, 55
1, 79942, Note_on_c, 0, 55, 46
1, 79953, Note_on_c, 0, 70, 64
1, 79961, Note_on_c, 0, 67, 48
1, 80135, Note_on_c, 0, 62, 0
1, 80199, Note_on_c, 0, 50, 63
1, 80256, Note_on_c, 0, 67, 0
1, 80317, Note_on_c, 0, 55, 0
1, 80395, Note_on_c, 0, 70, 0
1, 80457, Note_on_c, 0, 50, 0
1, 80472, Note_on_c, 0, 46, 64
1, 80675, Note_on_c, 0, 46, 0
1, 80813, Note_on_c, 0, 44, 67
1, 80816, Note_on_c, 0, 72, 80
1, 80825, Note_on_c, 0, 68, 62
1, 80832, Note_on_c, 0, 63, 47
1, 80845, Control_c, 0, 64, 0
1, 81005, Control_c, 0, 64, 127
1, 81121, Note_on_c, 0, 44, 0
1, 81618, Note_on_c, 0, 60, 52
1, 81653, Note_on_c, 0, 63, 0
1, 81666, Note_on_c, 0, 72, 0
1, 81677, Note_on_c, 0, 68, 0
1, 81885, Note_on_c, 0, 56, 51
1, 81944, Note_on_c, 0, 60, 0
1, 82132, Note_on_c, 0, 51, 61
1, 82140, Note_on_c, 0, 56, 0
1, 82186, Note_on_c, 0, 51, 0
1, 82443, Note_on_c, 0, 43, 75
1, 82454, Note_on_c, 0, 67, 58
1, 82457, Note_on_c, 0, 62, 62
1, 82461, Note_on_c, 0, 70, 79
1, 82491, Control_c, 0, 64, 0
1, 82621, Control_c, 0, 64, 127
1, 82702, Note_on_c, 0, 62, 0
1, 82765, Note_on_c, 0, 67, 0
1, 82804, Note_on_c, 0, 70, 0
1, 83178, Note_on_c, 0, 43, 0
1, 83342, Note_on_c, 0, 39, 65
1, 83344, Note_on_c, 0, 58, 55
1, 83350, Note_on_c, 0, 63, 54
1, 83354, Note_on_c, 0, 67, 69
1, 83365, Control_c, 0, 64, 0
1, 83538, Control_c, 0, 64, 127
1, 83667, Note_on_c, 0, 39, 0
1, 83791, Note_on_c, 0, 58, 0
1, 83949, Note_on_c, 0, 63, 0
1, 83999, Note_on_c, 0, 67, 0
1, 84154, Note_on_c, 0, 55, 53
1, 84410, Note_on_c, 0, 58, 63
1, 84514, Note_on_c, 0, 55, 0
1, 84676, Note_on_c, 0, 58, 0
1, 84691, Note_on_c, 0, 51, 75
1, 84748, Note_on_c, 0, 51, 0
1, 85000, Note_on_c, 0, 43, 86
1, 85004, Note_on_c, 0, 59, 82
1, 85008, Note_on_c, 0, 67, 96
1, 85011, Note_on_c, 0, 62, 86
1, 85026, Control_c, 0, 64, 0
1, 85157, Control_c, 0, 64, 127
1, 85222, Note_on_c, 0, 59, 0
1, 85263, Note_on_c, 0, 62, 0
1, 85336, Note_on_c, 0, 67, 0
1, 85523, Note_on_c, 0, 43, 0
1, 85869, Note_on_c, 0, 36, 77
1, 85888, Note_on_c, 0, 67, 72
1, 85890, Note_on_c, 0, 72, 72
1, 85893, Note_on_c, 0, 75, 99
1, 85914, Control_c, 0, 64, 0
1, 86091, Control_c, 0, 64, 127
1, 86225, Note_on_c, 0, 72, 0
1, 86251, Note_on_c, 0, 75, 0
1, 86279, Note_on_c, 0, 36, 0
1, 86288, Note_on_c, 0, 67, 0
1, 86722, Note_on_c, 0, 48, 52
1, 86740, Note_on_c, 0, 60, 60
1, 86992, Note_on_c, 0, 63, 58
1, 87038, Note_on_c, 0, 60, 0
1, 87260, Note_on_c, 0, 55, 58
1, 87270, Note_on_c, 0, 63, 0
1, 87319, Note_on_c, 0, 48, 0
1, 87496, Note_on_c, 0, 51, 64
1, 87539, Note_off_c, 0, 55, 64
1, 87541, Note_on_c, 0, 63, 67
1, 87544, Note_on_c, 0, 72, 78
1, 87796, Note_on_c, 0, 55, 51
1, 87833, Note_on_c, 0, 63, 0
1, 87863, Note_on_c, 0, 72, 0
1, 87913, Note_on_c, 0, 51, 0
1, 88060, Note_on_c, 0, 55, 0
1, 88084, Note_on_c, 0, 48, 35
1, 88202, Note_on_c, 0, 48, 0
1, 88309, Control_c, 0, 64, 0
1, 88314, Note_on_c, 0, 63, 73
1, 88333, Note_on_c, 0, 44, 64
1, 88336, Note_on_c, 0, 72, 69
1, 88344, Note_on_c, 0, 68, 52
1, 88453, Control_c, 0, 64, 127
1, 88479, Note_on_c, 0, 63, 0
1, 88611, Note_on_c, 0, 74, 77
1, 88665, Note_on_c, 0, 44, 0
1, 88708, Note_on_c, 0, 68, 0
1, 88767, Note_on_c, 0, 72, 0
1, 88830, Note_on_c, 0, 75, 82
1, 88838, Note_on_c, 0, 74, 0
1, 88950, Note_on_c, 0, 75, 0
1, 89106, Note_on_c, 0, 56, 68
1, 89110, Note_on_c, 0, 77, 83
1, 89113, Note_on_c, 0, 72, 46
1, 89117, Note_on_c, 0, 68, 72
1, 89149, Control_c, 0, 64, 0
1, 89280, Control_c, 0, 64, 127
1, 89390, Note_on_c, 0, 60, 54
1, 89438, Note_on_c, 0, 72, 0
1, 89469, Note_on_c, 0, 77, 0
1, 89486, Note_on_c, 0, 68, 0
1, 89493, Note_on_c, 0, 56, 0
1, 89619, Note_on_c, 0, 60, 0
1, 89630, Note_on_c, 0, 65, 57
1, 89692, Note_on_c, 0, 65, 0
1, 89901, Note_on_c, 0, 68, 71
1, 89903, Note_on_c, 0, 65, 72
1, 89906, Note_on_c, 0, 74, 81
1, 89923, Note_on_c, 0, 53, 60
1, 90116, Note_on_c, 0, 65, 0
1, 90120, Note_on_c, 0, 68, 0
1, 90151, Note_on_c, 0, 48, 83
1, 90198, Note_on_c, 0, 74, 0
1, 90227, Note_on_c, 0, 53, 0
1, 90428, Note_on_c, 0, 44, 83
1, 90458, Note_on_c, 0, 48, 0
1, 90719, Note_on_c, 0, 44, 0
1, 90723, Note_on_c, 0, 48, 88
1, 90726, Note_on_c, 0, 67, 71
1, 90731, Note_on_c, 0, 72, 81
1, 90735, Note_on_c, 0, 75, 93
1, 90740, Note_on_c, 0, 79, 89
1, 90748, Control_c, 0, 64, 0
1, 90879, Control_c, 0, 64, 127
1, 90997, Note_on_c, 0, 79, 0
1, 91036, Note_on_c, 0, 75, 0
1, 91045, Note_on_c, 0, 72, 0
1, 91111, Note_on_c, 0, 67, 0
1, 91129, Note_on_c, 0, 48, 0
1, 91565, Note_on_c, 0, 34, 77
1, 91578, Note_on_c, 0, 77, 90
1, 91582, Note_on_c, 0, 70, 76
1, 91585, Note_on_c, 0, 65, 80
1, 91590, Control_c, 0, 64, 0
1, 91595, Note_on_c, 0, 74, 91
1, 91750, Control_c, 0, 64, 127
1, 91872, Note_on_c, 0, 77, 0
1, 91877, Note_on_c, 0, 65, 0
1, 91918, Note_on_c, 0, 74, 0
1, 91952, Note_on_c, 0, 70, 0
1, 92417, Note_on_c, 0, 62, 61
1, 92671, Note_on_c, 0, 65, 44
1, 92734, Note_on_c, 0, 62, 0
1, 92912, Note_on_c, 0, 65, 0
1, 92932, Note_on_c, 0, 58, 50
1, 93006, Note_on_c, 0, 58, 0
1, 93261, Note_on_c, 0, 67, 54
1, 93268, Note_on_c, 0, 79, 86
1, 93272, Note_on_c, 0, 43, 85
1, 93276, Note_on_c, 0, 72, 58
1, 93280, Note_on_c, 0, 75, 65
1, 93288, Control_c, 0, 64, 0
1, 93295, Note_on_c, 0, 34, 0
1, 93504, Control_c, 0, 64, 127
1, 94108, Note_on_c, 0, 36, 59
1, 94133, Note_on_c, 0, 43, 0
1, 94172, Note_on_c, 0, 67, 0
1, 94272, Note_on_c, 0, 72, 0
1, 94624, Note_on_c, 0, 75, 0
1, 94917, Note_on_c, 0, 48, 68
1, 94928, Note_on_c, 0, 72, 80
1, 95019, Note_on_c, 0, 79, 0
1, 95024, Note_on_c, 0, 36, 0
1, 95241, Note_on_c, 0, 72, 0
1, 95253, Note_on_c, 0, 48, 0
1, 95805, Note_on_c, 0, 77, 79
1, 95821, Note_on_c, 0, 44, 61
1, 95830, Note_on_c, 0, 68, 55
1, 95832, Note_on_c, 0, 72, 67
1, 95835, Control_c, 0, 64, 0
1, 96013, Control_c, 0, 64, 127
1, 96149, Note_on_c, 0, 44, 0
1, 96570, Note_on_c, 0, 65, 40
1, 96869, Note_on_c, 0, 77, 0
1, 96993, Note_on_c, 0, 75, 61
1, 97040, Note_on_c, 0, 72, 0
1, 97052, Note_on_c, 0, 68, 0
1, 97340, Note_on_c, 0, 65, 0
1, 97360, Note_on_c, 0, 60, 40
1, 97364, Note_on_c, 0, 74, 71
1, 97701, Note_on_c, 0, 60, 0
1, 97717, Note_on_c, 0, 75, 0
1, 97728, Note_on_c, 0, 74, 0
1, 97742, Note_on_c, 0, 72, 64
1, 97869, Note_on_c, 0, 72, 0
1, 98090, Control_c, 0, 64, 0
1, 98099, Note_on_c, 0, 60, 50
1, 98141, Note_on_c, 0, 72, 55
1, 98156, Note_on_c, 0, 63, 52
1, 98206, Note_on_c, 0, 67, 24
1, 98215, Control_c, 0, 64, 127
1, 98365, Note_on_c, 0, 74, 64
1, 98394, Note_on_c, 0, 72, 0
1, 98475, Note_on_c, 0, 74, 0
1, 98576, Note_on_c, 0, 63, 0
1, 98641, Note_on_c, 0, 75, 69
1, 98658, Note_on_c, 0, 67, 0
1, 98748, Note_on_c, 0, 75, 0
1, 98849, Note_on_c, 0, 60, 0
1, 98933, Note_on_c, 0, 55, 64
1, 98944, Note_on_c, 0, 67, 38
1, 98947, Note_on_c, 0, 75, 74
1, 98989, Control_c, 0, 64, 0
1, 99127, Control_c, 0, 64, 104
1, 99140, Control_c, 0, 64, 127
1, 99702, Note_on_c, 0, 55, 0
1, 99713, Note_on_c, 0, 67, 0
1, 99758, Note_on_c, 0, 72, 64
1, 99762, Note_on_c, 0, 48, 51
1, 99841, Note_on_c, 0, 75, 0
1, 100052, Note_on_c, 0, 48, 0
1, 100220, Note_on_c, 0, 72, 0
1, 100592, Note_on_c, 0, 44, 55
1, 100597, Note_on_c, 0, 77, 84
1, 100616, Note_on_c, 0, 72, 67
1, 100619, Note_on_c, 0, 68, 54
1, 100628, Control_c, 0, 64, 0
1, 100796, Control_c, 0, 64, 127
1, 101285, Note_on_c, 0, 44, 0
1, 101418, Note_on_c, 0, 53, 36
1, 101609, Note_on_c, 0, 77, 0
1, 101792, Note_on_c, 0, 75, 63
1, 101806, Note_on_c, 0, 68, 0
1, 101827, Note_on_c, 0, 72, 0
1, 102189, Note_on_c, 0, 74, 73
1, 102197, Note_on_c, 0, 53, 0
1, 102198, Note_on_c, 0, 60, 57
1, 102467, Note_on_c, 0, 60, 0
1, 102570, Note_on_c, 0, 75, 0
1, 102571, Note_on_c, 0, 72, 63
1, 102577, Note_on_c, 0, 74, 0
1, 102840, Note_on_c, 0, 72, 0
1, 102972, Note_on_c, 0, 67, 45
1, 102975, Note_on_c, 0, 43, 56
1, 102981, Note_on_c, 0, 62, 52
1, 102988, Note_on_c, 0, 71, 69
1, 102996, Control_c, 0, 64, 0
1, 103133, Control_c, 0, 64, 127
1, 103308, Note_on_c, 0, 62, 0
1, 103360, Note_on_c, 0, 74, 79
1, 103382, Note_on_c, 0, 67, 0
1, 103384, Note_on_c, 0, 71, 0
1, 103438, Note_on_c, 0, 74, 0
1, 103774, Note_on_c, 0, 74, 64
1, 103783, Note_on_c, 0, 79, 86
1, 103786, Note_on_c, 0, 71, 75
1, 103789, Note_on_c, 0, 55, 73
1, 103795, Note_on_c, 0, 43, 0
1, 104014, Note_on_c, 0, 71, 0
1, 104138, Note_on_c, 0, 74, 0
1, 104571, Note_on_c, 0, 43, 65
1, 104583, Note_on_c, 0, 67, 74
1, 104664, Note_on_c, 0, 55, 0
1, 104679, Note_on_c, 0, 79, 0
1, 104765, Note_on_c, 0, 67, 0
1, 104826, Note_on_c, 0, 43, 0
1, 105327, Note_on_c, 0, 61, 58
1, 105330, Note_on_c, 0, 37, 60
1, 105343, Note_on_c, 0, 70, 76
1, 105346, Note_on_c, 0, 65, 54
1, 105360, Control_c, 0, 64, 0
1, 105501, Control_c, 0, 64, 127
1, 105711, Note_on_c, 0, 46, 46
1, 105720, Note_on_c, 0, 37, 0
1, 106018, Note_on_c, 0, 46, 0
1, 106073, Note_on_c, 0, 53, 43
1, 106210, Note_on_c, 0, 61, 0
1, 106236, Note_on_c, 0, 65, 0
1, 106393, Note_on_c, 0, 68, 75
1, 106477, Note_on_c, 0, 70, 0
1, 106730, Control_c, 0, 64, 0
1, 106739, Note_on_c, 0, 49, 52
1, 106762, Note_on_c, 0, 67, 77
1, 106808, Note_on_c, 0, 68, 0
1, 106841, Control_c, 0, 64, 127
1, 107022, Note_on_c, 0, 49, 0
1, 107042, Note_on_c, 0, 67, 0
1, 107084, Note_on_c, 0, 65, 70
1, 107126, Note_on_c, 0, 65, 0
1, 107160, Note_on_c, 0, 53, 0
1, 107415, Control_c, 0, 64, 0
1, 107420, Note_on_c, 0, 41, 59
1, 107428, Note_on_c, 0, 65, 62
1, 107448, Note_on_c, 0, 56, 51
1, 107466, Note_on_c, 0, 60, 52
1, 107525, Control_c, 0, 64, 127
1, 107670, Note_on_c, 0, 67, 69
1, 107713, Note_on_c, 0, 65, 0
1, 107788, Note_on_c, 0, 56, 0
1, 107797, Note_on_c, 0, 67, 0
1, 107832, Note_on_c, 0, 48, 55
1, 107871, Note_on_c, 0, 41, 0
1, 107936, Note_on_c, 0, 68, 78
1, 107944, Note_on_c, 0, 60, 0
1, 108008, Note_on_c, 0, 48, 0
1, 108082, Note_on_c, 0, 68, 0
1, 108219, Note_on_c, 0, 68, 83
1, 108223, Note_on_c, 0, 60, 74
1, 108227, Note_on_c, 0, 56, 66
1, 108877, Note_on_c, 0, 60, 0
1, 108951, Note_on_c, 0, 53, 46
1, 108968, Note_on_c, 0, 65, 81
1, 109020, Note_on_c, 0, 68, 0
1, 109052, Note_on_c, 0, 56, 0
1, 109139, Note_on_c, 0, 53, 0
1, 109324, Note_on_c, 0, 65, 0
1, 109733, Note_on_c, 0, 37, 58
1, 109736, Note_on_c, 0, 70, 85
1, 109748, Note_on_c, 0, 65, 67
1, 109752, Note_on_c, 0, 61, 55
1, 109753, Control_c, 0, 64, 0
1, 109913, Control_c, 0, 64, 127
1, 110107, Note_on_c, 0, 46, 54
1, 110119, Note_on_c, 0, 37, 0
1, 110382, Note_on_c, 0, 46, 0
1, 110460, Note_on_c, 0, 53, 73
1, 110767, Note_on_c, 0, 61, 0
1, 110784, Note_on_c, 0, 70, 0
1, 110811, Note_on_c, 0, 68, 78
1, 110826, Note_on_c, 0, 65, 0
1, 110898, Note_on_c, 0, 68, 0
1, 111172, Note_on_c, 0, 49, 73
1, 111182, Control_c, 0, 64, 0
1, 111195, Note_on_c, 0, 63, 74
1, 111204, Note_on_c, 0, 67, 89
1, 111303, Control_c, 0, 64, 127
1, 111439, Note_on_c, 0, 63, 0
1, 111513, Note_on_c, 0, 49, 0
1, 111519, Note_on_c, 0, 67, 0
1, 111548, Note_on_c, 0, 65, 88
1, 111550, Note_on_c, 0, 61, 75
1, 111629, Note_on_c, 0, 53, 0
1, 111641, Note_on_c, 0, 65, 0
1, 111672, Note_on_c, 0, 61, 0
1, 111905, Note_on_c, 0, 48, 81
1, 111919, Note_on_c, 0, 60, 89
1, 111922, Note_on_c, 0, 64, 86
1, 111931, Control_c, 0, 64, 0
1, 112066, Control_c, 0, 64, 127
1, 112284, Note_on_c, 0, 60, 0
1, 112287, Note_on_c, 0, 55, 86
1, 112291, Note_on_c, 0, 48, 0
1, 112294, Note_on_c, 0, 67, 98
1, 112338, Note_on_c, 0, 64, 0
1, 112407, Note_on_c, 0, 67, 0
1, 112519, Note_on_c, 0, 55, 0
1, 112678, Note_on_c, 0, 52, 79
1, 112693, Note_on_c, 0, 60, 81
1, 112696, Note_on_c, 0, 72, 91
1, 112700, Note_on_c, 0, 64, 81
1, 113073, Note_on_c, 0, 52, 0
1, 113087, Note_on_c, 0, 48, 94
1, 113153, Note_on_c, 0, 60, 0
1, 113196, Note_on_c, 0, 72, 0
1, 113203, Note_on_c, 0, 48, 0
1, 113275, Note_on_c, 0, 64, 0
1, 113549, Note_on_c, 0, 43, 101
1, 113553, Note_on_c, 0, 60, 95
1, 113557, Note_on_c, 0, 72, 99
1, 113565, Note_on_c, 0, 64, 93
1, 113994, Note_on_c, 0, 60, 0
1, 114056, Note_on_c, 0, 36, 107
1, 114073, Note_on_c, 0, 64, 0
1, 114117, Note_on_c, 0, 43, 0
1, 114149, Note_on_c, 0, 72, 0
1, 114278, Note_on_c, 0, 36, 0
1, 114741, Note_on_c, 0, 29, 86
1, 114744, Note_on_c, 0, 80, 99
1, 114747, Note_on_c, 0, 68, 88
1, 114752, Note_on_c, 0, 41, 93
1, 114756, Note_on_c, 0, 77, 75
1, 114760, Note_on_c, 0, 72, 78
1, 114764, Control_c, 0, 64, 0
1, 114961, Control_c, 0, 64, 127
1, 115085, Note_on_c, 0, 29, 0
1, 115152, Note_on_c, 0, 41, 0
1, 115580, Note_on_c, 0, 77, 0
1, 115584, Note_on_c, 0, 80, 0
1, 115593, Note_on_c, 0, 72, 0
1, 115595, Note_on_c, 0, 56, 82
1, 115634, Note_on_c, 0, 68, 0
1, 115779, Note_on_c, 0, 56, 0
1, 116382, Note_on_c, 0, 41, 86
1, 116390, Note_on_c, 0, 65, 87
1, 116393, Note_on_c, 0, 68, 82
1, 116397, Note_on_c, 0, 53, 88
1, 116402, Note_on_c, 0, 77, 98
1, 116405, Note_on_c, 0, 72, 83
1, 116414, Control_c, 0, 64, 0
1, 116551, Control_c, 0, 64, 127
1, 116578, Note_on_c, 0, 65, 0
1, 116665, Note_on_c, 0, 72, 0
1, 116683, Note_on_c, 0, 68, 0
1, 116712, Note_on_c, 0, 77, 0
1, 116736, Note_on_c, 0, 41, 0
1, 116751, Note_on_c, 0, 53, 0
1, 117155, Note_on_c, 0, 82, 85
1, 117159, Note_on_c, 0, 41, 82
1, 117164, Note_on_c, 0, 70, 72
1, 117169, Note_on_c, 0, 73, 75
1, 117191, Control_c, 0, 64, 0
1, 117301, Note_on_c, 0, 70, 0
1, 117308, Control_c, 0, 64, 127
1, 117316, Note_on_c, 0, 82, 0
1, 117339, Note_on_c, 0, 73, 0
1, 117435, Note_on_c, 0, 68, 84
1, 117438, Note_on_c, 0, 80, 88
1, 117521, Note_on_c, 0, 68, 0
1, 117541, Note_on_c, 0, 80, 0
1, 117677, Note_on_c, 0, 79, 97
1, 117680, Note_on_c, 0, 67, 89
1, 117746, Note_on_c, 0, 67, 0
1, 117763, Note_on_c, 0, 79, 0
1, 117978, Note_on_c, 0, 68, 70
1, 117981, Note_on_c, 0, 80, 95
1, 117985, Note_on_c, 0, 77, 61
1, 117989, Note_on_c, 0, 53, 84
1, 117994, Note_on_c, 0, 72, 63
1, 118003, Control_c, 0, 64, 0
1, 118108, Control_c, 0, 64, 127
1, 118123, Note_on_c, 0, 41, 0
1, 118226, Note_on_c, 0, 80, 0
1, 118258, Note_on_c, 0, 77, 0
1, 118267, Note_on_c, 0, 72, 0
1, 118299, Note_on_c, 0, 53, 0
1, 118325, Note_on_c, 0, 68, 0
1, 118721, Note_on_c, 0, 65, 52
1, 118723, Note_on_c, 0, 68, 55
1, 118728, Note_on_c, 0, 72, 50
1, 118736, Note_on_c, 0, 77, 90
1, 118740, Control_c, 0, 64, 0
1, 118747, Note_on_c, 0, 48, 65
1, 118865, Control_c, 0, 64, 127
1, 118942, Note_on_c, 0, 65, 0
1, 119010, Note_on_c, 0, 56, 76
1, 119035, Note_on_c, 0, 68, 0
1, 119037, Note_on_c, 0, 48, 0
1, 119046, Note_on_c, 0, 72, 0
1, 119090, Note_on_c, 0, 77, 0
1, 119261, Note_on_c, 0, 48, 81
1, 119273, Note_on_c, 0, 56, 0
1, 119374, Note_on_c, 0, 48, 0
1, 119532, Note_on_c, 0, 68, 90
1, 119537, Note_on_c, 0, 80, 94
1, 119541, Note_on_c, 0, 53, 86
1, 119544, Note_on_c, 0, 41, 79
1, 119549, Note_on_c, 0, 72, 76
1, 119565, Control_c, 0, 64, 0
1, 119642, Note_on_c, 0, 72, 0
1, 119671, Control_c, 0, 64, 127
1, 119678, Note_on_c, 0, 68, 0
1, 119689, Note_on_c, 0, 80, 0
1, 119799, Note_on_c, 0, 79, 95
1, 119802, Note_on_c, 0, 67, 83
1, 119868, Note_on_c, 0, 67, 0
1, 119884, Note_on_c, 0, 79, 0
1, 120034, Note_on_c, 0, 77, 80
1, 120042, Note_on_c, 0, 65, 73
1, 120088, Note_on_c, 0, 65, 0
1, 120093, Note_on_c, 0, 53, 0
1, 120101, Note_on_c, 0, 41, 0
1, 120125, Note_on_c, 0, 77, 0
1, 120353, Note_on_c, 0, 67, 71
1, 120356, Note_on_c, 0, 70, 69
1, 120360, Note_on_c, 0, 79, 89
1, 120366, Note_on_c, 0, 51, 87
1, 120369, Note_on_c, 0, 39, 77
1, 120374, Note_on_c, 0, 75, 68
1, 120378, Control_c, 0, 64, 0
1, 120511, Note_on_c, 0, 79, 0
1, 120516, Control_c, 0, 64, 127
1, 120579, Note_on_c, 0, 67, 0
1, 120618, Note_on_c, 0, 75, 0
1, 120624, Note_on_c, 0, 39, 0
1, 120637, Note_on_c, 0, 70, 0
1, 120718, Note_on_c, 0, 51, 0
1, 121127, Note_on_c, 0, 75, 81
1, 121130, Note_on_c, 0, 63, 64
1, 121134, Note_on_c, 0, 70, 57
1, 121138, Note_on_c, 0, 55, 68
1, 121142, Note_on_c, 0, 67, 46
1, 121295, Note_on_c, 0, 67, 0
1, 121311, Note_on_c, 0, 63, 0
1, 121389, Note_on_c, 0, 70, 0
1, 121400, Note_on_c, 0, 48, 76
1, 121410, Note_on_c, 0, 75, 0
1, 121431, Note_on_c, 0, 55, 0
1, 121513, Note_on_c, 0, 48, 0
1, 121661, Note_on_c, 0, 39, 91
1, 121750, Note_on_c, 0, 39, 0
1, 121966, Note_on_c, 0, 37, 107
1, 121969, Note_on_c, 0, 68, 76
1, 121973, Note_on_c, 0, 65, 68
1, 121978, Note_on_c, 0, 77, 99
1, 121982, Note_on_c, 0, 73, 74
1, 121989, Control_c, 0, 64, 0
1, 122167, Control_c, 0, 64, 127
1, 122412, Note_on_c, 0, 37, 0
1, 122789, Note_on_c, 0, 53, 84
1, 122819, Note_on_c, 0, 65, 0
1, 122839, Note_on_c, 0, 77, 0
1, 122887, Note_on_c, 0, 73, 0
1, 122914, Note_on_c, 0, 68, 0
1, 122947, Note_on_c, 0, 53, 0
1, 123586, Note_on_c, 0, 36, 82
1, 123590, Note_on_c, 0, 48, 82
1, 123594, Note_on_c, 0, 72, 78
1, 123599, Note_on_c, 0, 63, 81
1, 123602, Note_on_c, 0, 75, 93
1, 123606, Note_on_c, 0, 67, 73
1, 123616, Control_c, 0, 64, 0
1, 123763, Control_c, 0, 64, 127
1, 123900, Note_on_c, 0, 75, 0
1, 123919, Note_on_c, 0, 48, 0
1, 123919, Note_on_c, 0, 72, 0
1, 123937, Note_on_c, 0, 67, 0
1, 123974, Note_on_c, 0, 36, 0
1, 124020, Note_on_c, 0, 63, 0
1, 124430, Note_on_c, 0, 32, 95
1, 124434, Note_on_c, 0, 63, 71
1, 124438, Note_on_c, 0, 60, 69
1, 124442, Note_on_c, 0, 72, 97
1, 124447, Note_on_c, 0, 68, 75
1, 124468, Control_c, 0, 64, 0
1, 124675, Control_c, 0, 64, 127
1, 125228, Note_on_c, 0, 72, 0
1, 125251, Note_on_c, 0, 68, 0
1, 125253, Note_on_c, 0, 44, 64
1, 125257, Note_on_c, 0, 63, 0
1, 125292, Note_on_c, 0, 32, 0
1, 125309, Note_on_c, 0, 60, 0
1, 125580, Note_on_c, 0, 44, 0
1, 126054, Note_on_c, 0, 36, 93
1, 126067, Note_on_c, 0, 60, 84
1, 126070, Note_on_c, 0, 64, 70
1, 126073, Note_on_c, 0, 67, 81
1, 126078, Note_on_c, 0, 72, 95
1, 126089, Control_c, 0, 64, 0
1, 126220, Note_on_c, 0, 60, 0
1, 126226, Control_c, 0, 64, 127
1, 126310, Note_on_c, 0, 64, 0
1, 126325, Note_on_c, 0, 67, 0
1, 126397, Note_on_c, 0, 72, 0
1, 126428, Note_on_c, 0, 36, 0
1, 126921, Note_on_c, 0, 80, 98
1, 126924, Note_on_c, 0, 29, 94
1, 126927, Note_on_c, 0, 68, 81
1, 126933, Note_on_c, 0, 41, 97
1, 126937, Note_on_c, 0, 72, 76
1, 126940, Note_on_c, 0, 77, 72
1, 126950, Control_c, 0, 64, 0
1, 127116, Control_c, 0, 64, 127
1, 127181, Note_on_c, 0, 29, 0
1, 127260, Note_on_c, 0, 41, 0
1, 127441, Note_on_c, 0, 80, 0
1, 127460, Note_on_c, 0, 77, 0
1, 127475, Note_on_c, 0, 72, 0
1, 127607, Note_on_c, 0, 68, 0
1, 127773, Note_on_c, 0, 56, 80
1, 127917, Note_on_c, 0, 56, 0
1, 128470, Control_c, 0, 64, 0
1, 128475, Note_on_c, 0, 65, 66
1, 128476, Note_on_c, 0, 41, 86
1, 128479, Note_on_c, 0, 68, 72
1, 128485, Note_on_c, 0, 72, 68
1, 128489, Note_on_c, 0, 53, 99
1, 128492, Note_on_c, 0, 77, 97
1, 128618, Control_c, 0, 64, 127
1, 128652, Note_on_c, 0, 53, 0
1, 128680, Note_on_c, 0, 41, 0
1, 128879, Note_on_c, 0, 72, 0
1, 128889, Note_on_c, 0, 51, 91
1, 128902, Note_on_c, 0, 39, 95
1, 129054, Note_on_c, 0, 65, 0
1, 129059, Note_on_c, 0, 51, 0
1, 129089, Note_on_c, 0, 39, 0
1, 129121, Note_on_c, 0, 77, 0
1, 129135, Note_on_c, 0, 68, 0
1, 129306, Note_on_c, 0, 49, 99
1, 129309, Note_on_c, 0, 37, 98
1, 129313, Note_on_c, 0, 65, 76
1, 129317, Note_on_c, 0, 68, 78
1, 129321, Note_on_c, 0, 77, 81
1, 129388, Control_c, 0, 64, 0
1, 129453, Note_on_c, 0, 65, 0
1, 129503, Note_on_c, 0, 68, 0
1, 129506, Control_c, 0, 64, 127
1, 129510, Note_on_c, 0, 77, 0
1, 129621, Note_on_c, 0, 79, 83
1, 129630, Note_on_c, 0, 67, 90
1, 129711, Note_on_c, 0, 67, 0
1, 129726, Note_on_c, 0, 79, 0
1, 129860, Note_on_c, 0, 68, 90
1, 129868, Note_on_c, 0, 80, 92
1, 129973, Note_on_c, 0, 68, 0
1, 130000, Note_on_c, 0, 80, 0
1, 130190, Note_on_c, 0, 82, 102
1, 130194, Note_on_c, 0, 70, 79
1, 130198, Note_on_c, 0, 73, 80
1, 130202, Note_on_c, 0, 77, 74
1, 130339, Note_on_c, 0, 37, 0
1, 130401, Note_on_c, 0, 49, 0
1, 130419, Note_on_c, 0, 77, 0
1, 130430, Note_on_c, 0, 82, 0
1, 130500, Note_on_c, 0, 73, 0
1, 130514, Note_on_c, 0, 70, 0
1, 131004, Note_on_c, 0, 73, 86
1, 131008, Note_on_c, 0, 70, 80
1, 131012, Note_on_c, 0, 43, 89
1, 131015, Note_on_c, 0, 67, 77
1, 131020, Note_on_c, 0, 55, 93
1, 131024, Note_on_c, 0, 79, 102
1, 131029, Control_c, 0, 64, 0
1, 131150, Control_c, 0, 64, 127
1, 131196, Note_on_c, 0, 67, 0
1, 131254, Note_on_c, 0, 55, 0
1, 131262, Note_on_c, 0, 70, 0
1, 131282, Note_on_c, 0, 73, 0
1, 131332, Note_on_c, 0, 79, 0
1, 131356, Note_on_c, 0, 43, 0
1, 131905, Note_on_c, 0, 36, 97
1, 131908, Note_on_c, 0, 48, 98
1, 131912, Note_on_c, 0, 72, 74
1, 131917, Note_on_c, 0, 75, 78
1, 131921, Note_on_c, 0, 84, 99
1, 131926, Note_on_c, 0, 79, 78
1, 131937, Control_c, 0, 64, 0
1, 132091, Control_c, 0, 64, 127
1, 132183, Note_on_c, 0, 84, 0
1, 132227, Note_on_c, 0, 72, 0
1, 132259, Note_on_c, 0, 79, 0
1, 132299, Note_on_c, 0, 36, 0
1, 132354, Note_on_c, 0, 75, 0
1, 132423, Note_on_c, 0, 48, 0
1, 132909, Note_on_c, 0, 43, 81
1, 132911, Note_on_c, 0, 82, 102
1, 132916, Note_on_c, 0, 70, 95
1, 132920, Note_on_c, 0, 55, 87
1, 132924, Note_on_c, 0, 73, 94
1, 132929, Note_on_c, 0, 77, 85
1, 132937, Control_c, 0, 64, 0
1, 133195, Control_c, 0, 64, 127
1, 133559, Note_on_c, 0, 70, 0
1, 133836, Note_on_c, 0, 77, 0
1, 133884, Note_on_c, 0, 55, 0
1, 133911, Note_on_c, 0, 73, 0
1, 134090, Note_on_c, 0, 82, 0
1, 134174, Note_on_c, 0, 43, 0
1, 135040, Note_on_c, 0, 36, 64
1, 135050, Note_on_c, 0, 48, 63
1, 135062, Note_on_c, 0, 84, 70
1, 135065, Control_c, 0, 64, 0
1, 135070, Note_on_c, 0, 79, 66
1, 135078, Note_on_c, 0, 76, 59
1, 135085, Note_on_c, 0, 72, 45
1, 136415, Control_c, 0, 64, 127
1, 136462, Note_on_c, 0, 72, 0
1, 136537, Note_on_c, 0, 36, 0
1, 137132, Note_on_c, 0, 72, 64
1, 137181, Note_on_c, 0, 84, 0
1, 137233, Note_on_c, 0, 76, 0
1, 137234, Note_on_c, 0, 79, 0
1, 137329, Note_on_c, 0, 72, 0
1, 137438, Note_on_c, 0, 48, 0
1, 138148, Note_on_c, 0, 73, 72
1, 138151, Note_on_c, 0, 61, 46
1, 138157, Note_on_c, 0, 39, 62
1, 138166, Control_c, 0, 64, 0
1, 138299, Control_c, 0, 64, 127
1, 138305, Note_on_c, 0, 39, 0
1, 138434, Note_on_c, 0, 57, 51
1, 138701, Note_on_c, 0, 73, 0
1, 138731, Note_on_c, 0, 72, 80
1, 138799, Note_on_c, 0, 61, 0
1, 138852, Note_on_c, 0, 72, 0
1, 139297, Note_on_c, 0, 63, 52
1, 139306, Note_on_c, 0, 72, 73
1, 139564, Note_on_c, 0, 63, 0
1, 139859, Note_on_c, 0, 63, 55
1, 139861, Note_on_c, 0, 45, 43
1, 139869, Note_on_c, 0, 57, 0
1, 139979, Note_on_c, 0, 72, 0
1, 139996, Note_on_c, 0, 45, 0
1, 140004, Note_on_c, 0, 63, 0
1, 140441, Note_on_c, 0, 72, 67
1, 140445, Note_on_c, 0, 53, 44
1, 140448, Note_on_c, 0, 60, 40
1, 140454, Note_on_c, 0, 44, 44
1, 140463, Note_on_c, 0, 64, 49
1, 140473, Control_c, 0, 64, 0
1, 140641, Control_c, 0, 64, 127
1, 141015, Note_on_c, 0, 70, 64
1, 141046, Note_on_c, 0, 72, 0
1, 141083, Note_on_c, 0, 64, 0
1, 141108, Note_on_c, 0, 70, 0
1, 141554, Note_on_c, 0, 70, 56
1, 141573, Note_on_c, 0, 65, 39
1, 141707, Note_on_c, 0, 44, 0
1, 141765, Note_on_c, 0, 53, 0
1, 142116, Note_on_c, 0, 61, 43
1, 142122, Note_on_c, 0, 60, 0
1, 142125, Note_on_c, 0, 70, 0
1, 142177, Note_on_c, 0, 65, 0
1, 142297, Note_on_c, 0, 61, 0
1, 142667, Note_on_c, 0, 59, 38
1, 142670, Note_on_c, 0, 38, 62
1, 142673, Note_on_c, 0, 69, 60
1, 142681, Control_c, 0, 64, 0
1, 142795, Control_c, 0, 64, 127
1, 142803, Note_on_c, 0, 38, 0
1, 142958, Note_on_c, 0, 54, 46
1, 143270, Note_on_c, 0, 68, 76
1, 143328, Note_on_c, 0, 69, 0
1, 143461, Note_on_c, 0, 54, 0
1, 143492, Note_on_c, 0, 59, 0
1, 143579, Note_on_c, 0, 68, 0
1, 143837, Note_on_c, 0, 56, 52
1, 143841, Note_on_c, 0, 59, 61
1, 143853, Note_on_c, 0, 47, 50
1, 143856, Control_c, 0, 64, 0
1, 143861, Note_on_c, 0, 68, 61
1, 144006, Control_c, 0, 64, 127
1, 144043, Note_on_c, 0, 59, 0
1, 144211, Note_on_c, 0, 56, 0
1, 144283, Note_on_c, 0, 47, 0
1, 144403, Note_on_c, 0, 59, 61
1, 144422, Note_on_c, 0, 68, 0
1, 144491, Note_on_c, 0, 59, 0
1, 144962, Note_on_c, 0, 66, 51
1, 144973, Note_on_c, 0, 38, 43
1, 144977, Note_on_c, 0, 45, 31
1, 144981, Note_on_c, 0, 54, 31
1, 144984, Control_c, 0, 64, 0
1, 145001, Note_on_c, 0, 57, 45
1, 145147, Control_c, 0, 64, 127
1, 145265, Note_on_c, 0, 57, 0
1, 145537, Note_on_c, 0, 38, 0
1, 145557, Note_on_c, 0, 54, 0
1, 145561, Note_on_c, 0, 57, 45
1, 145580, Note_on_c, 0, 45, 0
1, 145589, Note_on_c, 0, 66, 0
1, 145825, Note_off_c, 0, 57, 64
1, 146051, Note_on_c, 0, 56, 45
1, 146053, Note_on_c, 0, 65, 51
1, 146057, Note_on_c, 0, 44, 40
1, 146064, Note_on_c, 0, 37, 42
1, 146075, Control_c, 0, 64, 0
1, 146205, Control_c, 0, 64, 127
1, 146315, Note_on_c, 0, 53, 51
1, 146324, Note_on_c, 0, 56, 0
1, 146408, Note_on_c, 0, 65, 0
1, 146501, Note_on_c, 0, 53, 0
1, 146517, Note_on_c, 0, 56, 58
1, 146664, Note_on_c, 0, 56, 0
1, 146666, Note_on_c, 0, 61, 70
1, 146701, Note_on_c, 0, 61, 0
1, 146788, Note_on_c, 0, 37, 0
1, 146830, Note_on_c, 0, 44, 0
1, 146843, Note_on_c, 0, 65, 70
1, 146998, Note_on_c, 0, 68, 76
1, 147064, Note_on_c, 0, 65, 0
1, 147179, Note_on_c, 0, 73, 87
1, 147297, Note_on_c, 0, 68, 0
1, 147372, Note_on_c, 0, 73, 0
1, 147481, Note_on_c, 0, 73, 60
1, 147485, Note_on_c, 0, 53, 70
1, 147489, Note_on_c, 0, 43, 71
1, 147494, Note_on_c, 0, 77, 92
1, 147498, Note_on_c, 0, 65, 61
1, 147501, Note_on_c, 0, 68, 56
1, 147510, Control_c, 0, 64, 0
1, 147649, Control_c, 0, 64, 127
1, 147692, Note_on_c, 0, 68, 0
1, 147761, Note_on_c, 0, 65, 0
1, 147795, Note_on_c, 0, 73, 0
1, 147859, Note_on_c, 0, 43, 0
1, 148111, Note_on_c, 0, 76, 82
1, 148115, Note_on_c, 0, 43, 67
1, 148201, Note_on_c, 0, 77, 0
1, 148226, Note_on_c, 0, 53, 0
1, 148303, Note_on_c, 0, 43, 0
1, 148350, Note_on_c, 0, 76, 0
1, 148725, Note_on_c, 0, 58, 66
1, 148728, Note_on_c, 0, 66, 64
1, 148730, Note_on_c, 0, 64, 60
1, 148736, Note_on_c, 0, 76, 80
1, 148740, Note_on_c, 0, 48, 52
1, 148758, Control_c, 0, 64, 0
1, 148886, Control_c, 0, 64, 40
1, 148895, Control_c, 0, 64, 127
1, 149043, Note_on_c, 0, 66, 0
1, 149055, Note_on_c, 0, 48, 0
1, 149359, Note_on_c, 0, 67, 65
1, 149382, Note_on_c, 0, 48, 54
1, 149419, Note_on_c, 0, 64, 0
1, 149511, Note_on_c, 0, 58, 0
1, 149537, Note_on_c, 0, 76, 0
1, 149540, Note_on_c, 0, 67, 0
1, 149599, Note_on_c, 0, 48, 0
1, 150015, Note_on_c, 0, 47, 50
1, 150018, Note_on_c, 0, 76, 83
1, 150022, Note_on_c, 0, 71, 70
1, 150025, Note_on_c, 0, 68, 68
1, 150034, Note_on_c, 0, 41, 46
1, 150069, Control_c, 0, 64, 0
1, 150246, Control_c, 0, 64, 127
1, 150638, Note_on_c, 0, 76, 0
1, 150648, Note_on_c, 0, 75, 76
1, 150717, Note_on_c, 0, 71, 0
1, 150819, Note_on_c, 0, 75, 0
1, 150846, Note_on_c, 0, 68, 0
1, 150899, Note_on_c, 0, 41, 0
1, 150936, Note_on_c, 0, 49, 62
1, 150992, Note_on_c, 0, 47, 0
1, 151039, Note_on_c, 0, 49, 0
1, 151289, Note_on_c, 0, 67, 50
1, 151292, Note_on_c, 0, 50, 63
1, 151296, Note_on_c, 0, 39, 55
1, 151300, Note_on_c, 0, 74, 70
1, 151314, Note_on_c, 0, 70, 56
1, 151345, Control_c, 0, 64, 0
1, 151489, Control_c, 0, 64, 127
1, 151579, Note_on_c, 0, 50, 0
1, 151962, Note_on_c, 0, 51, 62
1, 151965, Note_on_c, 0, 63, 66
1, 152039, Note_on_c, 0, 67, 0
1, 152040, Note_on_c, 0, 39, 0
1, 152054, Note_on_c, 0, 70, 0
1, 152104, Note_on_c, 0, 51, 0
1, 152123, Note_on_c, 0, 63, 0
1, 152133, Note_on_c, 0, 74, 0
1, 152597, Note_on_c, 0, 66, 53
1, 152601, Note_on_c, 0, 62, 45
1, 152605, Note_on_c, 0, 54, 48
1, 152609, Note_on_c, 0, 74, 62
1, 152612, Note_on_c, 0, 47, 47
1, 152634, Control_c, 0, 64, 0
1, 152819, Control_c, 0, 64, 127
1, 153223, Note_on_c, 0, 47, 0
1, 153242, Note_on_c, 0, 74, 0
1, 153250, Note_on_c, 0, 73, 67
1, 153291, Note_on_c, 0, 62, 0
1, 153326, Note_on_c, 0, 54, 0
1, 153348, Note_on_c, 0, 66, 0
1, 153371, Note_on_c, 0, 73, 0
1, 153685, Note_on_c, 0, 42, 46
1, 153692, Note_on_c, 0, 49, 46
1, 153720, Note_on_c, 0, 57, 29
1, 153760, Note_on_c, 0, 61, 45
1, 153776, Control_c, 0, 64, 0
1, 153800, Note_on_c, 0, 42, 0
1, 153828, Note_on_c, 0, 66, 38
1, 153923, Note_on_c, 0, 69, 41
1, 153942, Control_c, 0, 64, 127
1, 153974, Note_on_c, 0, 73, 67
1, 154232, Note_on_c, 0, 61, 0
1, 154715, Note_on_c, 0, 61, 62
1, 154763, Note_on_c, 0, 69, 0
1, 154808, Note_on_c, 0, 66, 0
1, 154812, Note_on_c, 0, 57, 0
1, 154830, Note_on_c, 0, 73, 0
1, 154881, Note_on_c, 0, 61, 0
1, 154909, Note_on_c, 0, 49, 0
1, 155563, Note_on_c, 0, 61, 38
1, 155571, Control_c, 0, 64, 0
1, 155575, Note_on_c, 0, 73, 30
1, 155580, Note_on_c, 0, 72, 56
1, 155588, Note_on_c, 0, 68, 41
1, 155590, Note_on_c, 0, 46, 44
1, 155606, Note_on_c, 0, 56, 33
1, 155771, Control_c, 0, 64, 127
1, 156518, Note_on_c, 0, 70, 62
1, 156535, Note_on_c, 0, 61, 0
1, 156573, Note_on_c, 0, 68, 0
1, 156597, Note_on_c, 0, 72, 0
1, 156638, Note_on_c, 0, 73, 0
1, 157186, Note_on_c, 0, 72, 50
1, 157243, Note_on_c, 0, 70, 0
1, 157326, Note_on_c, 0, 46, 0
1, 157403, Note_on_c, 0, 56, 0
1, 157446, Note_on_c, 0, 72, 0
1, 158202, Control_c, 0, 64, 0
1, 158206, Note_on_c, 0, 58, 39
1, 158215, Note_on_c, 0, 48, 32
1, 158219, Note_on_c, 0, 65, 43
1, 158223, Note_on_c, 0, 72, 46
1, 160372, Note_on_c, 0, 65, 0
1, 160383, Note_on_c, 0, 64, 31
1, 161091, Control_c, 0, 64, 127
1, 161349, Note_on_c, 0, 48, 0
1, 161472, Note_on_c, 0, 58, 0
1, 161693, Note_on_c, 0, 64, 0
1, 162030, Note_on_c, 0, 72, 0
1, 162897, Note_on_c, 0, 53, 32
1, 162960, Note_on_c, 0, 60, 40
1, 162987, Note_on_c, 0, 65, 42
1, 163002, Control_c, 0, 64, 0
1, 163034, Note_on_c, 0, 68, 50
1, 163100, Note_on_c, 0, 72, 47
1, 163136, Note_on_c, 0, 80, 61
1, 164178, Control_c, 0, 64, 127
1, 164340, Note_on_c, 0, 65, 0
1, 164403, Note_on_c, 0, 72, 0
1, 164414, Note_on_c, 0, 68, 0
1, 165115, Note_on_c, 0, 80, 0
1, 165118, Note_on_c, 0, 77, 43
1, 165123, Note_on_c, 0, 65, 29
1, 165256, Note_on_c, 0, 53, 0
1, 165299, Note_on_c, 0, 60, 0
1, 165319, Note_on_c, 0, 77, 0
1, 165357, Note_on_c, 0, 65, 0
1, 165820, Note_on_c, 0, 55, 34
1, 165859, Note_on_c, 0, 61, 33
1, 165900, Note_on_c, 0, 65, 42
1, 165931, Note_on_c, 0, 70, 39
1, 165980, Note_on_c, 0, 73, 53
1, 165985, Control_c, 0, 64, 0
1, 166027, Note_on_c, 0, 82, 65
1, 166160, Control_c, 0, 64, 127
1, 166320, Note_on_c, 0, 80, 56
1, 166463, Note_on_c, 0, 61, 0
1, 166475, Note_on_c, 0, 55, 0
1, 166519, Note_on_c, 0, 82, 0
1, 166524, Note_on_c, 0, 73, 0
1, 166565, Note_on_c, 0, 65, 0
1, 166598, Note_on_c, 0, 79, 62
1, 166637, Note_on_c, 0, 70, 0
1, 166656, Note_on_c, 0, 80, 0
1, 166691, Note_on_c, 0, 79, 0
1, 166880, Note_on_c, 0, 53, 50
1, 166902, Note_on_c, 0, 60, 39
1, 166960, Note_on_c, 0, 65, 44
1, 166989, Control_c, 0, 64, 0
1, 167011, Note_on_c, 0, 68, 43
1, 167040, Note_on_c, 0, 72, 33
1, 167080, Note_on_c, 0, 80, 62
1, 167202, Control_c, 0, 64, 127
1, 167488, Note_on_c, 0, 65, 0
1, 167947, Note_on_c, 0, 80, 0
1, 167974, Note_on_c, 0, 68, 0
1, 167981, Note_on_c, 0, 77, 50
1, 167992, Note_on_c, 0, 65, 30
1, 168059, Note_on_c, 0, 72, 0
1, 168180, Note_on_c, 0, 77, 0
1, 168181, Note_on_c, 0, 53, 0
1, 168237, Note_on_c, 0, 60, 0
1, 168276, Note_on_c, 0, 65, 0
1, 168660, Note_on_c, 0, 53, 50
1, 168707, Note_on_c, 0, 60, 44
1, 168774, Note_on_c, 0, 65, 35
1, 168810, Note_on_c, 0, 68, 40
1, 168827, Control_c, 0, 64, 0
1, 168840, Note_on_c, 0, 72, 42
1, 168864, Note_on_c, 0, 80, 65
1, 168992, Control_c, 0, 64, 127
1, 169070, Note_on_c, 0, 80, 0
1, 169186, Note_on_c, 0, 79, 47
1, 169200, Note_on_c, 0, 53, 0
1, 169237, Note_on_c, 0, 65, 0
1, 169319, Note_on_c, 0, 72, 0
1, 169321, Note_on_c, 0, 60, 0
1, 169323, Note_on_c, 0, 68, 0
1, 169359, Note_on_c, 0, 79, 0
1, 169444, Note_on_c, 0, 77, 46
1, 169564, Note_on_c, 0, 77, 0
1, 169709, Note_on_c, 0, 51, 49
1, 169780, Note_on_c, 0, 60, 43
1, 169809, Note_on_c, 0, 63, 46
1, 169835, Control_c, 0, 64, 0
1, 169840, Note_on_c, 0, 67, 48
1, 169880, Note_on_c, 0, 72, 45
1, 169902, Note_on_c, 0, 79, 51
1, 170048, Control_c, 0, 64, 127
1, 170241, Note_on_c, 0, 63, 0
1, 170830, Note_on_c, 0, 63, 29
1, 170833, Note_on_c, 0, 75, 56
1, 170855, Note_on_c, 0, 67, 0
1, 170987, Note_on_c, 0, 79, 0
1, 171006, Note_on_c, 0, 72, 0
1, 171091, Note_on_c, 0, 60, 0
1, 171103, Note_on_c, 0, 51, 0
1, 171116, Note_on_c, 0, 63, 0
1, 171270, Note_on_c, 0, 75, 0
1, 171655, Note_on_c, 0, 49, 46
1, 171744, Note_on_c, 0, 56, 34
1, 171792, Note_on_c, 0, 61, 37
1, 171796, Control_c, 0, 64, 0
1, 171840, Note_on_c, 0, 65, 36
1, 171900, Note_on_c, 0, 68, 45
1, 171960, Note_on_c, 0, 77, 48
1, 172801, Control_c, 0, 64, 127
1, 172964, Note_on_c, 0, 56, 0
1, 172990, Note_on_c, 0, 65, 0
1, 172993, Note_on_c, 0, 77, 0
1, 173002, Note_on_c, 0, 49, 0
1, 173006, Note_on_c, 0, 61, 0
1, 173088, Note_on_c, 0, 68, 0
1, 173560, Note_on_c, 0, 48, 38
1, 173614, Note_on_c, 0, 55, 26
1, 173646, Note_on_c, 0, 60, 46
1, 173656, Control_c, 0, 64, 0
1, 173720, Note_on_c, 0, 63, 55
1, 173754, Note_on_c, 0, 67, 51
1, 173785, Note_on_c, 0, 75, 64
1, 173919, Control_c, 0, 64, 127
1, 174072, Note_on_c, 0, 60, 0
1, 174137, Note_on_c, 0, 55, 0
1, 174177, Note_on_c, 0, 48, 0
1, 174206, Note_on_c, 0, 67, 0
1, 174211, Note_on_c, 0, 75, 0
1, 174300, Note_on_c, 0, 63, 0
1, 174580, Note_on_c, 0, 44, 53
1, 174624, Note_on_c, 0, 51, 53
1, 174709, Control_c, 0, 64, 0
1, 174712, Note_on_c, 0, 56, 55
1, 174773, Note_on_c, 0, 60, 52
1, 174840, Note_on_c, 0, 63, 57
1, 174900, Note_on_c, 0, 72, 67
1, 174963, Control_c, 0, 64, 127
1, 176061, Note_on_c, 0, 44, 0
1, 176064, Note_on_c, 0, 51, 0
1, 176088, Note_on_c, 0, 56, 0
1, 176105, Note_on_c, 0, 63, 0
1, 176164, Note_on_c, 0, 60, 0
1, 176275, Note_on_c, 0, 72, 0
1, 176482, Note_on_c, 0, 43, 42
1, 176535, Note_on_c, 0, 52, 56
1, 176582, Note_on_c, 0, 55, 62
1, 176629, Control_c, 0, 64, 0
1, 176640, Note_on_c, 0, 60, 60
1, 176669, Note_on_c, 0, 64, 68
1, 176694, Note_on_c, 0, 72, 74
1, 176845, Control_c, 0, 64, 127
1, 176897, Note_on_c, 0, 60, 0
1, 176971, Note_on_c, 0, 64, 0
1, 177031, Note_on_c, 0, 52, 0
1, 177040, Note_on_c, 0, 55, 0
1, 177055, Note_on_c, 0, 72, 0
1, 177097, Note_on_c, 0, 43, 0
1, 177548, Note_on_c, 0, 68, 54
1, 177610, Note_on_c, 0, 41, 55
1, 177622, Note_on_c, 0, 72, 61
1, 177659, Note_on_c, 0, 80, 86
1, 177662, Control_c, 0, 64, 0
1, 177829, Control_c, 0, 64, 127
1, 177985, Note_on_c, 0, 48, 62
1, 178016, Note_on_c, 0, 41, 0
1, 178259, Note_on_c, 0, 48, 0
1, 178319, Note_on_c, 0, 56, 53
1, 178535, Note_on_c, 0, 56, 0
1, 178655, Note_on_c, 0, 60, 53
1, 178702, Note_on_c, 0, 68, 0
1, 178762, Note_on_c, 0, 72, 0
1, 178801, Note_on_c, 0, 80, 0
1, 178980, Note_on_c, 0, 65, 52
1, 179022, Note_on_c, 0, 68, 46
1, 179067, Note_on_c, 0, 72, 53
1, 179140, Note_on_c, 0, 77, 68
1, 179184, Note_on_c, 0, 60, 0
1, 179262, Note_on_c, 0, 65, 0
1, 179271, Note_on_c, 0, 72, 0
1, 179291, Note_on_c, 0, 68, 0
1, 179319, Note_on_c, 0, 77, 0
1, 179960, Note_on_c, 0, 49, 60
1, 180020, Note_on_c, 0, 58, 54
1, 180061, Control_c, 0, 64, 0
1, 180120, Note_on_c, 0, 65, 42
1, 180137, Note_on_c, 0, 49, 0
1, 180187, Note_on_c, 0, 70, 41
1, 180193, Control_c, 0, 64, 127
1, 180240, Note_on_c, 0, 73, 52
1, 180278, Note_on_c, 0, 77, 73
1, 180415, Note_on_c, 0, 70, 0
1, 180544, Note_on_c, 0, 79, 76
1, 180591, Note_on_c, 0, 77, 0
1, 180647, Note_on_c, 0, 58, 0
1, 180722, Note_on_c, 0, 65, 0
1, 180807, Note_on_c, 0, 79, 0
1, 180871, Note_on_c, 0, 80, 79
1, 180922, Note_on_c, 0, 73, 0
1, 180976, Note_on_c, 0, 80, 0
1, 181105, Note_on_c, 0, 55, 56
1, 181137, Note_on_c, 0, 61, 62
1, 181200, Note_on_c, 0, 65, 51
1, 181228, Note_on_c, 0, 70, 55
1, 181263, Note_on_c, 0, 73, 59
1, 181292, Control_c, 0, 64, 0
1, 181325, Note_on_c, 0, 82, 74
1, 181474, Control_c, 0, 64, 127
1, 181669, Note_on_c, 0, 73, 0
1, 181718, Note_on_c, 0, 70, 0
1, 182138, Note_on_c, 0, 79, 62
1, 182202, Note_on_c, 0, 82, 0
1, 182236, Note_on_c, 0, 55, 0
1, 182237, Note_on_c, 0, 65, 0
1, 182276, Note_on_c, 0, 79, 0
1, 182294, Note_on_c, 0, 61, 0
1, 182847, Note_on_c, 0, 60, 42
1, 182880, Note_on_c, 0, 65, 49
1, 182917, Note_on_c, 0, 68, 44
1, 182941, Control_c, 0, 64, 0
1, 182997, Note_on_c, 0, 72, 39
1, 183057, Note_on_c, 0, 77, 60
1, 183131, Control_c, 0, 64, 127
1, 183200, Note_on_c, 0, 60, 0
1, 183226, Note_on_c, 0, 68, 0
1, 183240, Note_on_c, 0, 72, 0
1, 183282, Note_on_c, 0, 65, 0
1, 183333, Note_on_c, 0, 77, 0
1, 183827, Note_on_c, 0, 60, 28
1, 183873, Note_on_c, 0, 65, 40
1, 183917, Note_on_c, 0, 68, 45
1, 183940, Note_on_c, 0, 72, 47
1, 183955, Note_on_c, 0, 77, 23
1, 183995, Control_c, 0, 64, 0
1, 183998, Note_on_c, 0, 80, 64
1, 184069, Note_on_c, 0, 84, 62
1, 185017, Control_c, 0, 64, 127
1, 185209, Note_on_c, 0, 60, 0
1, 185211, Note_on_c, 0, 84, 0
1, 185213, Note_on_c, 0, 65, 0
1, 185229, Note_on_c, 0, 77, 0
1, 185243, Note_on_c, 0, 80, 0
1, 185273, Note_on_c, 0, 68, 0
1, 185332, Note_on_c, 0, 72, 0
1, 186027, Note_on_c, 0, 60, 35
1, 186062, Note_on_c, 0, 64, 36
1, 186100, Note_on_c, 0, 67, 43
1, 186101, Control_c, 0, 64, 0
1, 186119, Note_on_c, 0, 72, 48
1, 186191, Note_on_c, 0, 76, 55
1, 186380, Control_c, 0, 64, 127
1, 186688, Note_on_c, 0, 67, 0
1, 186886, Note_on_c, 0, 64, 0
1, 186909, Note_on_c, 0, 72, 0
1, 186912, Note_on_c, 0, 60, 0
1, 187066, Note_on_c, 0, 76, 0
1, 187485, Note_on_c, 0, 60, 30
1, 187534, Note_on_c, 0, 64, 37
1, 187620, Note_on_c, 0, 67, 33
1, 187648, Note_on_c, 0, 72, 51
1, 187661, Note_on_c, 0, 76, 44
1, 187704, Control_c, 0, 64, 0
1, 187707, Note_on_c, 0, 79, 63
1, 187824, Note_on_c, 0, 84, 61
1, 189075, Control_c, 0, 64, 127
1, 189277, Note_on_c, 0, 67, 0
1, 189292, Note_on_c, 0, 64, 0
1, 189330, Note_on_c, 0, 60, 0
1, 189354, Note_on_c, 0, 84, 0
1, 189466, Note_on_c, 0, 79, 0
1, 189518, Note_on_c, 0, 76, 0
1, 189546, Note_on_c, 0, 72, 0
1, 189696, Control_c, 0, 67, 127
1, 190422, Note_on_c, 0, 65, 42
1, 190469, Note_on_c, 0, 68, 45
1, 190487, Control_c, 0, 64, 0
1, 190516, Note_on_c, 0, 53, 40
1, 190573, Note_on_c, 0, 72, 44
1, 190648, Note_on_c, 0, 77, 55
1, 190751, Control_c, 0, 64, 127
1, 191079, Note_on_c, 0, 56, 35
1, 191184, Note_on_c, 0, 53, 0
1, 191373, Note_on_c, 0, 60, 36
1, 191493, Note_on_c, 0, 56, 0
1, 191665, Note_on_c, 0, 53, 47
1, 191704, Note_on_c, 0, 60, 0
1, 191952, Note_on_c, 0, 56, 54
1, 192069, Note_on_c, 0, 53, 0
1, 192264, Note_on_c, 0, 60, 42
1, 192402, Note_on_c, 0, 56, 0
1, 192541, Note_on_c, 0, 48, 61
1, 192545, Note_on_c, 0, 60, 0
1, 192823, Note_on_c, 0, 56, 47
1, 193069, Note_on_c, 0, 48, 0
1, 193097, Note_on_c, 0, 60, 48
1, 193249, Note_on_c, 0, 56, 0
1, 193372, Note_on_c, 0, 60, 0
1, 193376, Note_on_c, 0, 53, 57
1, 193693, Note_on_c, 0, 56, 46
1, 193848, Note_on_c, 0, 53, 0
1, 193955, Note_on_c, 0, 60, 50
1, 194060, Note_on_c, 0, 77, 0
1, 194074, Note_on_c, 0, 72, 0
1, 194137, Note_on_c, 0, 68, 0
1, 194161, Note_on_c, 0, 56, 0
1, 194221, Note_on_c, 0, 65, 0
1, 194229, Note_on_c, 0, 53, 57
1, 194257, Note_on_c, 0, 60, 0
1, 194543, Note_on_c, 0, 56, 53
1, 194765, Note_on_c, 0, 53, 0
1, 194808, Note_on_c, 0, 60, 57
1, 194861, Note_on_c, 0, 56, 0
1, 194941, Note_on_c, 0, 60, 0
1, 195191, Note_on_c, 0, 48, 62
1, 195207, Note_on_c, 0, 60, 80
1, 195245, Control_c, 0, 64, 0
1, 195401, Control_c, 0, 64, 127
1, 195667, Note_on_c, 0, 48, 0
1, 196289, Note_on_c, 0, 41, 58
1, 196291, Note_on_c, 0, 68, 65
1, 196300, Control_c, 0, 64, 0
1, 196303, Note_on_c, 0, 53, 53
1, 196378, Note_on_c, 0, 60, 0
1, 196474, Control_c, 0, 64, 127
1, 196496, Note_on_c, 0, 41, 0
1, 196591, Note_on_c, 0, 53, 0
1, 196691, Note_on_c, 0, 56, 30
1, 196945, Note_on_c, 0, 60, 45
1, 196992, Note_on_c, 0, 56, 0
1, 197214, Note_on_c, 0, 60, 0
1, 197235, Note_on_c, 0, 53, 50
1, 197534, Note_on_c, 0, 56, 37
1, 197626, Note_on_c, 0, 53, 0
1, 197793, Note_on_c, 0, 60, 37
1, 197868, Note_on_c, 0, 56, 0
1, 198040, Note_on_c, 0, 60, 0
1, 198085, Note_on_c, 0, 53, 40
1, 198114, Note_on_c, 0, 65, 60
1, 198171, Note_on_c, 0, 68, 0
1, 198374, Note_on_c, 0, 56, 35
1, 198485, Note_on_c, 0, 65, 0
1, 198526, Note_on_c, 0, 53, 0
1, 198645, Note_on_c, 0, 60, 41
1, 198655, Note_on_c, 0, 56, 0
1, 198794, Note_on_c, 0, 60, 0
1, 198958, Control_c, 0, 64, 0
1, 198963, Note_on_c, 0, 70, 65
1, 198966, Note_on_c, 0, 61, 52
1, 198980, Note_on_c, 0, 53, 32
1, 199073, Control_c, 0, 64, 127
1, 199199, Note_on_c, 0, 70, 0
1, 199242, Note_on_c, 0, 68, 64
1, 199268, Note_on_c, 0, 58, 44
1, 199293, Note_on_c, 0, 53, 0
1, 199317, Note_on_c, 0, 61, 0
1, 199533, Note_on_c, 0, 67, 70
1, 199540, Note_on_c, 0, 61, 46
1, 199622, Note_on_c, 0, 58, 0
1, 199679, Note_on_c, 0, 61, 0
1, 199690, Note_on_c, 0, 67, 0
1, 199715, Note_on_c, 0, 68, 0
1, 199863, Note_on_c, 0, 68, 58
1, 199866, Note_on_c, 0, 53, 52
1, 199918, Control_c, 0, 64, 0
1, 200060, Control_c, 0, 64, 127
1, 200176, Note_on_c, 0, 56, 42
1, 200324, Note_on_c, 0, 53, 0
1, 200454, Note_on_c, 0, 60, 41
1, 200538, Note_on_c, 0, 56, 0
1, 200711, Note_on_c, 0, 60, 0
1, 200772, Note_on_c, 0, 53, 46
1, 200794, Note_on_c, 0, 65, 55
1, 200896, Note_on_c, 0, 68, 0
1, 201075, Note_on_c, 0, 56, 45
1, 201084, Note_on_c, 0, 65, 0
1, 201333, Note_on_c, 0, 53, 0
1, 201360, Note_on_c, 0, 60, 42
1, 201405, Note_on_c, 0, 56, 0
1, 201406, Note_on_c, 0, 60, 0
1, 201712, Note_on_c, 0, 48, 30
1, 201717, Note_on_c, 0, 60, 37
1, 201721, Note_on_c, 0, 68, 53
1, 201726, Note_on_c, 0, 41, 57
1, 201754, Control_c, 0, 64, 0
1, 201914, Control_c, 0, 64, 127
1, 202111, Note_on_c, 0, 67, 55
1, 202207, Note_on_c, 0, 60, 0
1, 202419, Note_on_c, 0, 41, 0
1, 202512, Note_on_c, 0, 65, 57
1, 202527, Note_on_c, 0, 48, 0
1, 202557, Note_on_c, 0, 68, 0
1, 202581, Note_on_c, 0, 67, 0
1, 202653, Note_on_c, 0, 65, 0
1, 203093, Note_on_c, 0, 58, 38
1, 203099, Note_on_c, 0, 46, 40
1, 203107, Note_on_c, 0, 39, 51
1, 203114, Note_on_c, 0, 67, 65
1, 203117, Control_c, 0, 64, 0
1, 203338, Control_c, 0, 64, 127
1, 203532, Note_on_c, 0, 58, 0
1, 203717, Note_on_c, 0, 67, 0
1, 204267, Note_on_c, 0, 39, 0
1, 204328, Note_on_c, 0, 46, 0
1, 204730, Note_on_c, 0, 55, 46
1, 204739, Note_on_c, 0, 75, 56
1, 206296, Note_on_c, 0, 55, 0
1, 207286, Note_on_c, 0, 65, 42
1, 207337, Control_c, 0, 64, 0
1, 207339, Note_on_c, 0, 41, 42
1, 207387, Note_on_c, 0, 75, 0
1, 207605, Control_c, 0, 64, 127
1, 208075, Note_on_c, 0, 48, 41
1, 208544, Note_on_c, 0, 65, 0
1, 208677, Note_on_c, 0, 53, 49
1, 208820, Note_on_c, 0, 48, 0
1, 209187, Note_on_c, 0, 56, 37
1, 209539, Note_on_c, 0, 56, 0
1, 209750, Note_on_c, 0, 60, 44
1, 209910, Note_on_c, 0, 60, 0
1, 210409, Note_on_c, 0, 65, 36
1, 211127, Note_on_c, 0, 68, 37
1, 211805, Note_on_c, 0, 68, 0
1, 212114, Note_on_c, 0, 72, 36
1, 212490, Note_on_c, 0, 53, 0
1, 212599, Note_on_c, 0, 41, 0
1, 212683, Note_on_c, 0, 72, 0
1, 213647, Note_on_c, 0, 77, 37
1, 213692, Note_on_c, 0, 29, 30
1, 222129, Note_on_c, 0, 65, 0
1, 222215, Control_c, 0, 64, 0
1, 222328, Note_on_c, 0, 29, 0
1, 222529, Note_on_c, 0, 77, 0
1, 234230, Control_c, 0, 67, 0
1, 234230, End_track
0, 0, End_of_file
