0, 0, Header, 0, 1, 480
1, 0, Start_track
1, 0, Title_t, "Yamaha Grand Piano"
1, 0, Instrument_name_t, "Inst 2"
1, 0, Time_signature, 4, 2, 24, 8
1, 0, Key_signature, 0, "major"
1, 0, SMPTE_offset, 33, 0, 0, 0, 0
1, 0, Tempo, 500000
1, 2821, Note_on_c, 0, 43, 120
1, 2823, Note_on_c, 0, 31, 116
1, 2827, Note_on_c, 0, 70, 109
1, 2832, Note_on_c, 0, 62, 116
1, 2836, Note_on_c, 0, 67, 113
1, 2873, Control_c, 0, 64, 127
1, 2882, Note_on_c, 0, 67, 0
1, 2888, Note_on_c, 0, 70, 0
1, 2905, Note_on_c, 0, 62, 0
1, 2989, Note_on_c, 0, 70, 69
1, 2993, Note_on_c, 0, 62, 76
1, 2994, Note_on_c, 0, 67, 78
1, 3042, Note_on_c, 0, 62, 0
1, 3069, Note_on_c, 0, 70, 0
1, 3077, Note_on_c, 0, 67, 0
1, 3162, Note_on_c, 0, 67, 72
1, 3167, Note_on_c, 0, 70, 65
1, 3172, Note_on_c, 0, 62, 69
1, 3207, Note_on_c, 0, 62, 0
1, 3213, Note_on_c, 0, 70, 0
1, 3246, Note_on_c, 0, 67, 0
1, 3346, Note_on_c, 0, 67, 66
1, 3350, Note_on_c, 0, 70, 72
1, 3358, Note_on_c, 0, 62, 73
1, 3386, Note_on_c, 0, 70, 0
1, 3390, Note_on_c, 0, 62, 0
1, 3404, Note_on_c, 0, 67, 0
1, 3511, Note_on_c, 0, 67, 89
1, 3513, Note_on_c, 0, 62, 94
1, 3514, Note_on_c, 0, 70, 92
1, 3580, Note_on_c, 0, 62, 0
1, 3590, Note_on_c, 0, 67, 0
1, 3604, Note_on_c, 0, 70, 0
1, 3705, Note_on_c, 0, 70, 48
1, 3715, Note_on_c, 0, 67, 46
1, 3722, Note_on_c, 0, 62, 55
1, 3753, Note_on_c, 0, 62, 0
1, 3761, Note_on_c, 0, 70, 0
1, 3763, Note_on_c, 0, 67, 0
1, 3859, Note_on_c, 0, 70, 65
1, 3877, Note_on_c, 0, 62, 55
1, 3885, Note_on_c, 0, 67, 54
1, 3911, Note_on_c, 0, 62, 0
1, 3922, Note_on_c, 0, 67, 0
1, 3925, Note_on_c, 0, 70, 0
1, 4037, Note_on_c, 0, 69, 76
1, 4041, Note_on_c, 0, 60, 79
1, 4043, Note_on_c, 0, 65, 76
1, 4071, Note_on_c, 0, 60, 0
1, 4081, Note_on_c, 0, 65, 0
1, 4087, Note_on_c, 0, 69, 0
1, 4216, Note_on_c, 0, 60, 87
1, 4220, Note_on_c, 0, 69, 85
1, 4225, Note_on_c, 0, 65, 83
1, 4277, Note_on_c, 0, 60, 0
1, 4290, Note_on_c, 0, 69, 0
1, 4292, Note_on_c, 0, 65, 0
1, 4378, Note_on_c, 0, 69, 66
1, 4388, Note_on_c, 0, 65, 58
1, 4391, Note_on_c, 0, 60, 58
1, 4396, Note_on_c, 0, 43, 0
1, 4430, Note_on_c, 0, 60, 0
1, 4432, Note_on_c, 0, 65, 0
1, 4443, Note_on_c, 0, 31, 0
1, 4467, Note_on_c, 0, 69, 0
1, 4556, Note_on_c, 0, 69, 59
1, 4567, Note_on_c, 0, 60, 54
1, 4579, Note_on_c, 0, 65, 51
1, 4606, Note_on_c, 0, 60, 0
1, 4616, Note_on_c, 0, 65, 0
1, 4618, Note_on_c, 0, 69, 0
1, 4743, Note_on_c, 0, 69, 58
1, 4772, Note_on_c, 0, 60, 38
1, 4776, Note_on_c, 0, 65, 37
1, 4788, Note_on_c, 0, 69, 0
1, 4821, Note_on_c, 0, 60, 0
1, 4823, Note_on_c, 0, 65, 0
1, 4924, Note_on_c, 0, 60, 55
1, 4932, Note_on_c, 0, 65, 48
1, 4935, Note_on_c, 0, 69, 52
1, 4961, Note_on_c, 0, 60, 0
1, 4970, Note_on_c, 0, 65, 0
1, 4972, Note_on_c, 0, 69, 0
1, 5107, Note_on_c, 0, 60, 94
1, 5113, Note_on_c, 0, 69, 82
1, 5126, Note_on_c, 0, 38, 101
1, 5126, Note_on_c, 0, 65, 88
1, 5147, Note_on_c, 0, 65, 0
1, 5157, Note_on_c, 0, 69, 0
1, 5161, Note_on_c, 0, 60, 0
1, 5194, Note_on_c, 0, 38, 0
1, 5266, Note_on_c, 0, 41, 87
1, 5277, Note_on_c, 0, 65, 90
1, 5281, Note_on_c, 0, 60, 82
1, 5286, Note_on_c, 0, 69, 74
1, 5314, Note_on_c, 0, 60, 0
1, 5330, Note_on_c, 0, 69, 0
1, 5339, Note_on_c, 0, 41, 0
1, 5358, Note_on_c, 0, 65, 0
1, 5444, Control_c, 0, 64, 0
1, 5448, Note_on_c, 0, 43, 116
1, 5451, Note_on_c, 0, 31, 113
1, 5455, Note_on_c, 0, 70, 105
1, 5464, Note_on_c, 0, 62, 116
1, 5468, Note_on_c, 0, 67, 111
1, 5524, Note_on_c, 0, 62, 0
1, 5541, Note_on_c, 0, 67, 0
1, 5569, Note_on_c, 0, 70, 0
1, 5607, Control_c, 0, 64, 127
1, 5660, Note_on_c, 0, 67, 60
1, 5663, Note_on_c, 0, 70, 55
1, 5669, Note_on_c, 0, 62, 63
1, 5704, Note_on_c, 0, 62, 0
1, 5711, Note_on_c, 0, 70, 0
1, 5730, Note_on_c, 0, 67, 0
1, 5826, Note_on_c, 0, 67, 68
1, 5842, Note_on_c, 0, 70, 58
1, 5845, Note_on_c, 0, 62, 64
1, 5875, Note_on_c, 0, 62, 0
1, 5877, Note_on_c, 0, 70, 0
1, 5911, Note_on_c, 0, 67, 0
1, 6014, Note_on_c, 0, 67, 62
1, 6018, Note_on_c, 0, 70, 69
1, 6034, Note_on_c, 0, 62, 60
1, 6054, Note_on_c, 0, 70, 0
1, 6063, Note_on_c, 0, 62, 0
1, 6065, Note_on_c, 0, 67, 0
1, 6194, Note_on_c, 0, 70, 67
1, 6198, Note_on_c, 0, 67, 71
1, 6202, Note_on_c, 0, 62, 63
1, 6228, Note_on_c, 0, 70, 0
1, 6234, Note_on_c, 0, 62, 0
1, 6246, Note_on_c, 0, 67, 0
1, 6372, Note_on_c, 0, 70, 79
1, 6376, Note_on_c, 0, 62, 94
1, 6379, Note_on_c, 0, 67, 87
1, 6439, Note_on_c, 0, 62, 0
1, 6452, Note_on_c, 0, 70, 0
1, 6462, Note_on_c, 0, 67, 0
1, 6566, Note_on_c, 0, 70, 64
1, 6569, Note_on_c, 0, 62, 73
1, 6578, Note_on_c, 0, 67, 55
1, 6607, Note_on_c, 0, 62, 0
1, 6616, Note_on_c, 0, 67, 0
1, 6644, Note_on_c, 0, 70, 0
1, 6728, Note_on_c, 0, 70, 69
1, 6750, Note_on_c, 0, 62, 60
1, 6752, Note_on_c, 0, 67, 69
1, 6781, Note_on_c, 0, 62, 0
1, 6783, Note_on_c, 0, 70, 0
1, 6792, Note_on_c, 0, 67, 0
1, 6913, Note_on_c, 0, 69, 80
1, 6917, Note_on_c, 0, 60, 77
1, 6923, Note_on_c, 0, 65, 70
1, 6951, Note_on_c, 0, 60, 0
1, 6955, Note_on_c, 0, 65, 0
1, 6965, Note_on_c, 0, 69, 0
1, 7086, Note_on_c, 0, 69, 93
1, 7088, Note_on_c, 0, 60, 102
1, 7092, Note_on_c, 0, 65, 84
1, 7146, Note_on_c, 0, 60, 0
1, 7171, Note_on_c, 0, 65, 0
1, 7173, Note_on_c, 0, 69, 0
1, 7265, Note_on_c, 0, 69, 63
1, 7282, Note_on_c, 0, 65, 46
1, 7287, Note_on_c, 0, 60, 51
1, 7323, Note_on_c, 0, 65, 0
1, 7325, Note_on_c, 0, 60, 0
1, 7347, Note_on_c, 0, 69, 0
1, 7435, Note_on_c, 0, 69, 68
1, 7450, Note_on_c, 0, 60, 52
1, 7462, Note_on_c, 0, 65, 48
1, 7474, Note_on_c, 0, 43, 0
1, 7477, Note_on_c, 0, 31, 0
1, 7490, Note_on_c, 0, 60, 0
1, 7498, Note_on_c, 0, 65, 0
1, 7505, Note_on_c, 0, 69, 0
1, 7645, Note_on_c, 0, 69, 53
1, 7650, Note_on_c, 0, 60, 60
1, 7662, Note_on_c, 0, 65, 50
1, 7683, Note_on_c, 0, 60, 0
1, 7689, Note_on_c, 0, 69, 0
1, 7697, Note_on_c, 0, 65, 0
1, 7831, Note_on_c, 0, 69, 63
1, 7834, Note_on_c, 0, 65, 50
1, 7839, Note_on_c, 0, 60, 53
1, 7866, Note_on_c, 0, 69, 0
1, 7868, Note_on_c, 0, 65, 0
1, 7874, Note_on_c, 0, 60, 0
1, 7995, Note_on_c, 0, 38, 98
1, 8004, Note_on_c, 0, 69, 81
1, 8007, Note_on_c, 0, 60, 75
1, 8016, Note_on_c, 0, 65, 64
1, 8037, Note_on_c, 0, 60, 0
1, 8050, Note_on_c, 0, 65, 0
1, 8052, Note_on_c, 0, 69, 0
1, 8073, Note_on_c, 0, 38, 0
1, 8154, Note_on_c, 0, 41, 80
1, 8171, Note_on_c, 0, 65, 74
1, 8175, Note_on_c, 0, 60, 83
1, 8180, Note_on_c, 0, 69, 64
1, 8207, Note_on_c, 0, 60, 0
1, 8216, Note_on_c, 0, 69, 0
1, 8223, Note_on_c, 0, 41, 0
1, 8255, Note_on_c, 0, 65, 0
1, 8338, Note_on_c, 0, 43, 116
1, 8341, Note_on_c, 0, 31, 107
1, 8346, Control_c, 0, 64, 0
1, 8353, Note_on_c, 0, 70, 105
1, 8361, Note_on_c, 0, 62, 109
1, 8364, Note_on_c, 0, 67, 97
1, 8511, Control_c, 0, 64, 127
1, 8515, Note_on_c, 0, 70, 0
1, 8518, Note_on_c, 0, 62, 0
1, 8524, Note_on_c, 0, 67, 0
1, 8531, Note_on_c, 0, 43, 0
1, 8697, Note_on_c, 0, 43, 76
1, 8706, Note_on_c, 0, 62, 84
1, 8731, Note_on_c, 0, 43, 0
1, 8744, Note_on_c, 0, 62, 0
1, 8875, Note_on_c, 0, 43, 77
1, 8887, Note_on_c, 0, 62, 91
1, 8915, Note_on_c, 0, 43, 0
1, 8941, Note_on_c, 0, 62, 0
1, 9039, Note_on_c, 0, 62, 93
1, 9060, Note_on_c, 0, 43, 65
1, 9092, Note_on_c, 0, 43, 0
1, 9123, Note_on_c, 0, 62, 0
1, 9232, Note_on_c, 0, 43, 97
1, 9236, Note_on_c, 0, 62, 102
1, 9240, Note_on_c, 0, 55, 105
1, 9244, Note_on_c, 0, 58, 97
1, 9303, Note_on_c, 0, 43, 0
1, 9429, Note_on_c, 0, 43, 71
1, 9462, Note_on_c, 0, 43, 0
1, 9528, Note_on_c, 0, 58, 0
1, 9538, Note_on_c, 0, 62, 0
1, 9540, Note_on_c, 0, 55, 0
1, 9617, Note_on_c, 0, 43, 66
1, 9648, Note_on_c, 0, 43, 0
1, 9781, Note_on_c, 0, 43, 73
1, 9800, Note_on_c, 0, 58, 72
1, 9808, Note_on_c, 0, 62, 60
1, 9812, Note_on_c, 0, 55, 59
1, 9816, Note_on_c, 0, 43, 0
1, 9839, Note_on_c, 0, 58, 0
1, 9841, Note_on_c, 0, 62, 0
1, 9845, Note_on_c, 0, 55, 0
1, 9870, Note_on_c, 0, 31, 0
1, 9966, Note_on_c, 0, 41, 89
1, 9968, Note_on_c, 0, 29, 94
1, 9978, Control_c, 0, 64, 0
1, 9984, Note_on_c, 0, 53, 98
1, 9988, Note_on_c, 0, 60, 99
1, 9992, Note_on_c, 0, 57, 80
1, 10042, Note_on_c, 0, 41, 0
1, 10150, Control_c, 0, 64, 127
1, 10173, Note_on_c, 0, 60, 0
1, 10177, Note_on_c, 0, 41, 58
1, 10181, Note_on_c, 0, 53, 0
1, 10207, Note_on_c, 0, 57, 0
1, 10217, Note_on_c, 0, 41, 0
1, 10346, Note_on_c, 0, 41, 68
1, 10353, Note_on_c, 0, 57, 80
1, 10390, Note_on_c, 0, 41, 0
1, 10430, Note_on_c, 0, 57, 0
1, 10522, Note_on_c, 0, 53, 105
1, 10524, Note_on_c, 0, 41, 76
1, 10571, Note_on_c, 0, 41, 0
1, 10661, Note_on_c, 0, 53, 0
1, 10717, Note_on_c, 0, 41, 63
1, 10752, Note_on_c, 0, 41, 0
1, 10887, Note_on_c, 0, 41, 67
1, 10930, Note_on_c, 0, 41, 0
1, 11074, Note_on_c, 0, 41, 60
1, 11106, Note_on_c, 0, 41, 0
1, 11246, Note_on_c, 0, 41, 71
1, 11250, Note_on_c, 0, 29, 0
1, 11256, Note_on_c, 0, 53, 75
1, 11290, Note_on_c, 0, 41, 0
1, 11314, Note_on_c, 0, 53, 0
1, 11415, Control_c, 0, 64, 0
1, 11419, Note_on_c, 0, 58, 98
1, 11422, Note_on_c, 0, 43, 102
1, 11427, Note_on_c, 0, 31, 105
1, 11431, Note_on_c, 0, 62, 118
1, 11434, Note_on_c, 0, 55, 111
1, 11481, Note_on_c, 0, 43, 0
1, 11564, Control_c, 0, 64, 127
1, 11587, Note_on_c, 0, 62, 0
1, 11595, Note_on_c, 0, 55, 0
1, 11611, Note_on_c, 0, 58, 0
1, 11615, Note_on_c, 0, 43, 63
1, 11650, Note_on_c, 0, 43, 0
1, 11787, Note_on_c, 0, 43, 86
1, 11797, Note_on_c, 0, 62, 111
1, 11800, Note_on_c, 0, 58, 91
1, 11803, Note_on_c, 0, 55, 95
1, 11865, Note_on_c, 0, 43, 0
1, 11890, Note_on_c, 0, 55, 0
1, 11944, Note_on_c, 0, 62, 0
1, 11948, Note_on_c, 0, 58, 0
1, 11978, Note_on_c, 0, 43, 57
1, 12010, Note_on_c, 0, 43, 0
1, 12157, Note_on_c, 0, 43, 65
1, 12160, Note_on_c, 0, 60, 76
1, 12189, Note_on_c, 0, 43, 0
1, 12247, Note_on_c, 0, 60, 0
1, 12334, Note_on_c, 0, 43, 68
1, 12344, Note_on_c, 0, 58, 86
1, 12367, Note_on_c, 0, 43, 0
1, 12424, Note_on_c, 0, 58, 0
1, 12522, Note_on_c, 0, 60, 97
1, 12552, Note_on_c, 0, 43, 61
1, 12676, Note_on_c, 0, 43, 0
1, 12754, Note_on_c, 0, 60, 0
1, 12791, Note_on_c, 0, 31, 0
1, 12898, Control_c, 0, 64, 0
1, 12902, Note_on_c, 0, 41, 93
1, 12906, Note_on_c, 0, 29, 102
1, 12920, Note_on_c, 0, 53, 82
1, 12923, Note_on_c, 0, 57, 79
1, 12928, Note_on_c, 0, 60, 82
1, 12972, Note_on_c, 0, 41, 0
1, 13014, Note_on_c, 0, 57, 0
1, 13038, Control_c, 0, 64, 127
1, 13092, Note_on_c, 0, 57, 20
1, 13116, Note_on_c, 0, 41, 70
1, 13119, Note_on_c, 0, 53, 0
1, 13156, Note_on_c, 0, 41, 0
1, 13165, Note_on_c, 0, 57, 0
1, 13180, Note_on_c, 0, 60, 0
1, 13288, Note_on_c, 0, 41, 74
1, 13326, Note_on_c, 0, 41, 0
1, 13468, Note_on_c, 0, 41, 85
1, 13498, Note_on_c, 0, 53, 98
1, 13501, Note_on_c, 0, 60, 97
1, 13506, Note_on_c, 0, 57, 92
1, 13510, Note_on_c, 0, 41, 0
1, 13655, Note_on_c, 0, 41, 81
1, 13681, Note_on_c, 0, 29, 0
1, 13693, Note_on_c, 0, 41, 0
1, 13706, Note_on_c, 0, 53, 0
1, 13727, Note_on_c, 0, 57, 0
1, 13740, Note_on_c, 0, 60, 0
1, 13847, Note_on_c, 0, 46, 99
1, 13855, Note_on_c, 0, 34, 95
1, 13863, Control_c, 0, 64, 0
1, 13871, Note_on_c, 0, 58, 93
1, 13874, Note_on_c, 0, 55, 102
1, 13877, Note_on_c, 0, 62, 94
1, 13916, Note_on_c, 0, 46, 0
1, 13976, Control_c, 0, 64, 127
1, 14044, Note_on_c, 0, 46, 68
1, 14114, Note_on_c, 0, 55, 0
1, 14121, Note_on_c, 0, 62, 0
1, 14125, Note_on_c, 0, 34, 0
1, 14131, Note_on_c, 0, 58, 0
1, 14133, Note_on_c, 0, 46, 0
1, 14244, Control_c, 0, 64, 0
1, 14249, Note_on_c, 0, 51, 102
1, 14252, Note_on_c, 0, 63, 101
1, 14256, Note_on_c, 0, 39, 94
1, 14261, Note_on_c, 0, 58, 95
1, 14265, Note_on_c, 0, 55, 107
1, 14383, Note_on_c, 0, 51, 0
1, 14403, Control_c, 0, 64, 127
1, 14445, Note_on_c, 0, 55, 0
1, 14476, Note_on_c, 0, 58, 0
1, 14479, Note_on_c, 0, 63, 0
1, 14589, Note_on_c, 0, 63, 61
1, 14599, Note_on_c, 0, 51, 51
1, 14631, Note_on_c, 0, 51, 0
1, 14674, Note_on_c, 0, 63, 0
1, 14773, Note_on_c, 0, 63, 70
1, 14781, Note_on_c, 0, 51, 66
1, 14814, Note_on_c, 0, 51, 0
1, 14855, Note_on_c, 0, 63, 0
1, 14955, Note_on_c, 0, 63, 68
1, 14965, Note_on_c, 0, 51, 67
1, 14997, Note_on_c, 0, 51, 0
1, 15032, Note_on_c, 0, 63, 0
1, 15140, Note_on_c, 0, 63, 81
1, 15145, Note_on_c, 0, 51, 86
1, 15150, Note_on_c, 0, 58, 85
1, 15153, Note_on_c, 0, 55, 84
1, 15231, Note_on_c, 0, 51, 0
1, 15342, Note_on_c, 0, 51, 60
1, 15385, Note_on_c, 0, 51, 0
1, 15394, Note_on_c, 0, 55, 0
1, 15418, Note_on_c, 0, 58, 0
1, 15501, Note_on_c, 0, 63, 0
1, 15526, Note_on_c, 0, 51, 65
1, 15571, Note_on_c, 0, 51, 0
1, 15685, Note_on_c, 0, 51, 62
1, 15689, Note_on_c, 0, 58, 61
1, 15693, Note_on_c, 0, 55, 57
1, 15697, Note_on_c, 0, 63, 57
1, 15719, Note_on_c, 0, 51, 0
1, 15721, Note_on_c, 0, 58, 0
1, 15724, Note_on_c, 0, 55, 0
1, 15727, Note_on_c, 0, 63, 0
1, 15775, Note_on_c, 0, 39, 0
1, 15870, Note_on_c, 0, 58, 88
1, 15873, Note_on_c, 0, 46, 76
1, 15877, Note_on_c, 0, 62, 90
1, 15882, Note_on_c, 0, 53, 89
1, 15891, Note_on_c, 0, 34, 85
1, 15900, Control_c, 0, 64, 0
1, 15958, Note_on_c, 0, 46, 0
1, 16040, Control_c, 0, 64, 127
1, 16057, Note_on_c, 0, 46, 64
1, 16078, Note_on_c, 0, 53, 0
1, 16103, Note_on_c, 0, 58, 0
1, 16110, Note_on_c, 0, 62, 0
1, 16136, Note_on_c, 0, 46, 0
1, 16234, Note_on_c, 0, 60, 76
1, 16244, Note_on_c, 0, 46, 61
1, 16250, Note_on_c, 0, 53, 56
1, 16284, Note_on_c, 0, 53, 0
1, 16286, Note_on_c, 0, 46, 0
1, 16325, Note_on_c, 0, 60, 0
1, 16422, Note_on_c, 0, 58, 101
1, 16425, Note_on_c, 0, 46, 85
1, 16431, Note_on_c, 0, 53, 97
1, 16500, Note_on_c, 0, 46, 0
1, 16619, Note_on_c, 0, 46, 77
1, 16665, Note_on_c, 0, 46, 0
1, 16783, Note_on_c, 0, 46, 78
1, 16806, Note_on_c, 0, 53, 0
1, 16840, Note_on_c, 0, 46, 0
1, 16941, Note_on_c, 0, 58, 0
1, 16955, Note_on_c, 0, 46, 70
1, 16988, Note_on_c, 0, 46, 0
1, 17115, Note_on_c, 0, 46, 81
1, 17144, Note_on_c, 0, 58, 94
1, 17162, Note_on_c, 0, 53, 76
1, 17181, Note_on_c, 0, 34, 0
1, 17194, Note_on_c, 0, 46, 0
1, 17196, Note_on_c, 0, 53, 0
1, 17218, Note_on_c, 0, 58, 0
1, 17318, Note_on_c, 0, 46, 102
1, 17323, Note_on_c, 0, 34, 111
1, 17328, Note_on_c, 0, 58, 85
1, 17332, Control_c, 0, 64, 0
1, 17337, Note_on_c, 0, 62, 91
1, 17339, Note_on_c, 0, 53, 100
1, 17407, Note_on_c, 0, 46, 0
1, 17451, Control_c, 0, 64, 127
1, 17506, Note_on_c, 0, 46, 68
1, 17515, Note_on_c, 0, 53, 0
1, 17525, Note_on_c, 0, 62, 0
1, 17527, Note_on_c, 0, 58, 0
1, 17574, Note_on_c, 0, 46, 0
1, 17676, Note_on_c, 0, 46, 69
1, 17687, Note_on_c, 0, 62, 63
1, 17704, Note_on_c, 0, 53, 43
1, 17708, Note_on_c, 0, 58, 46
1, 17737, Note_on_c, 0, 58, 0
1, 17738, Note_on_c, 0, 53, 0
1, 17741, Note_on_c, 0, 34, 0
1, 17759, Note_on_c, 0, 46, 0
1, 17762, Note_on_c, 0, 62, 0
1, 17863, Note_on_c, 0, 48, 99
1, 17866, Control_c, 0, 64, 0
1, 17872, Note_on_c, 0, 36, 109
1, 17875, Note_on_c, 0, 55, 90
1, 17880, Note_on_c, 0, 60, 100
1, 17949, Note_on_c, 0, 48, 0
1, 17996, Control_c, 0, 64, 127
1, 18084, Note_on_c, 0, 48, 55
1, 18126, Note_on_c, 0, 48, 0
1, 18178, Note_on_c, 0, 55, 0
1, 18236, Note_on_c, 0, 48, 75
1, 18270, Note_on_c, 0, 58, 79
1, 18288, Note_on_c, 0, 36, 0
1, 18294, Note_on_c, 0, 60, 0
1, 18324, Note_on_c, 0, 48, 0
1, 18327, Note_on_c, 0, 58, 0
1, 18437, Note_on_c, 0, 50, 113
1, 18440, Control_c, 0, 64, 0
1, 18445, Note_on_c, 0, 38, 107
1, 18449, Note_on_c, 0, 55, 116
1, 18453, Note_on_c, 0, 57, 114
1, 18458, Note_on_c, 0, 62, 107
1, 18525, Note_on_c, 0, 50, 0
1, 18586, Control_c, 0, 64, 127
1, 18633, Note_on_c, 0, 50, 73
1, 18659, Note_on_c, 0, 55, 0
1, 18664, Note_on_c, 0, 57, 0
1, 18690, Note_on_c, 0, 62, 0
1, 18712, Note_on_c, 0, 50, 0
1, 18817, Note_on_c, 0, 50, 71
1, 18888, Note_on_c, 0, 50, 0
1, 19002, Note_on_c, 0, 50, 73
1, 19022, Note_on_c, 0, 55, 80
1, 19026, Note_on_c, 0, 62, 82
1, 19031, Note_on_c, 0, 57, 71
1, 19043, Note_on_c, 0, 50, 0
1, 19061, Note_on_c, 0, 62, 0
1, 19066, Note_on_c, 0, 57, 0
1, 19067, Note_on_c, 0, 55, 0
1, 19173, Note_on_c, 0, 50, 90
1, 19202, Note_on_c, 0, 57, 81
1, 19206, Note_on_c, 0, 55, 79
1, 19209, Note_on_c, 0, 62, 83
1, 19237, Note_on_c, 0, 55, 0
1, 19244, Note_on_c, 0, 50, 0
1, 19263, Note_on_c, 0, 57, 0
1, 19268, Note_on_c, 0, 62, 0
1, 19379, Note_on_c, 0, 54, 91
1, 19382, Note_on_c, 0, 57, 88
1, 19387, Note_on_c, 0, 62, 87
1, 19391, Note_on_c, 0, 50, 98
1, 19439, Note_on_c, 0, 38, 0
1, 19470, Control_c, 0, 64, 0
1, 19547, Note_on_c, 0, 38, 67
1, 19592, Control_c, 0, 64, 127
1, 19635, Note_on_c, 0, 38, 0
1, 19742, Note_on_c, 0, 38, 86
1, 19767, Note_on_c, 0, 54, 0
1, 19871, Note_on_c, 0, 57, 0
1, 19910, Note_on_c, 0, 41, 98
1, 19915, Note_on_c, 0, 38, 0
1, 19920, Note_on_c, 0, 50, 0
1, 19999, Note_on_c, 0, 41, 0
1, 20017, Note_on_c, 0, 62, 0
1, 20121, Note_on_c, 0, 43, 95
1, 20124, Note_on_c, 0, 31, 111
1, 20143, Control_c, 0, 64, 0
1, 20323, Control_c, 0, 64, 127
1, 20329, Note_on_c, 0, 43, 0
1, 20491, Note_on_c, 0, 43, 75
1, 20510, Note_on_c, 0, 62, 86
1, 20529, Note_on_c, 0, 43, 0
1, 20552, Note_on_c, 0, 62, 0
1, 20677, Note_on_c, 0, 43, 74
1, 20698, Note_on_c, 0, 62, 90
1, 20711, Note_on_c, 0, 43, 0
1, 20777, Note_on_c, 0, 62, 0
1, 20852, Note_on_c, 0, 43, 80
1, 20860, Note_on_c, 0, 62, 87
1, 20893, Note_on_c, 0, 43, 0
1, 20947, Note_on_c, 0, 62, 0
1, 21040, Note_on_c, 0, 43, 88
1, 21053, Note_on_c, 0, 58, 90
1, 21056, Note_on_c, 0, 55, 97
1, 21060, Note_on_c, 0, 62, 85
1, 21113, Note_on_c, 0, 43, 0
1, 21134, Note_on_c, 0, 58, 0
1, 21135, Note_on_c, 0, 62, 0
1, 21140, Note_on_c, 0, 55, 0
1, 21228, Note_on_c, 0, 43, 74
1, 21263, Note_on_c, 0, 43, 0
1, 21265, Note_on_c, 0, 62, 93
1, 21407, Note_on_c, 0, 43, 81
1, 21441, Note_on_c, 0, 43, 0
1, 21480, Note_on_c, 0, 62, 0
1, 21583, Note_on_c, 0, 43, 81
1, 21590, Note_on_c, 0, 62, 88
1, 21620, Note_on_c, 0, 43, 0
1, 21661, Note_on_c, 0, 62, 0
1, 21664, Note_on_c, 0, 31, 0
1, 21757, Note_on_c, 0, 41, 101
1, 21761, Note_on_c, 0, 29, 101
1, 21775, Note_on_c, 0, 60, 105
1, 21777, Note_on_c, 0, 57, 102
1, 21781, Note_on_c, 0, 53, 102
1, 21791, Control_c, 0, 64, 0
1, 21843, Note_on_c, 0, 41, 0
1, 21939, Control_c, 0, 64, 127
1, 21951, Note_on_c, 0, 57, 0
1, 21954, Note_on_c, 0, 53, 0
1, 21976, Note_on_c, 0, 41, 69
1, 21989, Note_on_c, 0, 60, 0
1, 22018, Note_on_c, 0, 41, 0
1, 22136, Note_on_c, 0, 57, 95
1, 22159, Note_on_c, 0, 41, 73
1, 22199, Note_on_c, 0, 41, 0
1, 22230, Note_on_c, 0, 57, 0
1, 22329, Note_on_c, 0, 53, 113
1, 22340, Note_on_c, 0, 41, 74
1, 22376, Note_on_c, 0, 41, 0
1, 22476, Note_on_c, 0, 53, 0
1, 22524, Note_on_c, 0, 41, 76
1, 22560, Note_on_c, 0, 41, 0
1, 22697, Note_on_c, 0, 41, 76
1, 22739, Note_on_c, 0, 41, 0
1, 22895, Note_on_c, 0, 41, 68
1, 22979, Note_on_c, 0, 41, 0
1, 23080, Note_on_c, 0, 41, 73
1, 23113, Note_on_c, 0, 41, 0
1, 23122, Note_on_c, 0, 29, 0
1, 23246, Note_on_c, 0, 43, 105
1, 23250, Control_c, 0, 64, 0
1, 23256, Note_on_c, 0, 55, 105
1, 23259, Note_on_c, 0, 62, 113
1, 23263, Note_on_c, 0, 58, 97
1, 23266, Note_on_c, 0, 31, 102
1, 23341, Note_on_c, 0, 43, 0
1, 23393, Control_c, 0, 64, 127
1, 23425, Note_on_c, 0, 55, 0
1, 23429, Note_on_c, 0, 58, 0
1, 23435, Note_on_c, 0, 62, 0
1, 23482, Note_on_c, 0, 43, 91
1, 23536, Note_on_c, 0, 58, 90
1, 23539, Note_on_c, 0, 62, 94
1, 23544, Note_on_c, 0, 55, 85
1, 23559, Note_on_c, 0, 43, 0
1, 23663, Note_on_c, 0, 43, 76
1, 23738, Note_on_c, 0, 43, 0
1, 23755, Note_on_c, 0, 55, 0
1, 23771, Note_on_c, 0, 58, 0
1, 23820, Note_on_c, 0, 62, 0
1, 23860, Note_on_c, 0, 43, 82
1, 23927, Note_on_c, 0, 43, 0
1, 24031, Note_on_c, 0, 60, 105
1, 24040, Note_on_c, 0, 43, 78
1, 24088, Note_on_c, 0, 43, 0
1, 24228, Note_on_c, 0, 43, 67
1, 24258, Note_on_c, 0, 43, 0
1, 24328, Note_on_c, 0, 60, 0
1, 24393, Note_on_c, 0, 43, 78
1, 24403, Note_on_c, 0, 58, 76
1, 24432, Note_on_c, 0, 43, 0
1, 24452, Note_on_c, 0, 58, 0
1, 24581, Note_on_c, 0, 43, 82
1, 24585, Note_on_c, 0, 53, 97
1, 24587, Note_on_c, 0, 60, 92
1, 24592, Note_on_c, 0, 57, 88
1, 24636, Note_on_c, 0, 43, 0
1, 24662, Note_on_c, 0, 31, 0
1, 24680, Control_c, 0, 64, 0
1, 24767, Note_on_c, 0, 29, 90
1, 24770, Note_on_c, 0, 41, 90
1, 24836, Control_c, 0, 64, 127
1, 24853, Note_on_c, 0, 41, 0
1, 24970, Note_on_c, 0, 41, 65
1, 24991, Note_on_c, 0, 53, 0
1, 25025, Note_on_c, 0, 41, 0
1, 25033, Note_on_c, 0, 60, 0
1, 25035, Note_on_c, 0, 57, 0
1, 25148, Note_on_c, 0, 41, 70
1, 25185, Note_on_c, 0, 41, 0
1, 25321, Note_on_c, 0, 41, 93
1, 25337, Note_on_c, 0, 57, 107
1, 25341, Note_on_c, 0, 53, 102
1, 25345, Note_on_c, 0, 60, 99
1, 25370, Note_on_c, 0, 41, 0
1, 25494, Note_on_c, 0, 41, 78
1, 25524, Note_on_c, 0, 29, 0
1, 25532, Note_on_c, 0, 53, 0
1, 25539, Note_on_c, 0, 41, 0
1, 25563, Note_on_c, 0, 57, 0
1, 25575, Note_on_c, 0, 60, 0
1, 25680, Note_on_c, 0, 46, 109
1, 25689, Note_on_c, 0, 34, 94
1, 25692, Control_c, 0, 64, 0
1, 25698, Note_on_c, 0, 58, 104
1, 25701, Note_on_c, 0, 55, 101
1, 25709, Note_on_c, 0, 62, 102
1, 25746, Note_on_c, 0, 46, 0
1, 25817, Control_c, 0, 64, 127
1, 25865, Note_on_c, 0, 46, 72
1, 25947, Note_on_c, 0, 55, 0
1, 25948, Note_on_c, 0, 34, 0
1, 25954, Note_on_c, 0, 46, 0
1, 25957, Note_on_c, 0, 62, 0
1, 25969, Note_on_c, 0, 58, 0
1, 26059, Control_c, 0, 64, 0
1, 26067, Note_on_c, 0, 51, 109
1, 26070, Note_on_c, 0, 58, 97
1, 26074, Note_on_c, 0, 39, 98
1, 26078, Note_on_c, 0, 63, 107
1, 26082, Note_on_c, 0, 55, 107
1, 26232, Control_c, 0, 64, 127
1, 26303, Note_on_c, 0, 51, 0
1, 26305, Note_on_c, 0, 55, 0
1, 26338, Note_on_c, 0, 58, 0
1, 26342, Note_on_c, 0, 63, 0
1, 26446, Note_on_c, 0, 63, 58
1, 26461, Note_on_c, 0, 51, 64
1, 26499, Note_on_c, 0, 51, 0
1, 26531, Note_on_c, 0, 63, 0
1, 26632, Note_on_c, 0, 63, 70
1, 26649, Note_on_c, 0, 51, 75
1, 26692, Note_on_c, 0, 51, 0
1, 26735, Note_on_c, 0, 63, 0
1, 26818, Note_on_c, 0, 63, 76
1, 26835, Note_on_c, 0, 51, 68
1, 26869, Note_on_c, 0, 51, 0
1, 26913, Note_on_c, 0, 63, 0
1, 27008, Note_on_c, 0, 63, 86
1, 27010, Note_on_c, 0, 58, 95
1, 27013, Note_on_c, 0, 51, 91
1, 27018, Note_on_c, 0, 55, 91
1, 27084, Note_on_c, 0, 51, 0
1, 27164, Note_on_c, 0, 55, 0
1, 27211, Note_on_c, 0, 51, 71
1, 27214, Note_on_c, 0, 58, 0
1, 27254, Note_on_c, 0, 51, 0
1, 27263, Note_on_c, 0, 63, 0
1, 27381, Note_on_c, 0, 51, 70
1, 27423, Note_on_c, 0, 51, 0
1, 27540, Note_on_c, 0, 51, 65
1, 27569, Note_on_c, 0, 63, 70
1, 27578, Note_on_c, 0, 58, 63
1, 27582, Note_on_c, 0, 51, 0
1, 27585, Note_on_c, 0, 55, 52
1, 27604, Note_on_c, 0, 63, 0
1, 27611, Note_on_c, 0, 58, 0
1, 27621, Note_on_c, 0, 55, 0
1, 27638, Note_on_c, 0, 39, 0
1, 27742, Note_on_c, 0, 46, 76
1, 27753, Note_on_c, 0, 58, 90
1, 27760, Note_on_c, 0, 34, 87
1, 27763, Note_on_c, 0, 62, 88
1, 27768, Note_on_c, 0, 53, 86
1, 27772, Control_c, 0, 64, 0
1, 27825, Note_on_c, 0, 46, 0
1, 27913, Note_on_c, 0, 46, 55
1, 27917, Control_c, 0, 64, 127
1, 27956, Note_on_c, 0, 53, 0
1, 27978, Note_on_c, 0, 58, 0
1, 27995, Note_on_c, 0, 62, 0
1, 28001, Note_on_c, 0, 46, 0
1, 28110, Note_on_c, 0, 46, 64
1, 28126, Note_on_c, 0, 60, 68
1, 28129, Note_on_c, 0, 53, 60
1, 28169, Note_on_c, 0, 53, 0
1, 28178, Note_on_c, 0, 60, 0
1, 28180, Note_on_c, 0, 46, 0
1, 28307, Note_on_c, 0, 46, 73
1, 28319, Note_on_c, 0, 58, 90
1, 28322, Note_on_c, 0, 53, 82
1, 28360, Note_on_c, 0, 46, 0
1, 28494, Note_on_c, 0, 53, 0
1, 28496, Note_on_c, 0, 46, 69
1, 28534, Note_on_c, 0, 46, 0
1, 28670, Note_on_c, 0, 46, 76
1, 28711, Note_on_c, 0, 46, 0
1, 28717, Note_on_c, 0, 58, 0
1, 28852, Note_on_c, 0, 46, 81
1, 28890, Note_on_c, 0, 46, 0
1, 29026, Note_on_c, 0, 46, 76
1, 29049, Note_on_c, 0, 58, 88
1, 29060, Note_on_c, 0, 53, 64
1, 29063, Note_on_c, 0, 34, 0
1, 29066, Note_on_c, 0, 46, 0
1, 29092, Note_on_c, 0, 53, 0
1, 29113, Note_on_c, 0, 58, 0
1, 29204, Control_c, 0, 64, 0
1, 29207, Note_on_c, 0, 46, 107
1, 29212, Note_on_c, 0, 34, 102
1, 29217, Note_on_c, 0, 58, 104
1, 29220, Note_on_c, 0, 62, 109
1, 29225, Note_on_c, 0, 53, 105
1, 29290, Note_on_c, 0, 46, 0
1, 29336, Control_c, 0, 64, 127
1, 29385, Note_on_c, 0, 53, 0
1, 29400, Note_on_c, 0, 46, 72
1, 29412, Note_on_c, 0, 62, 0
1, 29422, Note_on_c, 0, 58, 0
1, 29460, Note_on_c, 0, 46, 0
1, 29581, Note_on_c, 0, 46, 67
1, 29601, Note_on_c, 0, 62, 76
1, 29610, Note_on_c, 0, 58, 66
1, 29614, Note_on_c, 0, 53, 68
1, 29624, Note_on_c, 0, 34, 0
1, 29642, Note_on_c, 0, 53, 0
1, 29647, Note_on_c, 0, 58, 0
1, 29660, Note_on_c, 0, 46, 0
1, 29684, Note_on_c, 0, 62, 0
1, 29762, Note_on_c, 0, 48, 113
1, 29768, Note_on_c, 0, 36, 105
1, 29772, Control_c, 0, 64, 0
1, 29783, Note_on_c, 0, 60, 114
1, 29786, Note_on_c, 0, 55, 99
1, 29854, Note_on_c, 0, 48, 0
1, 29904, Control_c, 0, 64, 127
1, 29985, Note_on_c, 0, 48, 83
1, 30065, Note_on_c, 0, 48, 0
1, 30108, Note_on_c, 0, 55, 0
1, 30174, Note_on_c, 0, 48, 81
1, 30186, Note_on_c, 0, 58, 70
1, 30197, Note_on_c, 0, 36, 0
1, 30208, Note_on_c, 0, 60, 0
1, 30229, Note_on_c, 0, 58, 0
1, 30264, Note_on_c, 0, 48, 0
1, 30331, Control_c, 0, 64, 0
1, 30346, Note_on_c, 0, 55, 103
1, 30349, Note_on_c, 0, 57, 106
1, 30354, Note_on_c, 0, 50, 96
1, 30358, Note_on_c, 0, 62, 101
1, 30363, Note_on_c, 0, 38, 104
1, 30436, Note_on_c, 0, 50, 0
1, 30488, Control_c, 0, 64, 127
1, 30536, Note_on_c, 0, 55, 0
1, 30549, Note_on_c, 0, 50, 70
1, 30566, Note_on_c, 0, 57, 0
1, 30568, Note_on_c, 0, 62, 0
1, 30619, Note_on_c, 0, 50, 0
1, 30708, Note_on_c, 0, 50, 72
1, 30781, Note_on_c, 0, 50, 0
1, 30891, Note_on_c, 0, 50, 64
1, 30915, Note_on_c, 0, 55, 77
1, 30918, Note_on_c, 0, 62, 83
1, 30921, Note_on_c, 0, 57, 76
1, 30940, Note_on_c, 0, 50, 0
1, 30950, Note_on_c, 0, 62, 0
1, 30951, Note_on_c, 0, 55, 0
1, 30954, Note_on_c, 0, 57, 0
1, 31060, Note_on_c, 0, 50, 77
1, 31104, Note_on_c, 0, 55, 80
1, 31107, Note_on_c, 0, 57, 83
1, 31112, Note_on_c, 0, 62, 73
1, 31135, Note_on_c, 0, 50, 0
1, 31136, Note_on_c, 0, 55, 0
1, 31150, Note_on_c, 0, 62, 0
1, 31154, Note_on_c, 0, 57, 0
1, 31259, Note_on_c, 0, 50, 93
1, 31275, Note_on_c, 0, 54, 107
1, 31283, Note_on_c, 0, 57, 86
1, 31287, Note_on_c, 0, 62, 89
1, 31299, Control_c, 0, 64, 0
1, 31339, Note_on_c, 0, 50, 0
1, 31426, Control_c, 0, 64, 127
1, 31432, Note_on_c, 0, 57, 0
1, 31438, Note_on_c, 0, 54, 0
1, 31450, Note_on_c, 0, 50, 73
1, 31471, Note_on_c, 0, 62, 0
1, 31517, Note_on_c, 0, 50, 0
1, 31637, Note_on_c, 0, 50, 82
1, 31664, Note_on_c, 0, 62, 102
1, 31667, Note_on_c, 0, 74, 87
1, 31696, Note_on_c, 0, 62, 0
1, 31702, Note_on_c, 0, 74, 0
1, 31706, Note_on_c, 0, 50, 0
1, 31827, Note_on_c, 0, 50, 80
1, 31832, Note_on_c, 0, 65, 114
1, 31840, Note_on_c, 0, 77, 90
1, 31889, Note_on_c, 0, 77, 0
1, 31905, Note_on_c, 0, 65, 0
1, 31929, Note_on_c, 0, 50, 0
1, 32012, Note_on_c, 0, 67, 120
1, 32015, Note_on_c, 0, 79, 120
1, 32041, Note_on_c, 0, 50, 73
1, 32068, Note_on_c, 0, 38, 0
1, 32084, Note_on_c, 0, 50, 0
1, 32139, Control_c, 0, 64, 0
1, 32206, Note_on_c, 0, 51, 113
1, 32212, Note_on_c, 0, 39, 102
1, 32290, Control_c, 0, 64, 127
1, 32307, Note_on_c, 0, 51, 0
1, 32335, Note_on_c, 0, 79, 0
1, 32396, Note_on_c, 0, 67, 0
1, 32422, Note_on_c, 0, 51, 55
1, 32461, Note_on_c, 0, 51, 0
1, 32564, Note_on_c, 0, 62, 92
1, 32583, Note_on_c, 0, 51, 76
1, 32646, Note_on_c, 0, 62, 0
1, 32654, Note_on_c, 0, 51, 0
1, 32740, Note_on_c, 0, 62, 89
1, 32768, Note_on_c, 0, 51, 80
1, 32818, Note_on_c, 0, 51, 0
1, 32833, Note_on_c, 0, 62, 0
1, 32931, Note_on_c, 0, 65, 104
1, 32944, Note_on_c, 0, 51, 88
1, 33017, Note_on_c, 0, 51, 0
1, 33029, Note_on_c, 0, 65, 0
1, 33113, Note_on_c, 0, 51, 80
1, 33132, Note_on_c, 0, 67, 99
1, 33187, Note_on_c, 0, 51, 0
1, 33299, Note_on_c, 0, 51, 83
1, 33343, Note_on_c, 0, 67, 0
1, 33371, Note_on_c, 0, 51, 0
1, 33454, Note_on_c, 0, 67, 88
1, 33473, Note_on_c, 0, 51, 73
1, 33527, Note_on_c, 0, 67, 0
1, 33532, Note_on_c, 0, 51, 0
1, 33554, Note_on_c, 0, 39, 0
1, 33635, Note_on_c, 0, 46, 90
1, 33651, Note_on_c, 0, 58, 99
1, 33653, Note_on_c, 0, 34, 92
1, 33660, Note_on_c, 0, 65, 46
1, 33713, Control_c, 0, 64, 0
1, 33729, Note_on_c, 0, 46, 0
1, 33738, Note_on_c, 0, 65, 0
1, 33806, Note_on_c, 0, 58, 0
1, 33835, Control_c, 0, 64, 127
1, 33840, Note_on_c, 0, 46, 73
1, 33848, Note_on_c, 0, 62, 76
1, 33908, Note_on_c, 0, 46, 0
1, 34020, Note_on_c, 0, 46, 72
1, 34041, Note_on_c, 0, 60, 82
1, 34062, Note_on_c, 0, 62, 0
1, 34099, Note_on_c, 0, 46, 0
1, 34217, Note_on_c, 0, 62, 94
1, 34221, Note_on_c, 0, 46, 76
1, 34241, Note_on_c, 0, 60, 0
1, 34298, Note_on_c, 0, 46, 0
1, 34342, Note_on_c, 0, 62, 0
1, 34403, Note_on_c, 0, 46, 74
1, 34484, Note_on_c, 0, 46, 0
1, 34580, Note_on_c, 0, 46, 71
1, 34665, Note_on_c, 0, 46, 0
1, 34764, Note_on_c, 0, 46, 79
1, 34843, Note_on_c, 0, 46, 0
1, 34956, Note_on_c, 0, 46, 87
1, 34973, Note_on_c, 0, 34, 0
1, 35030, Note_on_c, 0, 46, 0
1, 35113, Note_on_c, 0, 51, 104
1, 35118, Note_on_c, 0, 39, 95
1, 35134, Control_c, 0, 64, 0
1, 35221, Note_on_c, 0, 51, 0
1, 35275, Control_c, 0, 64, 127
1, 35315, Note_on_c, 0, 51, 77
1, 35398, Note_on_c, 0, 51, 0
1, 35502, Note_on_c, 0, 51, 78
1, 35574, Note_on_c, 0, 51, 0
1, 35650, Note_on_c, 0, 67, 97
1, 35667, Note_on_c, 0, 51, 84
1, 35672, Note_on_c, 0, 63, 77
1, 35703, Note_on_c, 0, 63, 0
1, 35745, Note_on_c, 0, 51, 0
1, 35754, Note_on_c, 0, 67, 0
1, 35839, Note_on_c, 0, 51, 94
1, 35854, Note_on_c, 0, 67, 76
1, 35857, Note_on_c, 0, 63, 86
1, 35860, Note_on_c, 0, 58, 98
1, 35900, Note_on_c, 0, 58, 0
1, 35921, Note_on_c, 0, 51, 0
1, 35934, Note_on_c, 0, 67, 0
1, 35938, Note_on_c, 0, 63, 0
1, 36010, Note_on_c, 0, 51, 86
1, 36024, Note_on_c, 0, 63, 84
1, 36043, Note_on_c, 0, 69, 73
1, 36077, Note_on_c, 0, 51, 0
1, 36079, Note_on_c, 0, 69, 0
1, 36103, Note_on_c, 0, 63, 0
1, 36198, Note_on_c, 0, 51, 98
1, 36202, Note_on_c, 0, 70, 95
1, 36208, Note_on_c, 0, 63, 88
1, 36265, Note_on_c, 0, 63, 0
1, 36268, Note_on_c, 0, 51, 0
1, 36276, Note_on_c, 0, 70, 0
1, 36385, Note_on_c, 0, 69, 95
1, 36389, Note_on_c, 0, 60, 94
1, 36397, Note_on_c, 0, 65, 86
1, 36405, Note_on_c, 0, 51, 90
1, 36458, Note_on_c, 0, 39, 0
1, 36483, Note_on_c, 0, 51, 0
1, 36489, Control_c, 0, 64, 0
1, 36569, Note_on_c, 0, 53, 104
1, 36574, Note_on_c, 0, 41, 104
1, 36627, Control_c, 0, 64, 127
1, 36657, Note_on_c, 0, 53, 0
1, 36664, Note_on_c, 0, 60, 0
1, 36687, Note_on_c, 0, 65, 0
1, 36742, Note_on_c, 0, 69, 0
1, 36756, Note_on_c, 0, 53, 76
1, 36850, Note_on_c, 0, 53, 0
1, 36930, Note_on_c, 0, 67, 102
1, 36942, Note_on_c, 0, 53, 76
1, 37021, Note_on_c, 0, 53, 0
1, 37025, Note_on_c, 0, 67, 0
1, 37128, Note_on_c, 0, 65, 116
1, 37131, Note_on_c, 0, 53, 80
1, 37222, Note_on_c, 0, 53, 0
1, 37275, Note_on_c, 0, 65, 0
1, 37307, Note_on_c, 0, 53, 73
1, 37382, Note_on_c, 0, 53, 0
1, 37485, Note_on_c, 0, 53, 81
1, 37496, Note_on_c, 0, 62, 114
1, 37500, Note_on_c, 0, 74, 116
1, 37554, Note_on_c, 0, 62, 0
1, 37558, Note_on_c, 0, 74, 0
1, 37560, Note_on_c, 0, 53, 0
1, 37661, Note_on_c, 0, 53, 81
1, 37686, Note_on_c, 0, 65, 109
1, 37689, Note_on_c, 0, 77, 120
1, 37737, Note_on_c, 0, 53, 0
1, 37741, Note_on_c, 0, 65, 0
1, 37745, Note_on_c, 0, 77, 0
1, 37844, Note_on_c, 0, 53, 88
1, 37866, Note_on_c, 0, 79, 122
1, 37870, Note_on_c, 0, 67, 122
1, 37906, Note_on_c, 0, 53, 0
1, 37944, Note_on_c, 0, 41, 0
1, 37965, Note_on_c, 0, 79, 0
1, 38009, Note_on_c, 0, 67, 0
1, 38012, Control_c, 0, 64, 0
1, 38040, Note_on_c, 0, 43, 126
1, 38043, Note_on_c, 0, 31, 123
1, 38115, Control_c, 0, 64, 127
1, 38137, Note_on_c, 0, 43, 0
1, 38287, Note_on_c, 0, 43, 46
1, 38326, Note_on_c, 0, 43, 0
1, 38392, Note_on_c, 0, 43, 104
1, 38428, Note_on_c, 0, 62, 114
1, 38432, Note_on_c, 0, 58, 116
1, 38435, Note_on_c, 0, 67, 104
1, 38470, Control_c, 0, 64, 0
1, 38474, Note_on_c, 0, 43, 0
1, 38555, Note_on_c, 0, 43, 81
1, 38585, Note_on_c, 0, 58, 0
1, 38587, Control_c, 0, 64, 127
1, 38623, Note_on_c, 0, 67, 0
1, 38628, Note_on_c, 0, 43, 0
1, 38629, Note_on_c, 0, 62, 0
1, 38754, Note_on_c, 0, 43, 74
1, 38805, Note_on_c, 0, 43, 0
1, 38936, Note_on_c, 0, 43, 73
1, 38972, Note_on_c, 0, 43, 0
1, 39109, Note_on_c, 0, 43, 86
1, 39128, Note_on_c, 0, 67, 93
1, 39178, Note_on_c, 0, 43, 0
1, 39219, Note_on_c, 0, 67, 0
1, 39302, Note_on_c, 0, 43, 80
1, 39307, Note_on_c, 0, 65, 113
1, 39312, Note_on_c, 0, 57, 107
1, 39337, Note_on_c, 0, 31, 0
1, 39384, Note_on_c, 0, 43, 0
1, 39443, Control_c, 0, 64, 0
1, 39471, Note_on_c, 0, 33, 86
1, 39475, Note_on_c, 0, 45, 92
1, 39526, Note_on_c, 0, 57, 0
1, 39545, Control_c, 0, 64, 127
1, 39565, Note_on_c, 0, 45, 0
1, 39600, Note_on_c, 0, 65, 0
1, 39658, Note_on_c, 0, 45, 84
1, 39667, Note_on_c, 0, 62, 118
1, 39754, Note_on_c, 0, 45, 0
1, 39836, Note_on_c, 0, 45, 70
1, 39877, Note_on_c, 0, 62, 0
1, 39923, Note_on_c, 0, 45, 0
1, 40017, Note_on_c, 0, 45, 75
1, 40020, Note_on_c, 0, 62, 107
1, 40099, Note_on_c, 0, 45, 0
1, 40113, Note_on_c, 0, 62, 0
1, 40214, Note_on_c, 0, 45, 68
1, 40263, Note_on_c, 0, 45, 0
1, 40391, Note_on_c, 0, 45, 68
1, 40437, Note_on_c, 0, 45, 0
1, 40582, Note_on_c, 0, 45, 67
1, 40591, Note_on_c, 0, 58, 88
1, 40617, Note_on_c, 0, 45, 0
1, 40665, Note_on_c, 0, 58, 0
1, 40762, Note_on_c, 0, 45, 74
1, 40765, Note_on_c, 0, 60, 89
1, 40799, Note_on_c, 0, 45, 0
1, 40803, Note_on_c, 0, 33, 0
1, 40835, Note_on_c, 0, 60, 0
1, 40946, Note_on_c, 0, 58, 98
1, 40949, Note_on_c, 0, 53, 105
1, 40953, Note_on_c, 0, 62, 99
1, 40957, Note_on_c, 0, 46, 102
1, 40962, Note_on_c, 0, 34, 95
1, 40985, Control_c, 0, 64, 0
1, 41041, Note_on_c, 0, 46, 0
1, 41110, Control_c, 0, 64, 127
1, 41127, Note_on_c, 0, 46, 68
1, 41184, Note_on_c, 0, 53, 0
1, 41203, Note_on_c, 0, 58, 0
1, 41205, Note_on_c, 0, 46, 0
1, 41206, Note_on_c, 0, 62, 0
1, 41305, Note_on_c, 0, 46, 70
1, 41338, Note_on_c, 0, 53, 83
1, 41348, Note_on_c, 0, 62, 76
1, 41351, Note_on_c, 0, 58, 76
1, 41379, Note_on_c, 0, 53, 0
1, 41382, Note_on_c, 0, 34, 0
1, 41389, Note_on_c, 0, 58, 0
1, 41393, Note_on_c, 0, 46, 0
1, 41395, Note_on_c, 0, 62, 0
1, 41513, Note_on_c, 0, 48, 109
1, 41516, Note_on_c, 0, 36, 105
1, 41527, Control_c, 0, 64, 0
1, 41530, Note_on_c, 0, 60, 114
1, 41538, Note_on_c, 0, 55, 97
1, 41607, Note_on_c, 0, 48, 0
1, 41659, Control_c, 0, 64, 127
1, 41667, Note_on_c, 0, 36, 0
1, 41714, Note_on_c, 0, 36, 53
1, 41723, Note_on_c, 0, 48, 89
1, 41802, Note_on_c, 0, 48, 0
1, 41859, Note_on_c, 0, 55, 0
1, 41921, Note_on_c, 0, 48, 83
1, 41926, Note_on_c, 0, 60, 0
1, 41933, Note_on_c, 0, 58, 81
1, 41947, Note_on_c, 0, 36, 0
1, 42008, Note_on_c, 0, 48, 0
1, 42010, Note_on_c, 0, 58, 0
1, 42077, Control_c, 0, 64, 0
1, 42098, Note_on_c, 0, 50, 113
1, 42102, Note_on_c, 0, 38, 113
1, 42105, Note_on_c, 0, 55, 113
1, 42109, Note_on_c, 0, 57, 114
1, 42114, Note_on_c, 0, 62, 111
1, 42185, Note_on_c, 0, 50, 0
1, 42235, Control_c, 0, 64, 127
1, 42293, Note_on_c, 0, 50, 70
1, 42352, Note_on_c, 0, 55, 0
1, 42373, Note_on_c, 0, 50, 0
1, 42382, Note_on_c, 0, 62, 0
1, 42384, Note_on_c, 0, 57, 0
1, 42459, Note_on_c, 0, 50, 68
1, 42541, Note_on_c, 0, 50, 0
1, 42658, Note_on_c, 0, 50, 65
1, 42682, Note_on_c, 0, 55, 69
1, 42685, Note_on_c, 0, 57, 70
1, 42689, Note_on_c, 0, 62, 70
1, 42718, Note_on_c, 0, 55, 0
1, 42719, Note_on_c, 0, 57, 0
1, 42721, Note_on_c, 0, 62, 0
1, 42729, Note_on_c, 0, 50, 0
1, 42841, Note_on_c, 0, 50, 74
1, 42872, Note_on_c, 0, 55, 75
1, 42874, Note_on_c, 0, 57, 76
1, 42877, Note_on_c, 0, 62, 77
1, 42905, Note_on_c, 0, 55, 0
1, 42924, Note_on_c, 0, 50, 0
1, 42936, Note_on_c, 0, 57, 0
1, 42943, Note_on_c, 0, 62, 0
1, 43041, Note_on_c, 0, 50, 83
1, 43050, Note_on_c, 0, 54, 104
1, 43054, Note_on_c, 0, 57, 84
1, 43058, Note_on_c, 0, 62, 85
1, 43065, Control_c, 0, 64, 0
1, 43137, Note_on_c, 0, 50, 0
1, 43185, Control_c, 0, 64, 127
1, 43218, Note_on_c, 0, 50, 76
1, 43222, Note_on_c, 0, 54, 0
1, 43226, Note_on_c, 0, 57, 0
1, 43269, Note_on_c, 0, 62, 0
1, 43299, Note_on_c, 0, 50, 0
1, 43420, Note_on_c, 0, 50, 76
1, 43444, Note_on_c, 0, 62, 109
1, 43448, Note_on_c, 0, 74, 114
1, 43473, Note_on_c, 0, 50, 0
1, 43510, Note_on_c, 0, 74, 0
1, 43521, Note_on_c, 0, 62, 0
1, 43599, Note_on_c, 0, 50, 83
1, 43622, Note_on_c, 0, 65, 104
1, 43628, Note_on_c, 0, 77, 86
1, 43673, Note_on_c, 0, 65, 0
1, 43678, Note_on_c, 0, 77, 0
1, 43685, Note_on_c, 0, 50, 0
1, 43805, Note_on_c, 0, 67, 120
1, 43807, Note_on_c, 0, 79, 120
1, 43816, Note_on_c, 0, 50, 70
1, 43820, Note_on_c, 0, 38, 0
1, 43853, Note_on_c, 0, 50, 0
1, 43893, Control_c, 0, 64, 0
1, 43979, Note_on_c, 0, 51, 113
1, 43983, Note_on_c, 0, 39, 101
1, 44054, Control_c, 0, 64, 127
1, 44078, Note_on_c, 0, 51, 0
1, 44110, Note_on_c, 0, 79, 0
1, 44164, Note_on_c, 0, 51, 71
1, 44177, Note_on_c, 0, 67, 0
1, 44241, Note_on_c, 0, 51, 0
1, 44356, Note_on_c, 0, 51, 80
1, 44359, Note_on_c, 0, 62, 93
1, 44428, Note_on_c, 0, 51, 0
1, 44435, Note_on_c, 0, 62, 0
1, 44529, Note_on_c, 0, 62, 87
1, 44545, Note_on_c, 0, 51, 76
1, 44621, Note_on_c, 0, 62, 0
1, 44623, Note_on_c, 0, 51, 0
1, 44723, Note_on_c, 0, 65, 97
1, 44726, Note_on_c, 0, 51, 80
1, 44797, Note_on_c, 0, 51, 0
1, 44817, Note_on_c, 0, 65, 0
1, 44902, Note_on_c, 0, 51, 82
1, 44913, Note_on_c, 0, 67, 107
1, 44990, Note_on_c, 0, 51, 0
1, 45078, Note_on_c, 0, 51, 86
1, 45147, Note_on_c, 0, 67, 0
1, 45178, Note_on_c, 0, 51, 0
1, 45253, Note_on_c, 0, 51, 78
1, 45260, Note_on_c, 0, 67, 97
1, 45322, Note_on_c, 0, 39, 0
1, 45361, Note_on_c, 0, 51, 0
1, 45397, Note_on_c, 0, 67, 0
1, 45448, Note_on_c, 0, 53, 104
1, 45455, Note_on_c, 0, 65, 99
1, 45459, Note_on_c, 0, 41, 84
1, 45480, Control_c, 0, 64, 0
1, 45552, Note_on_c, 0, 53, 0
1, 45616, Control_c, 0, 64, 127
1, 45655, Note_on_c, 0, 53, 73
1, 45722, Note_on_c, 0, 67, 98
1, 45749, Note_on_c, 0, 53, 0
1, 45780, Note_on_c, 0, 65, 0
1, 45841, Note_on_c, 0, 53, 75
1, 45914, Note_on_c, 0, 67, 0
1, 45928, Note_on_c, 0, 53, 0
1, 46018, Note_on_c, 0, 53, 76
1, 46049, Note_on_c, 0, 67, 107
1, 46109, Note_on_c, 0, 53, 0
1, 46193, Note_on_c, 0, 53, 73
1, 46280, Note_on_c, 0, 53, 0
1, 46339, Note_on_c, 0, 67, 0
1, 46383, Note_on_c, 0, 69, 71
1, 46387, Note_on_c, 0, 53, 64
1, 46469, Note_on_c, 0, 53, 0
1, 46472, Note_on_c, 0, 67, 89
1, 46520, Note_on_c, 0, 69, 0
1, 46550, Note_on_c, 0, 65, 74
1, 46563, Note_on_c, 0, 53, 69
1, 46590, Note_on_c, 0, 67, 0
1, 46633, Note_on_c, 0, 53, 0
1, 46741, Note_on_c, 0, 53, 76
1, 46785, Note_on_c, 0, 65, 0
1, 46806, Note_on_c, 0, 41, 0
1, 46833, Note_on_c, 0, 53, 0
1, 46922, Note_on_c, 0, 55, 92
1, 46931, Note_on_c, 0, 43, 89
1, 46939, Control_c, 0, 64, 0
1, 47020, Note_on_c, 0, 55, 0
1, 47080, Control_c, 0, 64, 127
1, 47132, Note_on_c, 0, 55, 65
1, 47217, Note_on_c, 0, 55, 0
1, 47297, Note_on_c, 0, 55, 71
1, 47380, Note_on_c, 0, 55, 0
1, 47466, Note_on_c, 0, 67, 89
1, 47496, Note_on_c, 0, 55, 58
1, 47533, Note_on_c, 0, 55, 0
1, 47539, Note_on_c, 0, 67, 0
1, 47661, Note_on_c, 0, 55, 71
1, 47665, Note_on_c, 0, 67, 90
1, 47730, Note_on_c, 0, 55, 0
1, 47739, Note_on_c, 0, 67, 0
1, 47828, Note_on_c, 0, 55, 73
1, 47841, Note_on_c, 0, 69, 92
1, 47905, Note_on_c, 0, 55, 0
1, 47910, Note_on_c, 0, 69, 0
1, 48013, Note_on_c, 0, 70, 92
1, 48016, Note_on_c, 0, 55, 78
1, 48084, Note_on_c, 0, 70, 0
1, 48088, Note_on_c, 0, 55, 0
1, 48186, Note_on_c, 0, 69, 109
1, 48201, Note_on_c, 0, 62, 94
1, 48210, Note_on_c, 0, 65, 71
1, 48213, Note_on_c, 0, 55, 81
1, 48244, Note_on_c, 0, 43, 0
1, 48247, Note_on_c, 0, 65, 0
1, 48269, Control_c, 0, 64, 0
1, 48286, Note_on_c, 0, 55, 0
1, 48378, Note_on_c, 0, 57, 95
1, 48382, Note_on_c, 0, 45, 93
1, 48386, Control_c, 0, 64, 127
1, 48420, Note_on_c, 0, 62, 0
1, 48475, Note_on_c, 0, 57, 0
1, 48513, Note_on_c, 0, 69, 0
1, 48577, Note_on_c, 0, 57, 67
1, 48651, Note_on_c, 0, 57, 0
1, 48766, Note_on_c, 0, 67, 99
1, 48769, Note_on_c, 0, 57, 68
1, 48836, Note_on_c, 0, 57, 0
1, 48861, Note_on_c, 0, 67, 0
1, 48943, Note_on_c, 0, 57, 75
1, 48956, Note_on_c, 0, 65, 111
1, 49021, Note_on_c, 0, 57, 0
1, 49058, Note_on_c, 0, 65, 0
1, 49137, Note_on_c, 0, 57, 76
1, 49215, Note_on_c, 0, 57, 0
1, 49309, Note_on_c, 0, 57, 82
1, 49397, Note_on_c, 0, 57, 0
1, 49502, Note_on_c, 0, 57, 74
1, 49558, Note_on_c, 0, 57, 0
1, 49649, Note_on_c, 0, 57, 81
1, 49719, Note_on_c, 0, 57, 0
1, 49749, Note_on_c, 0, 45, 0
1, 49849, Note_on_c, 0, 48, 116
1, 49854, Note_on_c, 0, 63, 104
1, 49858, Note_on_c, 0, 36, 114
1, 49862, Note_on_c, 0, 60, 102
1, 49898, Control_c, 0, 64, 0
1, 50001, Note_on_c, 0, 48, 0
1, 50037, Control_c, 0, 64, 127
1, 50116, Note_on_c, 0, 48, 83
1, 50134, Note_on_c, 0, 70, 93
1, 50195, Note_on_c, 0, 48, 0
1, 50282, Note_on_c, 0, 48, 81
1, 50345, Note_on_c, 0, 70, 0
1, 50363, Note_on_c, 0, 48, 0
1, 50464, Note_on_c, 0, 48, 83
1, 50485, Note_on_c, 0, 70, 97
1, 50548, Note_on_c, 0, 48, 0
1, 50644, Note_on_c, 0, 48, 76
1, 50647, Note_on_c, 0, 70, 0
1, 50719, Note_on_c, 0, 48, 0
1, 50825, Note_on_c, 0, 48, 89
1, 50850, Note_on_c, 0, 70, 99
1, 50904, Note_on_c, 0, 48, 0
1, 51000, Note_on_c, 0, 60, 0
1, 51019, Note_on_c, 0, 48, 86
1, 51057, Note_on_c, 0, 36, 0
1, 51064, Note_on_c, 0, 63, 0
1, 51097, Note_on_c, 0, 70, 0
1, 51106, Note_on_c, 0, 48, 0
1, 51209, Note_on_c, 0, 62, 92
1, 51212, Note_on_c, 0, 50, 95
1, 51217, Note_on_c, 0, 65, 101
1, 51221, Note_on_c, 0, 38, 98
1, 51249, Control_c, 0, 64, 0
1, 51302, Note_on_c, 0, 50, 0
1, 51384, Control_c, 0, 64, 127
1, 51388, Note_on_c, 0, 62, 0
1, 51396, Note_on_c, 0, 50, 69
1, 51469, Note_on_c, 0, 65, 0
1, 51487, Note_on_c, 0, 50, 0
1, 51578, Note_on_c, 0, 50, 73
1, 51581, Note_on_c, 0, 70, 98
1, 51658, Note_on_c, 0, 50, 0
1, 51748, Note_on_c, 0, 50, 64
1, 51796, Note_on_c, 0, 70, 0
1, 51834, Note_on_c, 0, 50, 0
1, 51931, Note_on_c, 0, 50, 78
1, 51947, Note_on_c, 0, 70, 113
1, 52017, Note_on_c, 0, 50, 0
1, 52086, Note_on_c, 0, 70, 0
1, 52125, Note_on_c, 0, 50, 65
1, 52211, Note_on_c, 0, 50, 0
1, 52298, Note_on_c, 0, 50, 80
1, 52377, Note_on_c, 0, 50, 0
1, 52480, Note_on_c, 0, 50, 76
1, 52562, Note_on_c, 0, 50, 0
1, 52657, Note_on_c, 0, 50, 81
1, 52725, Note_on_c, 0, 50, 0
1, 52737, Note_on_c, 0, 38, 0
1, 52838, Note_on_c, 0, 46, 116
1, 52849, Note_on_c, 0, 65, 118
1, 52852, Note_on_c, 0, 70, 105
1, 52857, Note_on_c, 0, 62, 120
1, 52860, Note_on_c, 0, 34, 109
1, 52886, Control_c, 0, 64, 0
1, 52932, Note_on_c, 0, 46, 0
1, 53008, Control_c, 0, 64, 127
1, 53012, Note_on_c, 0, 46, 78
1, 53097, Note_on_c, 0, 46, 0
1, 53156, Note_on_c, 0, 62, 0
1, 53186, Note_on_c, 0, 46, 74
1, 53205, Note_on_c, 0, 65, 0
1, 53241, Note_on_c, 0, 70, 0
1, 53256, Note_on_c, 0, 34, 0
1, 53276, Note_on_c, 0, 46, 0
1, 53391, Note_on_c, 0, 48, 107
1, 53396, Note_on_c, 0, 36, 86
1, 53400, Note_on_c, 0, 70, 109
1, 53405, Note_on_c, 0, 63, 114
1, 53438, Control_c, 0, 64, 0
1, 53472, Note_on_c, 0, 48, 0
1, 53505, Note_on_c, 0, 36, 0
1, 53553, Control_c, 0, 64, 127
1, 53583, Note_on_c, 0, 36, 73
1, 53593, Note_on_c, 0, 48, 92
1, 53684, Note_on_c, 0, 48, 0
1, 53760, Note_on_c, 0, 63, 0
1, 53771, Note_on_c, 0, 48, 76
1, 53810, Note_on_c, 0, 70, 0
1, 53836, Note_on_c, 0, 36, 0
1, 53881, Note_on_c, 0, 48, 0
1, 53967, Note_on_c, 0, 70, 118
1, 53970, Note_on_c, 0, 62, 120
1, 53975, Control_c, 0, 64, 0
1, 53980, Note_on_c, 0, 50, 109
1, 53984, Note_on_c, 0, 38, 111
1, 54081, Note_on_c, 0, 50, 0
1, 54107, Control_c, 0, 64, 127
1, 54154, Note_on_c, 0, 62, 0
1, 54178, Note_on_c, 0, 70, 0
1, 54261, Note_on_c, 0, 50, 86
1, 54270, Note_on_c, 0, 69, 109
1, 54335, Note_on_c, 0, 50, 0
1, 54435, Note_on_c, 0, 50, 69
1, 54513, Note_on_c, 0, 50, 0
1, 54554, Note_on_c, 0, 69, 0
1, 54623, Note_on_c, 0, 50, 62
1, 54685, Note_on_c, 0, 50, 0
1, 54782, Note_on_c, 0, 62, 97
1, 54786, Note_on_c, 0, 50, 71
1, 54854, Note_on_c, 0, 62, 0
1, 54863, Note_on_c, 0, 50, 0
1, 54967, Note_on_c, 0, 62, 81
1, 54985, Note_on_c, 0, 50, 64
1, 55024, Note_on_c, 0, 50, 0
1, 55056, Note_on_c, 0, 62, 0
1, 55148, Note_on_c, 0, 65, 92
1, 55171, Note_on_c, 0, 50, 76
1, 55206, Note_on_c, 0, 50, 0
1, 55237, Note_on_c, 0, 65, 0
1, 55329, Note_on_c, 0, 67, 93
1, 55355, Note_on_c, 0, 50, 76
1, 55390, Note_on_c, 0, 50, 0
1, 55412, Note_on_c, 0, 67, 0
1, 55522, Note_on_c, 0, 50, 76
1, 55572, Note_on_c, 0, 50, 0
1, 55674, Note_on_c, 0, 58, 99
1, 55678, Note_on_c, 0, 63, 88
1, 55683, Note_on_c, 0, 50, 89
1, 55687, Note_on_c, 0, 67, 82
1, 55718, Control_c, 0, 64, 0
1, 55721, Note_on_c, 0, 38, 0
1, 55766, Note_on_c, 0, 50, 0
1, 55876, Note_on_c, 0, 51, 105
1, 55883, Note_on_c, 0, 39, 98
1, 55908, Control_c, 0, 64, 127
1, 55972, Note_on_c, 0, 51, 0
1, 55987, Note_on_c, 0, 58, 0
1, 56054, Note_on_c, 0, 51, 76
1, 56121, Note_on_c, 0, 63, 0
1, 56130, Note_on_c, 0, 51, 0
1, 56164, Note_on_c, 0, 67, 0
1, 56242, Note_on_c, 0, 51, 84
1, 56258, Note_on_c, 0, 62, 81
1, 56333, Note_on_c, 0, 51, 0
1, 56344, Note_on_c, 0, 62, 0
1, 56434, Note_on_c, 0, 62, 88
1, 56445, Note_on_c, 0, 51, 74
1, 56497, Note_on_c, 0, 39, 0
1, 56526, Note_on_c, 0, 51, 0
1, 56544, Note_on_c, 0, 62, 0
1, 56606, Control_c, 0, 64, 0
1, 56621, Note_on_c, 0, 65, 111
1, 56624, Note_on_c, 0, 53, 107
1, 56626, Note_on_c, 0, 41, 88
1, 56710, Note_on_c, 0, 53, 0
1, 56724, Control_c, 0, 64, 127
1, 56744, Note_on_c, 0, 41, 0
1, 56769, Note_on_c, 0, 65, 0
1, 56806, Note_on_c, 0, 53, 81
1, 56817, Note_on_c, 0, 41, 82
1, 56820, Note_on_c, 0, 67, 99
1, 56892, Note_on_c, 0, 53, 0
1, 57005, Note_on_c, 0, 53, 80
1, 57100, Note_on_c, 0, 41, 0
1, 57133, Note_on_c, 0, 67, 0
1, 57158, Note_on_c, 0, 70, 93
1, 57172, Note_on_c, 0, 41, 78
1, 57202, Note_on_c, 0, 53, 0
1, 57250, Note_on_c, 0, 41, 0
1, 57254, Note_on_c, 0, 70, 0
1, 57365, Note_on_c, 0, 67, 114
1, 57369, Note_on_c, 0, 62, 114
1, 57372, Note_on_c, 0, 43, 122
1, 57377, Note_on_c, 0, 31, 122
1, 57389, Control_c, 0, 64, 0
1, 57445, Note_on_c, 0, 43, 0
1, 57533, Control_c, 0, 64, 127
1, 57545, Note_on_c, 0, 62, 0
1, 57553, Note_on_c, 0, 43, 76
1, 57586, Note_on_c, 0, 67, 0
1, 57631, Note_on_c, 0, 43, 0
1, 57723, Note_on_c, 0, 43, 81
1, 57738, Note_on_c, 0, 67, 91
1, 57746, Note_on_c, 0, 70, 86
1, 57750, Note_on_c, 0, 62, 89
1, 57807, Note_on_c, 0, 43, 0
1, 57847, Note_on_c, 0, 62, 0
1, 57879, Note_on_c, 0, 70, 0
1, 57914, Note_on_c, 0, 43, 73
1, 57917, Note_on_c, 0, 67, 0
1, 57987, Note_on_c, 0, 43, 0
1, 58082, Note_on_c, 0, 43, 86
1, 58087, Note_on_c, 0, 65, 94
1, 58091, Note_on_c, 0, 69, 91
1, 58096, Note_on_c, 0, 60, 98
1, 58174, Note_on_c, 0, 43, 0
1, 58194, Note_on_c, 0, 60, 0
1, 58227, Note_on_c, 0, 65, 0
1, 58265, Note_on_c, 0, 43, 73
1, 58333, Note_on_c, 0, 69, 0
1, 58351, Note_on_c, 0, 43, 0
1, 58432, Note_on_c, 0, 43, 79
1, 58510, Note_on_c, 0, 43, 0
1, 58615, Note_on_c, 0, 43, 82
1, 58625, Note_on_c, 0, 67, 101
1, 58629, Note_on_c, 0, 70, 93
1, 58633, Note_on_c, 0, 62, 97
1, 58695, Note_on_c, 0, 43, 0
1, 58767, Note_on_c, 0, 62, 0
1, 58771, Note_on_c, 0, 70, 0
1, 58805, Note_on_c, 0, 67, 0
1, 58805, Note_on_c, 0, 43, 71
1, 58872, Note_on_c, 0, 43, 0
1, 58979, Note_on_c, 0, 43, 87
1, 58988, Note_on_c, 0, 67, 91
1, 58993, Note_on_c, 0, 70, 86
1, 58998, Note_on_c, 0, 62, 90
1, 59069, Note_on_c, 0, 43, 0
1, 59133, Note_on_c, 0, 62, 0
1, 59149, Note_on_c, 0, 70, 0
1, 59169, Note_on_c, 0, 43, 81
1, 59184, Note_on_c, 0, 67, 0
1, 59250, Note_on_c, 0, 43, 0
1, 59364, Note_on_c, 0, 69, 95
1, 59367, Note_on_c, 0, 43, 83
1, 59372, Note_on_c, 0, 60, 101
1, 59376, Note_on_c, 0, 65, 85
1, 59435, Note_on_c, 0, 31, 0
1, 59437, Note_on_c, 0, 43, 0
1, 59480, Note_on_c, 0, 60, 0
1, 59506, Note_on_c, 0, 65, 0
1, 59530, Note_on_c, 0, 31, 15
1, 59534, Note_on_c, 0, 43, 91
1, 59555, Note_on_c, 0, 69, 0
1, 59602, Note_on_c, 0, 31, 0
1, 59626, Note_on_c, 0, 43, 0
1, 59730, Note_on_c, 0, 38, 104
1, 59914, Note_on_c, 0, 40, 76
1, 59922, Note_on_c, 0, 38, 0
1, 59961, Note_on_c, 0, 40, 0
1, 60055, Note_on_c, 0, 41, 99
1, 60137, Note_on_c, 0, 41, 0
1, 60242, Note_on_c, 0, 43, 123
1, 60251, Note_on_c, 0, 31, 114
1, 60295, Control_c, 0, 64, 0
1, 60338, Note_on_c, 0, 43, 0
1, 60412, Note_on_c, 0, 43, 88
1, 60439, Control_c, 0, 64, 127
1, 60500, Note_on_c, 0, 43, 0
1, 60600, Note_on_c, 0, 43, 86
1, 60627, Note_on_c, 0, 70, 101
1, 60631, Note_on_c, 0, 62, 105
1, 60635, Note_on_c, 0, 67, 93
1, 60694, Note_on_c, 0, 43, 0
1, 60715, Note_on_c, 0, 62, 0
1, 60773, Note_on_c, 0, 70, 0
1, 60790, Note_on_c, 0, 43, 68
1, 60798, Note_on_c, 0, 67, 0
1, 60872, Note_on_c, 0, 43, 0
1, 60965, Note_on_c, 0, 43, 83
1, 60976, Note_on_c, 0, 69, 94
1, 60982, Note_on_c, 0, 65, 88
1, 60986, Note_on_c, 0, 60, 98
1, 61043, Note_on_c, 0, 43, 0
1, 61067, Note_on_c, 0, 60, 0
1, 61114, Note_on_c, 0, 65, 0
1, 61166, Note_on_c, 0, 43, 72
1, 61170, Note_on_c, 0, 69, 0
1, 61215, Note_on_c, 0, 43, 0
1, 61334, Note_on_c, 0, 43, 76
1, 61397, Note_on_c, 0, 43, 0
1, 61511, Note_on_c, 0, 43, 85
1, 61527, Note_on_c, 0, 70, 94
1, 61532, Note_on_c, 0, 67, 89
1, 61536, Note_on_c, 0, 62, 95
1, 61591, Note_on_c, 0, 43, 0
1, 61631, Note_on_c, 0, 62, 0
1, 61661, Note_on_c, 0, 70, 0
1, 61683, Note_on_c, 0, 67, 0
1, 61701, Note_on_c, 0, 43, 74
1, 61774, Note_on_c, 0, 43, 0
1, 61879, Note_on_c, 0, 43, 88
1, 61895, Note_on_c, 0, 70, 88
1, 61904, Note_on_c, 0, 67, 89
1, 61912, Note_on_c, 0, 62, 85
1, 61964, Note_on_c, 0, 43, 0
1, 62041, Note_on_c, 0, 62, 0
1, 62058, Note_on_c, 0, 43, 82
1, 62061, Note_on_c, 0, 70, 0
1, 62080, Note_on_c, 0, 67, 0
1, 62133, Note_on_c, 0, 43, 0
1, 62247, Note_on_c, 0, 43, 97
1, 62277, Note_on_c, 0, 69, 97
1, 62281, Note_on_c, 0, 60, 95
1, 62285, Note_on_c, 0, 65, 88
1, 62324, Note_on_c, 0, 43, 0
1, 62436, Note_on_c, 0, 43, 83
1, 62462, Note_on_c, 0, 60, 0
1, 62506, Note_on_c, 0, 31, 0
1, 62510, Note_on_c, 0, 65, 0
1, 62542, Note_on_c, 0, 43, 0
1, 62630, Note_on_c, 0, 38, 88
1, 62726, Note_on_c, 0, 38, 0
1, 62757, Note_on_c, 0, 69, 0
1, 62801, Note_on_c, 0, 38, 62
1, 62839, Note_on_c, 0, 41, 88
1, 62863, Note_on_c, 0, 38, 0
1, 62913, Note_on_c, 0, 41, 0
1, 63012, Note_on_c, 0, 43, 81
1, 63092, Note_on_c, 0, 43, 0
1, 63280, Note_on_c, 0, 33, 111
1, 63293, Note_on_c, 0, 69, 101
1, 63305, Note_on_c, 0, 45, 99
1, 63328, Control_c, 0, 64, 0
1, 63409, Note_on_c, 0, 45, 0
1, 63415, Note_on_c, 0, 33, 0
1, 63450, Control_c, 0, 64, 127
1, 63465, Note_on_c, 0, 76, 87
1, 63491, Note_on_c, 0, 69, 0
1, 63651, Note_on_c, 0, 52, 95
1, 63654, Note_on_c, 0, 76, 0
1, 63656, Note_on_c, 0, 81, 99
1, 63660, Note_on_c, 0, 57, 76
1, 63664, Note_on_c, 0, 60, 81
1, 63691, Note_on_c, 0, 57, 0
1, 63694, Note_on_c, 0, 60, 0
1, 63736, Note_on_c, 0, 52, 0
1, 63819, Note_on_c, 0, 76, 83
1, 63859, Note_on_c, 0, 81, 0
1, 63971, Note_on_c, 0, 76, 0
1, 63998, Note_on_c, 0, 50, 88
1, 64007, Note_on_c, 0, 55, 75
1, 64010, Note_on_c, 0, 59, 78
1, 64015, Note_on_c, 0, 69, 78
1, 64053, Note_on_c, 0, 59, 0
1, 64078, Note_on_c, 0, 55, 0
1, 64113, Note_on_c, 0, 50, 0
1, 64132, Note_on_c, 0, 69, 0
1, 64184, Note_on_c, 0, 76, 79
1, 64360, Note_on_c, 0, 81, 80
1, 64364, Note_on_c, 0, 76, 0
1, 64519, Note_on_c, 0, 81, 0
1, 64542, Note_on_c, 0, 52, 89
1, 64545, Note_on_c, 0, 60, 88
1, 64550, Note_on_c, 0, 57, 81
1, 64554, Note_on_c, 0, 76, 93
1, 64617, Note_on_c, 0, 57, 0
1, 64618, Note_on_c, 0, 60, 0
1, 64642, Note_on_c, 0, 52, 0
1, 64690, Note_on_c, 0, 76, 0
1, 64727, Note_on_c, 0, 69, 71
1, 64848, Note_on_c, 0, 69, 0
1, 64910, Note_on_c, 0, 76, 92
1, 64920, Note_on_c, 0, 60, 82
1, 64923, Note_on_c, 0, 52, 86
1, 64926, Note_on_c, 0, 57, 78
1, 64993, Note_on_c, 0, 60, 0
1, 64998, Note_on_c, 0, 57, 0
1, 65020, Note_on_c, 0, 52, 0
1, 65059, Note_on_c, 0, 76, 0
1, 65090, Note_on_c, 0, 81, 87
1, 65238, Note_on_c, 0, 50, 93
1, 65244, Note_on_c, 0, 59, 84
1, 65248, Note_on_c, 0, 55, 80
1, 65272, Note_on_c, 0, 76, 89
1, 65301, Note_on_c, 0, 55, 0
1, 65303, Note_on_c, 0, 59, 0
1, 65309, Note_on_c, 0, 81, 0
1, 65332, Note_on_c, 0, 50, 0
1, 65425, Note_on_c, 0, 76, 0
1, 65447, Note_on_c, 0, 69, 73
1, 65560, Note_on_c, 0, 69, 0
1, 65624, Note_on_c, 0, 76, 80
1, 65764, Note_on_c, 0, 76, 0
1, 65770, Note_on_c, 0, 59, 83
1, 65779, Note_on_c, 0, 50, 78
1, 65789, Note_on_c, 0, 55, 72
1, 65797, Note_on_c, 0, 81, 94
1, 65819, Note_on_c, 0, 55, 0
1, 65842, Note_on_c, 0, 59, 0
1, 65874, Note_on_c, 0, 50, 0
1, 65946, Note_on_c, 0, 81, 0
1, 65959, Note_on_c, 0, 76, 88
1, 66121, Note_on_c, 0, 76, 0
1, 66129, Control_c, 0, 64, 0
1, 66140, Note_on_c, 0, 69, 81
1, 66144, Note_on_c, 0, 45, 114
1, 66148, Note_on_c, 0, 33, 109
1, 66229, Note_on_c, 0, 33, 0
1, 66235, Control_c, 0, 64, 127
1, 66291, Note_on_c, 0, 45, 0
1, 66327, Note_on_c, 0, 69, 0
1, 66329, Note_on_c, 0, 76, 85
1, 66493, Note_on_c, 0, 76, 0
1, 66494, Note_on_c, 0, 52, 78
1, 66503, Note_on_c, 0, 57, 68
1, 66508, Note_on_c, 0, 60, 61
1, 66512, Note_on_c, 0, 81, 86
1, 66539, Note_on_c, 0, 60, 0
1, 66541, Note_on_c, 0, 57, 0
1, 66553, Note_on_c, 0, 52, 0
1, 66699, Note_on_c, 0, 76, 74
1, 66724, Note_on_c, 0, 81, 0
1, 66846, Note_on_c, 0, 76, 0
1, 66868, Note_on_c, 0, 50, 76
1, 66872, Note_on_c, 0, 55, 76
1, 66876, Note_on_c, 0, 69, 76
1, 66881, Note_on_c, 0, 59, 67
1, 66907, Note_on_c, 0, 50, 0
1, 66913, Note_on_c, 0, 59, 0
1, 66932, Note_on_c, 0, 55, 0
1, 67005, Note_on_c, 0, 69, 0
1, 67047, Note_on_c, 0, 76, 79
1, 67190, Note_on_c, 0, 76, 0
1, 67223, Note_on_c, 0, 81, 67
1, 67397, Note_on_c, 0, 76, 85
1, 67419, Note_on_c, 0, 52, 86
1, 67422, Note_on_c, 0, 57, 86
1, 67426, Note_on_c, 0, 60, 86
1, 67430, Note_on_c, 0, 81, 0
1, 67472, Note_on_c, 0, 60, 0
1, 67475, Note_on_c, 0, 52, 0
1, 67498, Note_on_c, 0, 57, 0
1, 67553, Note_on_c, 0, 76, 0
1, 67587, Note_on_c, 0, 69, 69
1, 67708, Note_on_c, 0, 69, 0
1, 67762, Note_on_c, 0, 76, 86
1, 67803, Note_on_c, 0, 57, 76
1, 67806, Note_on_c, 0, 52, 76
1, 67810, Note_on_c, 0, 60, 79
1, 67847, Note_on_c, 0, 60, 0
1, 67873, Note_on_c, 0, 57, 0
1, 67893, Note_on_c, 0, 52, 0
1, 67914, Note_on_c, 0, 76, 0
1, 67950, Note_on_c, 0, 81, 83
1, 68131, Note_on_c, 0, 55, 87
1, 68134, Note_on_c, 0, 59, 90
1, 68139, Note_on_c, 0, 76, 92
1, 68143, Note_on_c, 0, 50, 76
1, 68184, Note_on_c, 0, 81, 0
1, 68196, Note_on_c, 0, 59, 0
1, 68219, Note_on_c, 0, 50, 0
1, 68220, Note_on_c, 0, 55, 0
1, 68292, Note_on_c, 0, 76, 0
1, 68316, Note_on_c, 0, 69, 74
1, 68432, Note_on_c, 0, 69, 0
1, 68481, Note_on_c, 0, 76, 79
1, 68642, Note_on_c, 0, 76, 0
1, 68657, Note_on_c, 0, 81, 80
1, 68661, Note_on_c, 0, 59, 70
1, 68665, Note_on_c, 0, 50, 66
1, 68681, Note_on_c, 0, 55, 66
1, 68712, Note_on_c, 0, 55, 0
1, 68736, Note_on_c, 0, 59, 0
1, 68788, Note_on_c, 0, 50, 0
1, 68820, Note_on_c, 0, 76, 72
1, 68830, Note_on_c, 0, 81, 0
1, 68851, Note_on_c, 0, 76, 0
1, 68979, Note_on_c, 0, 39, 111
1, 68986, Note_on_c, 0, 27, 113
1, 69028, Note_on_c, 0, 63, 104
1, 69083, Control_c, 0, 64, 0
1, 69153, Control_c, 0, 64, 127
1, 69166, Note_on_c, 0, 63, 0
1, 69217, Note_on_c, 0, 65, 71
1, 69277, Note_on_c, 0, 27, 0
1, 69302, Note_on_c, 0, 39, 0
1, 69370, Note_on_c, 0, 67, 73
1, 69381, Note_on_c, 0, 65, 0
1, 69461, Note_on_c, 0, 67, 0
1, 69537, Note_on_c, 0, 41, 111
1, 69540, Note_on_c, 0, 29, 114
1, 69554, Note_on_c, 0, 65, 113
1, 69558, Control_c, 0, 64, 0
1, 69678, Note_on_c, 0, 65, 0
1, 69693, Control_c, 0, 64, 127
1, 69766, Note_on_c, 0, 67, 95
1, 69886, Note_on_c, 0, 67, 0
1, 69976, Note_on_c, 0, 69, 107
1, 70138, Note_on_c, 0, 69, 0
1, 70393, Note_on_c, 0, 29, 0
1, 70412, Note_on_c, 0, 41, 0
1, 70629, Control_c, 0, 64, 0
1, 70656, Note_on_c, 0, 43, 118
1, 70659, Note_on_c, 0, 31, 116
1, 70663, Note_on_c, 0, 70, 101
1, 70667, Note_on_c, 0, 67, 113
1, 70671, Note_on_c, 0, 62, 104
1, 70731, Note_on_c, 0, 62, 0
1, 70734, Note_on_c, 0, 67, 0
1, 70737, Note_on_c, 0, 70, 0
1, 70785, Control_c, 0, 64, 127
1, 70836, Note_on_c, 0, 62, 70
1, 70840, Note_on_c, 0, 70, 56
1, 70844, Note_on_c, 0, 67, 62
1, 70912, Note_on_c, 0, 62, 0
1, 70928, Note_on_c, 0, 70, 0
1, 70930, Note_on_c, 0, 67, 0
1, 71019, Note_on_c, 0, 62, 57
1, 71028, Note_on_c, 0, 70, 56
1, 71031, Note_on_c, 0, 67, 60
1, 71057, Note_on_c, 0, 62, 0
1, 71068, Note_on_c, 0, 70, 0
1, 71071, Note_on_c, 0, 67, 0
1, 71202, Note_on_c, 0, 70, 60
1, 71206, Note_on_c, 0, 67, 59
1, 71228, Note_on_c, 0, 62, 45
1, 71237, Note_on_c, 0, 70, 0
1, 71252, Note_on_c, 0, 67, 0
1, 71265, Note_on_c, 0, 62, 0
1, 71374, Note_on_c, 0, 70, 93
1, 71382, Note_on_c, 0, 67, 90
1, 71385, Note_on_c, 0, 62, 88
1, 71452, Note_on_c, 0, 67, 0
1, 71458, Note_on_c, 0, 70, 0
1, 71462, Note_on_c, 0, 62, 0
1, 71559, Note_on_c, 0, 70, 61
1, 71567, Note_on_c, 0, 62, 62
1, 71587, Note_on_c, 0, 67, 43
1, 71609, Note_on_c, 0, 62, 0
1, 71630, Note_on_c, 0, 67, 0
1, 71645, Note_on_c, 0, 70, 0
1, 71727, Note_on_c, 0, 70, 67
1, 71749, Note_on_c, 0, 67, 48
1, 71764, Note_on_c, 0, 62, 47
1, 71783, Note_on_c, 0, 70, 0
1, 71791, Note_on_c, 0, 67, 0
1, 71799, Note_on_c, 0, 62, 0
1, 71926, Note_on_c, 0, 69, 80
1, 71930, Note_on_c, 0, 60, 80
1, 71934, Note_on_c, 0, 65, 76
1, 71962, Note_on_c, 0, 60, 0
1, 71973, Note_on_c, 0, 65, 0
1, 71985, Note_on_c, 0, 69, 0
1, 72100, Note_on_c, 0, 69, 95
1, 72103, Note_on_c, 0, 60, 98
1, 72107, Note_on_c, 0, 65, 88
1, 72170, Note_on_c, 0, 60, 0
1, 72178, Note_on_c, 0, 65, 0
1, 72212, Note_on_c, 0, 69, 0
1, 72281, Note_on_c, 0, 60, 60
1, 72297, Note_on_c, 0, 69, 64
1, 72300, Note_on_c, 0, 65, 43
1, 72341, Note_on_c, 0, 60, 0
1, 72343, Note_on_c, 0, 65, 0
1, 72346, Note_on_c, 0, 69, 0
1, 72415, Note_on_c, 0, 31, 0
1, 72465, Note_on_c, 0, 60, 67
1, 72473, Note_on_c, 0, 69, 57
1, 72482, Note_on_c, 0, 65, 51
1, 72508, Note_on_c, 0, 60, 0
1, 72521, Note_on_c, 0, 65, 0
1, 72523, Note_on_c, 0, 69, 0
1, 72647, Note_on_c, 0, 69, 61
1, 72650, Note_on_c, 0, 60, 67
1, 72663, Note_on_c, 0, 65, 52
1, 72667, Note_on_c, 0, 43, 0
1, 72695, Note_on_c, 0, 60, 0
1, 72701, Note_on_c, 0, 65, 0
1, 72703, Note_on_c, 0, 69, 0
1, 72832, Note_on_c, 0, 60, 75
1, 72835, Note_on_c, 0, 69, 65
1, 72841, Note_on_c, 0, 65, 67
1, 72889, Note_on_c, 0, 65, 0
1, 72904, Note_on_c, 0, 60, 0
1, 72907, Note_on_c, 0, 69, 0
1, 73003, Note_on_c, 0, 38, 104
1, 73016, Note_on_c, 0, 60, 97
1, 73019, Note_on_c, 0, 69, 82
1, 73024, Note_on_c, 0, 65, 87
1, 73089, Note_on_c, 0, 65, 0
1, 73092, Note_on_c, 0, 38, 0
1, 73094, Note_on_c, 0, 69, 0
1, 73097, Note_on_c, 0, 60, 0
1, 73166, Note_on_c, 0, 41, 91
1, 73184, Note_on_c, 0, 65, 81
1, 73191, Note_on_c, 0, 60, 79
1, 73198, Note_on_c, 0, 69, 65
1, 73225, Note_on_c, 0, 60, 0
1, 73246, Note_on_c, 0, 41, 0
1, 73273, Note_on_c, 0, 65, 0
1, 73276, Note_on_c, 0, 69, 0
1, 73354, Note_on_c, 0, 31, 113
1, 73358, Note_on_c, 0, 43, 114
1, 73366, Note_on_c, 0, 70, 102
1, 73377, Note_on_c, 0, 62, 105
1, 73380, Note_on_c, 0, 67, 97
1, 73385, Control_c, 0, 64, 0
1, 73449, Note_on_c, 0, 62, 0
1, 73476, Note_on_c, 0, 67, 0
1, 73483, Note_on_c, 0, 70, 0
1, 73522, Control_c, 0, 64, 127
1, 73555, Note_on_c, 0, 70, 67
1, 73564, Note_on_c, 0, 67, 65
1, 73567, Note_on_c, 0, 62, 67
1, 73631, Note_on_c, 0, 62, 0
1, 73651, Note_on_c, 0, 70, 0
1, 73654, Note_on_c, 0, 67, 0
1, 73742, Note_on_c, 0, 70, 58
1, 73745, Note_on_c, 0, 67, 60
1, 73753, Note_on_c, 0, 62, 62
1, 73789, Note_on_c, 0, 62, 0
1, 73799, Note_on_c, 0, 70, 0
1, 73820, Note_on_c, 0, 67, 0
1, 73927, Note_on_c, 0, 70, 67
1, 73931, Note_on_c, 0, 67, 60
1, 73942, Note_on_c, 0, 62, 68
1, 73976, Note_on_c, 0, 62, 0
1, 74001, Note_on_c, 0, 70, 0
1, 74010, Note_on_c, 0, 67, 0
1, 74109, Note_on_c, 0, 70, 74
1, 74118, Note_on_c, 0, 67, 64
1, 74130, Note_on_c, 0, 62, 76
1, 74161, Note_on_c, 0, 62, 0
1, 74198, Note_on_c, 0, 70, 0
1, 74204, Note_on_c, 0, 67, 0
1, 74283, Note_on_c, 0, 70, 93
1, 74291, Note_on_c, 0, 67, 91
1, 74294, Note_on_c, 0, 62, 104
1, 74362, Note_on_c, 0, 62, 0
1, 74389, Note_on_c, 0, 67, 0
1, 74398, Note_on_c, 0, 70, 0
1, 74478, Note_on_c, 0, 70, 64
1, 74503, Note_on_c, 0, 62, 60
1, 74514, Note_on_c, 0, 67, 42
1, 74535, Note_on_c, 0, 62, 0
1, 74559, Note_on_c, 0, 67, 0
1, 74579, Note_on_c, 0, 70, 0
1, 74650, Note_on_c, 0, 70, 80
1, 74673, Note_on_c, 0, 62, 70
1, 74694, Note_on_c, 0, 67, 43
1, 74706, Note_on_c, 0, 62, 0
1, 74741, Note_on_c, 0, 70, 0
1, 74743, Note_on_c, 0, 67, 0
1, 74836, Note_on_c, 0, 69, 83
1, 74845, Note_on_c, 0, 65, 81
1, 74849, Note_on_c, 0, 60, 79
1, 74882, Note_on_c, 0, 60, 0
1, 74913, Note_on_c, 0, 65, 0
1, 74916, Note_on_c, 0, 69, 0
1, 75014, Note_on_c, 0, 69, 99
1, 75018, Note_on_c, 0, 65, 93
1, 75022, Note_on_c, 0, 60, 114
1, 75089, Note_on_c, 0, 60, 0
1, 75115, Note_on_c, 0, 65, 0
1, 75127, Note_on_c, 0, 69, 0
1, 75219, Note_on_c, 0, 60, 46
1, 75223, Note_on_c, 0, 69, 55
1, 75227, Note_on_c, 0, 65, 56
1, 75263, Note_on_c, 0, 60, 0
1, 75266, Note_on_c, 0, 69, 0
1, 75268, Note_on_c, 0, 65, 0
1, 75371, Note_on_c, 0, 60, 61
1, 75374, Note_on_c, 0, 69, 58
1, 75379, Note_on_c, 0, 65, 53
1, 75384, Note_on_c, 0, 31, 0
1, 75417, Note_on_c, 0, 60, 0
1, 75428, Note_on_c, 0, 69, 0
1, 75432, Note_on_c, 0, 65, 0
1, 75502, Note_on_c, 0, 43, 0
1, 75566, Note_on_c, 0, 69, 56
1, 75570, Note_on_c, 0, 60, 60
1, 75577, Note_on_c, 0, 65, 51
1, 75605, Note_on_c, 0, 60, 0
1, 75611, Note_on_c, 0, 69, 0
1, 75615, Note_on_c, 0, 65, 0
1, 75746, Note_on_c, 0, 60, 83
1, 75751, Note_on_c, 0, 69, 73
1, 75764, Note_on_c, 0, 65, 57
1, 75796, Note_on_c, 0, 65, 0
1, 75798, Note_on_c, 0, 60, 0
1, 75818, Note_on_c, 0, 69, 0
1, 75914, Note_on_c, 0, 38, 89
1, 75934, Note_on_c, 0, 60, 90
1, 75938, Note_on_c, 0, 69, 76
1, 75941, Note_on_c, 0, 65, 77
1, 75968, Note_on_c, 0, 60, 0
1, 75979, Note_on_c, 0, 65, 0
1, 76004, Note_on_c, 0, 69, 0
1, 76093, Note_on_c, 0, 41, 82
1, 76102, Note_on_c, 0, 65, 86
1, 76110, Note_on_c, 0, 60, 88
1, 76113, Note_on_c, 0, 69, 60
1, 76123, Note_on_c, 0, 38, 0
1, 76139, Note_on_c, 0, 60, 0
1, 76154, Note_on_c, 0, 69, 0
1, 76178, Note_on_c, 0, 65, 0
1, 76183, Note_on_c, 0, 41, 0
1, 76273, Note_on_c, 0, 43, 109
1, 76278, Note_on_c, 0, 31, 107
1, 76282, Note_on_c, 0, 70, 101
1, 76290, Note_on_c, 0, 62, 105
1, 76293, Note_on_c, 0, 67, 97
1, 76298, Control_c, 0, 64, 0
1, 76461, Control_c, 0, 64, 127
1, 76472, Note_on_c, 0, 43, 0
1, 76475, Note_on_c, 0, 62, 0
1, 76476, Note_on_c, 0, 67, 0
1, 76509, Note_on_c, 0, 70, 0
1, 76650, Note_on_c, 0, 43, 76
1, 76667, Note_on_c, 0, 74, 79
1, 76699, Note_on_c, 0, 74, 0
1, 76731, Note_on_c, 0, 43, 0
1, 76833, Note_on_c, 0, 43, 71
1, 76836, Note_on_c, 0, 74, 92
1, 76904, Note_on_c, 0, 43, 0
1, 76913, Note_on_c, 0, 74, 0
1, 77012, Note_on_c, 0, 74, 89
1, 77021, Note_on_c, 0, 43, 68
1, 77061, Note_on_c, 0, 43, 0
1, 77095, Note_on_c, 0, 74, 0
1, 77192, Note_on_c, 0, 74, 93
1, 77199, Note_on_c, 0, 43, 90
1, 77204, Note_on_c, 0, 70, 94
1, 77208, Note_on_c, 0, 67, 97
1, 77278, Note_on_c, 0, 43, 0
1, 77384, Note_on_c, 0, 43, 71
1, 77453, Note_on_c, 0, 43, 0
1, 77475, Note_on_c, 0, 70, 0
1, 77493, Note_on_c, 0, 67, 0
1, 77528, Note_on_c, 0, 74, 0
1, 77564, Note_on_c, 0, 43, 69
1, 77601, Note_on_c, 0, 43, 0
1, 77727, Note_on_c, 0, 70, 76
1, 77737, Note_on_c, 0, 74, 63
1, 77740, Note_on_c, 0, 43, 68
1, 77749, Note_on_c, 0, 67, 50
1, 77769, Note_on_c, 0, 74, 0
1, 77771, Note_on_c, 0, 43, 0
1, 77786, Note_on_c, 0, 70, 0
1, 77788, Note_on_c, 0, 67, 0
1, 77794, Note_on_c, 0, 31, 0
1, 77909, Note_on_c, 0, 29, 101
1, 77912, Note_on_c, 0, 41, 92
1, 77922, Note_on_c, 0, 69, 104
1, 77925, Note_on_c, 0, 72, 101
1, 77930, Note_on_c, 0, 65, 93
1, 77939, Control_c, 0, 64, 0
1, 77985, Note_on_c, 0, 41, 0
1, 78071, Control_c, 0, 64, 127
1, 78102, Note_on_c, 0, 65, 0
1, 78116, Note_on_c, 0, 41, 56
1, 78125, Note_on_c, 0, 69, 0
1, 78126, Note_on_c, 0, 72, 0
1, 78159, Note_on_c, 0, 41, 0
1, 78281, Note_on_c, 0, 69, 88
1, 78291, Note_on_c, 0, 41, 64
1, 78335, Note_on_c, 0, 41, 0
1, 78356, Note_on_c, 0, 69, 0
1, 78467, Note_on_c, 0, 65, 107
1, 78477, Note_on_c, 0, 41, 69
1, 78513, Note_on_c, 0, 41, 0
1, 78614, Note_on_c, 0, 65, 0
1, 78655, Note_on_c, 0, 41, 72
1, 78694, Note_on_c, 0, 41, 0
1, 78848, Note_on_c, 0, 41, 64
1, 78881, Note_on_c, 0, 41, 0
1, 79015, Note_on_c, 0, 41, 67
1, 79051, Note_on_c, 0, 41, 0
1, 79198, Note_on_c, 0, 41, 77
1, 79207, Note_on_c, 0, 65, 76
1, 79210, Note_on_c, 0, 29, 0
1, 79242, Note_on_c, 0, 41, 0
1, 79276, Note_on_c, 0, 65, 0
1, 79370, Control_c, 0, 64, 0
1, 79375, Note_on_c, 0, 43, 105
1, 79377, Note_on_c, 0, 31, 109
1, 79381, Note_on_c, 0, 67, 111
1, 79388, Note_on_c, 0, 70, 101
1, 79391, Note_on_c, 0, 74, 109
1, 79443, Note_on_c, 0, 43, 0
1, 79490, Control_c, 0, 64, 127
1, 79555, Note_on_c, 0, 67, 0
1, 79557, Note_on_c, 0, 74, 0
1, 79562, Note_on_c, 0, 43, 77
1, 79565, Note_on_c, 0, 70, 0
1, 79605, Note_on_c, 0, 43, 0
1, 79752, Note_on_c, 0, 43, 85
1, 79766, Note_on_c, 0, 74, 104
1, 79770, Note_on_c, 0, 67, 95
1, 79774, Note_on_c, 0, 70, 90
1, 79832, Note_on_c, 0, 43, 0
1, 79861, Note_on_c, 0, 67, 0
1, 79874, Note_on_c, 0, 70, 0
1, 79889, Note_on_c, 0, 74, 0
1, 79942, Note_on_c, 0, 43, 65
1, 79977, Note_on_c, 0, 43, 0
1, 80124, Note_on_c, 0, 43, 74
1, 80127, Note_on_c, 0, 72, 89
1, 80157, Note_on_c, 0, 43, 0
1, 80206, Note_on_c, 0, 72, 0
1, 80291, Note_on_c, 0, 43, 77
1, 80316, Note_on_c, 0, 70, 94
1, 80338, Note_on_c, 0, 43, 0
1, 80392, Note_on_c, 0, 70, 0
1, 80468, Note_on_c, 0, 43, 85
1, 80515, Note_on_c, 0, 72, 104
1, 80542, Note_on_c, 0, 43, 0
1, 80642, Note_on_c, 0, 43, 83
1, 80696, Note_on_c, 0, 43, 0
1, 80712, Note_on_c, 0, 72, 0
1, 80758, Note_on_c, 0, 31, 0
1, 80837, Note_on_c, 0, 41, 88
1, 80845, Note_on_c, 0, 65, 85
1, 80848, Note_on_c, 0, 72, 94
1, 80853, Note_on_c, 0, 29, 80
1, 80862, Note_on_c, 0, 69, 77
1, 80874, Control_c, 0, 64, 0
1, 80914, Note_on_c, 0, 41, 0
1, 80973, Control_c, 0, 64, 127
1, 81028, Note_on_c, 0, 41, 65
1, 81043, Note_on_c, 0, 65, 0
1, 81063, Note_on_c, 0, 41, 0
1, 81079, Note_on_c, 0, 69, 0
1, 81122, Note_on_c, 0, 72, 0
1, 81182, Note_on_c, 0, 41, 73
1, 81237, Note_on_c, 0, 41, 0
1, 81359, Note_on_c, 0, 41, 92
1, 81397, Note_on_c, 0, 65, 101
1, 81401, Note_on_c, 0, 72, 107
1, 81404, Note_on_c, 0, 69, 101
1, 81438, Note_on_c, 0, 41, 0
1, 81533, Note_on_c, 0, 41, 68
1, 81557, Note_on_c, 0, 29, 0
1, 81573, Note_on_c, 0, 65, 0
1, 81581, Note_on_c, 0, 41, 0
1, 81586, Note_on_c, 0, 69, 0
1, 81612, Note_on_c, 0, 72, 0
1, 81730, Note_on_c, 0, 46, 111
1, 81734, Note_on_c, 0, 34, 99
1, 81750, Control_c, 0, 64, 0
1, 81754, Note_on_c, 0, 70, 102
1, 81757, Note_on_c, 0, 67, 109
1, 81761, Note_on_c, 0, 74, 105
1, 81795, Note_on_c, 0, 46, 0
1, 81853, Control_c, 0, 64, 127
1, 81907, Note_on_c, 0, 46, 68
1, 81971, Note_on_c, 0, 34, 0
1, 81976, Note_on_c, 0, 67, 0
1, 81989, Note_on_c, 0, 74, 0
1, 81994, Note_on_c, 0, 70, 0
1, 82002, Note_on_c, 0, 46, 0
1, 82112, Note_on_c, 0, 51, 102
1, 82115, Note_on_c, 0, 75, 107
1, 82119, Note_on_c, 0, 39, 99
1, 82124, Note_on_c, 0, 70, 105
1, 82128, Note_on_c, 0, 67, 105
1, 82133, Control_c, 0, 64, 0
1, 82276, Control_c, 0, 64, 127
1, 82323, Note_on_c, 0, 51, 0
1, 82337, Note_on_c, 0, 67, 0
1, 82359, Note_on_c, 0, 70, 0
1, 82383, Note_on_c, 0, 75, 0
1, 82480, Note_on_c, 0, 75, 65
1, 82483, Note_on_c, 0, 51, 55
1, 82516, Note_on_c, 0, 51, 0
1, 82560, Note_on_c, 0, 75, 0
1, 82657, Note_on_c, 0, 51, 67
1, 82666, Note_on_c, 0, 75, 74
1, 82691, Note_on_c, 0, 51, 0
1, 82742, Note_on_c, 0, 75, 0
1, 82838, Note_on_c, 0, 51, 70
1, 82842, Note_on_c, 0, 75, 82
1, 82870, Note_on_c, 0, 51, 0
1, 82926, Note_on_c, 0, 75, 0
1, 83015, Note_on_c, 0, 51, 93
1, 83029, Note_on_c, 0, 75, 92
1, 83034, Note_on_c, 0, 70, 93
1, 83041, Note_on_c, 0, 67, 91
1, 83084, Note_on_c, 0, 51, 0
1, 83202, Note_on_c, 0, 51, 68
1, 83244, Note_on_c, 0, 51, 0
1, 83312, Note_on_c, 0, 70, 0
1, 83331, Note_on_c, 0, 67, 0
1, 83374, Note_on_c, 0, 51, 73
1, 83394, Note_on_c, 0, 75, 0
1, 83408, Note_on_c, 0, 51, 0
1, 83536, Note_on_c, 0, 51, 76
1, 83560, Note_on_c, 0, 70, 73
1, 83571, Note_on_c, 0, 51, 0
1, 83588, Note_on_c, 0, 75, 44
1, 83597, Note_on_c, 0, 70, 0
1, 83630, Note_on_c, 0, 75, 0
1, 83635, Note_on_c, 0, 39, 0
1, 83730, Note_on_c, 0, 46, 95
1, 83739, Note_on_c, 0, 70, 93
1, 83743, Note_on_c, 0, 34, 97
1, 83747, Note_on_c, 0, 74, 104
1, 83751, Note_on_c, 0, 65, 94
1, 83776, Control_c, 0, 64, 0
1, 83816, Note_on_c, 0, 46, 0
1, 83888, Control_c, 0, 64, 127
1, 83933, Note_on_c, 0, 46, 62
1, 83944, Note_on_c, 0, 65, 0
1, 83965, Note_on_c, 0, 70, 0
1, 83971, Note_on_c, 0, 46, 0
1, 84032, Note_on_c, 0, 74, 0
1, 84092, Note_on_c, 0, 72, 78
1, 84110, Note_on_c, 0, 46, 79
1, 84153, Note_on_c, 0, 46, 0
1, 84167, Note_on_c, 0, 72, 0
1, 84292, Note_on_c, 0, 46, 89
1, 84295, Note_on_c, 0, 62, 104
1, 84298, Note_on_c, 0, 65, 99
1, 84303, Note_on_c, 0, 70, 93
1, 84372, Note_on_c, 0, 46, 0
1, 84402, Note_on_c, 0, 62, 0
1, 84420, Note_on_c, 0, 65, 0
1, 84475, Note_on_c, 0, 46, 67
1, 84483, Note_on_c, 0, 70, 0
1, 84527, Note_on_c, 0, 46, 0
1, 84663, Note_on_c, 0, 46, 66
1, 84698, Note_on_c, 0, 46, 0
1, 84995, Note_on_c, 0, 46, 64
1, 85027, Note_on_c, 0, 70, 77
1, 85040, Note_on_c, 0, 34, 0
1, 85045, Note_on_c, 0, 46, 0
1, 85077, Note_on_c, 0, 70, 0
1, 85197, Note_on_c, 0, 46, 101
1, 85203, Note_on_c, 0, 34, 99
1, 85207, Note_on_c, 0, 70, 109
1, 85211, Control_c, 0, 64, 0
1, 85216, Note_on_c, 0, 65, 107
1, 85219, Note_on_c, 0, 74, 105
1, 85274, Note_on_c, 0, 46, 0
1, 85285, Control_c, 0, 64, 127
1, 85368, Note_on_c, 0, 46, 67
1, 85410, Note_on_c, 0, 65, 0
1, 85420, Note_on_c, 0, 70, 0
1, 85425, Note_on_c, 0, 46, 0
1, 85431, Note_on_c, 0, 74, 0
1, 85563, Note_on_c, 0, 46, 76
1, 85572, Note_on_c, 0, 70, 76
1, 85581, Note_on_c, 0, 74, 68
1, 85589, Note_on_c, 0, 65, 58
1, 85613, Note_on_c, 0, 74, 0
1, 85617, Note_on_c, 0, 34, 0
1, 85621, Note_on_c, 0, 65, 0
1, 85623, Note_on_c, 0, 46, 0
1, 85653, Note_on_c, 0, 70, 0
1, 85749, Note_on_c, 0, 48, 114
1, 85759, Note_on_c, 0, 36, 114
1, 85767, Note_on_c, 0, 72, 113
1, 85772, Note_on_c, 0, 63, 98
1, 85780, Note_on_c, 0, 67, 91
1, 85836, Note_on_c, 0, 48, 0
1, 85838, Control_c, 0, 64, 0
1, 85938, Control_c, 0, 64, 127
1, 85966, Note_on_c, 0, 48, 71
1, 86000, Note_on_c, 0, 48, 0
1, 86019, Note_on_c, 0, 72, 0
1, 86130, Note_on_c, 0, 48, 89
1, 86157, Note_on_c, 0, 70, 83
1, 86175, Note_on_c, 0, 36, 0
1, 86189, Note_on_c, 0, 63, 0
1, 86191, Note_on_c, 0, 67, 0
1, 86218, Note_on_c, 0, 48, 0
1, 86241, Note_on_c, 0, 70, 0
1, 86337, Control_c, 0, 64, 0
1, 86341, Note_on_c, 0, 50, 111
1, 86344, Note_on_c, 0, 38, 111
1, 86349, Note_on_c, 0, 69, 120
1, 86353, Note_on_c, 0, 67, 116
1, 86357, Note_on_c, 0, 74, 123
1, 86418, Note_on_c, 0, 50, 0
1, 86480, Control_c, 0, 64, 127
1, 86524, Note_on_c, 0, 50, 64
1, 86558, Note_on_c, 0, 67, 0
1, 86581, Note_on_c, 0, 69, 0
1, 86584, Note_on_c, 0, 50, 0
1, 86607, Note_on_c, 0, 74, 0
1, 86675, Note_on_c, 0, 50, 72
1, 86759, Note_on_c, 0, 50, 0
1, 86864, Note_on_c, 0, 50, 62
1, 86909, Note_on_c, 0, 50, 0
1, 86914, Note_on_c, 0, 69, 70
1, 86918, Note_on_c, 0, 74, 74
1, 86921, Note_on_c, 0, 67, 67
1, 86946, Note_on_c, 0, 69, 0
1, 86949, Note_on_c, 0, 74, 0
1, 86951, Note_on_c, 0, 67, 0
1, 87038, Note_on_c, 0, 50, 74
1, 87098, Note_on_c, 0, 74, 98
1, 87101, Note_on_c, 0, 50, 0
1, 87107, Note_on_c, 0, 67, 76
1, 87111, Note_on_c, 0, 69, 73
1, 87134, Note_on_c, 0, 67, 0
1, 87138, Note_on_c, 0, 69, 0
1, 87157, Note_on_c, 0, 74, 0
1, 87258, Note_on_c, 0, 50, 90
1, 87274, Note_on_c, 0, 74, 107
1, 87277, Note_on_c, 0, 66, 105
1, 87283, Note_on_c, 0, 69, 88
1, 87326, Note_on_c, 0, 50, 0
1, 87338, Control_c, 0, 64, 0
1, 87453, Note_on_c, 0, 50, 76
1, 87457, Note_on_c, 0, 66, 0
1, 87460, Control_c, 0, 64, 127
1, 87495, Note_on_c, 0, 74, 0
1, 87500, Note_on_c, 0, 50, 0
1, 87515, Note_on_c, 0, 69, 0
1, 87649, Note_on_c, 0, 50, 76
1, 87666, Note_on_c, 0, 62, 105
1, 87670, Note_on_c, 0, 74, 111
1, 87679, Note_on_c, 0, 50, 0
1, 87742, Note_on_c, 0, 62, 0
1, 87744, Note_on_c, 0, 74, 0
1, 87809, Note_on_c, 0, 50, 72
1, 87845, Note_on_c, 0, 65, 111
1, 87849, Note_on_c, 0, 50, 0
1, 87850, Note_on_c, 0, 77, 114
1, 87903, Note_on_c, 0, 77, 0
1, 87907, Note_on_c, 0, 65, 0
1, 87995, Note_on_c, 0, 50, 90
1, 88030, Note_on_c, 0, 67, 123
1, 88034, Note_on_c, 0, 79, 120
1, 88045, Note_on_c, 0, 38, 0
1, 88065, Note_on_c, 0, 50, 0
1, 88154, Control_c, 0, 64, 0
1, 88209, Note_on_c, 0, 51, 104
1, 88214, Note_on_c, 0, 39, 95
1, 88288, Control_c, 0, 64, 127
1, 88296, Note_on_c, 0, 51, 0
1, 88300, Note_on_c, 0, 79, 0
1, 88368, Note_on_c, 0, 67, 0
1, 88386, Note_on_c, 0, 51, 64
1, 88451, Note_on_c, 0, 51, 0
1, 88568, Note_on_c, 0, 51, 79
1, 88590, Note_on_c, 0, 62, 56
1, 88633, Note_on_c, 0, 62, 0
1, 88649, Note_on_c, 0, 51, 0
1, 88760, Note_on_c, 0, 62, 89
1, 88763, Note_on_c, 0, 51, 70
1, 88806, Note_on_c, 0, 51, 0
1, 88835, Note_on_c, 0, 62, 0
1, 88937, Note_on_c, 0, 65, 105
1, 88949, Note_on_c, 0, 51, 81
1, 88990, Note_on_c, 0, 51, 0
1, 89026, Note_on_c, 0, 65, 0
1, 89121, Note_on_c, 0, 51, 83
1, 89134, Note_on_c, 0, 67, 98
1, 89187, Note_on_c, 0, 51, 0
1, 89313, Note_on_c, 0, 51, 60
1, 89339, Note_on_c, 0, 67, 0
1, 89343, Note_on_c, 0, 51, 0
1, 89444, Note_on_c, 0, 51, 66
1, 89448, Note_on_c, 0, 67, 87
1, 89512, Note_on_c, 0, 67, 0
1, 89522, Note_on_c, 0, 51, 0
1, 89548, Note_on_c, 0, 39, 0
1, 89641, Note_on_c, 0, 46, 97
1, 89654, Note_on_c, 0, 34, 98
1, 89665, Note_on_c, 0, 65, 91
1, 89670, Note_on_c, 0, 58, 107
1, 89717, Control_c, 0, 64, 0
1, 89725, Note_on_c, 0, 46, 0
1, 89824, Note_on_c, 0, 46, 66
1, 89828, Control_c, 0, 64, 127
1, 89834, Note_on_c, 0, 58, 0
1, 89864, Note_on_c, 0, 62, 87
1, 89871, Note_on_c, 0, 65, 0
1, 89906, Note_on_c, 0, 46, 0
1, 90013, Note_on_c, 0, 62, 0
1, 90015, Note_on_c, 0, 46, 80
1, 90033, Note_on_c, 0, 60, 88
1, 90095, Note_on_c, 0, 46, 0
1, 90184, Note_on_c, 0, 60, 0
1, 90215, Note_on_c, 0, 46, 90
1, 90219, Note_on_c, 0, 62, 109
1, 90282, Note_on_c, 0, 46, 0
1, 90373, Note_on_c, 0, 62, 0
1, 90412, Note_on_c, 0, 46, 83
1, 90466, Note_on_c, 0, 46, 0
1, 90585, Note_on_c, 0, 46, 90
1, 90657, Note_on_c, 0, 46, 0
1, 90768, Note_on_c, 0, 46, 82
1, 90844, Note_on_c, 0, 46, 0
1, 90927, Note_on_c, 0, 46, 85
1, 90993, Note_on_c, 0, 34, 0
1, 91026, Note_on_c, 0, 46, 0
1, 91112, Note_on_c, 0, 51, 113
1, 91121, Note_on_c, 0, 39, 94
1, 91132, Control_c, 0, 64, 0
1, 91206, Note_on_c, 0, 51, 0
1, 91256, Control_c, 0, 64, 127
1, 91309, Note_on_c, 0, 51, 82
1, 91390, Note_on_c, 0, 51, 0
1, 91478, Note_on_c, 0, 51, 81
1, 91546, Note_on_c, 0, 51, 0
1, 91652, Note_on_c, 0, 51, 85
1, 91657, Note_on_c, 0, 67, 95
1, 91690, Note_on_c, 0, 63, 52
1, 91718, Note_on_c, 0, 51, 0
1, 91723, Note_on_c, 0, 63, 0
1, 91734, Note_on_c, 0, 67, 0
1, 91823, Note_on_c, 0, 51, 98
1, 91832, Note_on_c, 0, 67, 84
1, 91836, Note_on_c, 0, 63, 91
1, 91857, Note_on_c, 0, 58, 88
1, 91906, Note_on_c, 0, 51, 0
1, 91966, Note_on_c, 0, 58, 0
1, 91987, Note_on_c, 0, 67, 0
1, 91997, Note_on_c, 0, 63, 0
1, 92022, Note_on_c, 0, 51, 95
1, 92088, Note_on_c, 0, 63, 74
1, 92092, Note_on_c, 0, 51, 0
1, 92096, Note_on_c, 0, 69, 94
1, 92105, Note_on_c, 0, 58, 87
1, 92199, Note_on_c, 0, 51, 82
1, 92203, Note_on_c, 0, 58, 0
1, 92217, Note_on_c, 0, 69, 0
1, 92233, Note_on_c, 0, 63, 0
1, 92259, Note_on_c, 0, 51, 0
1, 92363, Note_on_c, 0, 63, 102
1, 92367, Note_on_c, 0, 70, 94
1, 92381, Note_on_c, 0, 51, 89
1, 92432, Note_on_c, 0, 63, 0
1, 92452, Note_on_c, 0, 70, 0
1, 92457, Note_on_c, 0, 51, 0
1, 92464, Note_on_c, 0, 39, 0
1, 92578, Note_on_c, 0, 53, 86
1, 92580, Note_on_c, 0, 60, 107
1, 92580, Note_on_c, 0, 65, 81
1, 92582, Note_on_c, 0, 69, 67
1, 92596, Note_on_c, 0, 41, 85
1, 92609, Control_c, 0, 64, 0
1, 92652, Note_on_c, 0, 53, 0
1, 92687, Note_on_c, 0, 65, 0
1, 92735, Control_c, 0, 64, 127
1, 92755, Note_on_c, 0, 53, 83
1, 92773, Note_on_c, 0, 60, 0
1, 92827, Note_on_c, 0, 53, 0
1, 92866, Note_on_c, 0, 69, 0
1, 92944, Note_on_c, 0, 67, 97
1, 92950, Note_on_c, 0, 53, 70
1, 92987, Note_on_c, 0, 53, 0
1, 93032, Note_on_c, 0, 67, 0
1, 93114, Note_on_c, 0, 53, 79
1, 93133, Note_on_c, 0, 65, 111
1, 93201, Note_on_c, 0, 53, 0
1, 93308, Note_on_c, 0, 65, 0
1, 93317, Note_on_c, 0, 53, 75
1, 93375, Note_on_c, 0, 53, 0
1, 93498, Note_on_c, 0, 53, 80
1, 93510, Note_on_c, 0, 62, 114
1, 93513, Note_on_c, 0, 74, 116
1, 93561, Note_on_c, 0, 53, 0
1, 93564, Note_on_c, 0, 62, 0
1, 93570, Note_on_c, 0, 74, 0
1, 93673, Note_on_c, 0, 53, 82
1, 93697, Note_on_c, 0, 77, 118
1, 93700, Note_on_c, 0, 65, 89
1, 93737, Note_on_c, 0, 53, 0
1, 93759, Note_on_c, 0, 65, 0
1, 93766, Note_on_c, 0, 77, 0
1, 93845, Note_on_c, 0, 53, 82
1, 93883, Note_on_c, 0, 79, 118
1, 93887, Note_on_c, 0, 67, 114
1, 93901, Note_on_c, 0, 53, 0
1, 93942, Note_on_c, 0, 41, 0
1, 93968, Control_c, 0, 64, 0
1, 93985, Note_on_c, 0, 79, 0
1, 94024, Note_on_c, 0, 67, 0
1, 94042, Note_on_c, 0, 31, 122
1, 94046, Note_on_c, 0, 43, 91
1, 94069, Control_c, 0, 64, 127
1, 94130, Note_on_c, 0, 43, 0
1, 94239, Note_on_c, 0, 43, 64
1, 94288, Note_on_c, 0, 43, 0
1, 94393, Note_on_c, 0, 43, 91
1, 94408, Control_c, 0, 64, 0
1, 94412, Note_on_c, 0, 67, 105
1, 94415, Note_on_c, 0, 62, 113
1, 94419, Note_on_c, 0, 58, 104
1, 94475, Note_on_c, 0, 43, 0
1, 94536, Note_on_c, 0, 58, 0
1, 94549, Note_on_c, 0, 67, 0
1, 94552, Control_c, 0, 64, 127
1, 94562, Note_on_c, 0, 62, 0
1, 94580, Note_on_c, 0, 43, 76
1, 94640, Note_on_c, 0, 43, 0
1, 94776, Note_on_c, 0, 43, 80
1, 94823, Note_on_c, 0, 43, 0
1, 94964, Note_on_c, 0, 43, 73
1, 94995, Note_on_c, 0, 43, 0
1, 95109, Note_on_c, 0, 67, 89
1, 95139, Note_on_c, 0, 43, 87
1, 95199, Note_on_c, 0, 67, 0
1, 95223, Note_on_c, 0, 43, 0
1, 95314, Note_on_c, 0, 57, 104
1, 95318, Note_on_c, 0, 43, 85
1, 95321, Note_on_c, 0, 65, 88
1, 95354, Note_on_c, 0, 31, 0
1, 95399, Note_on_c, 0, 43, 0
1, 95461, Control_c, 0, 64, 0
1, 95484, Note_on_c, 0, 45, 102
1, 95487, Note_on_c, 0, 33, 95
1, 95508, Note_on_c, 0, 57, 0
1, 95554, Note_on_c, 0, 45, 0
1, 95569, Note_on_c, 0, 65, 0
1, 95572, Control_c, 0, 64, 127
1, 95690, Note_on_c, 0, 45, 80
1, 95694, Note_on_c, 0, 62, 114
1, 95763, Note_on_c, 0, 45, 0
1, 95868, Note_on_c, 0, 45, 74
1, 95899, Note_on_c, 0, 62, 0
1, 95942, Note_on_c, 0, 45, 0
1, 96069, Note_on_c, 0, 45, 80
1, 96075, Note_on_c, 0, 62, 104
1, 96125, Note_on_c, 0, 45, 0
1, 96149, Note_on_c, 0, 62, 0
1, 96259, Note_on_c, 0, 45, 76
1, 96301, Note_on_c, 0, 45, 0
1, 96429, Note_on_c, 0, 45, 70
1, 96464, Note_on_c, 0, 45, 0
1, 96601, Note_on_c, 0, 45, 89
1, 96616, Note_on_c, 0, 70, 105
1, 96619, Note_on_c, 0, 58, 109
1, 96664, Note_on_c, 0, 45, 0
1, 96700, Note_on_c, 0, 58, 0
1, 96712, Note_on_c, 0, 70, 0
1, 96758, Note_on_c, 0, 45, 83
1, 96801, Note_on_c, 0, 72, 107
1, 96803, Note_on_c, 0, 62, 99
1, 96820, Note_on_c, 0, 33, 0
1, 96832, Note_on_c, 0, 45, 0
1, 96834, Note_on_c, 0, 62, 0
1, 96868, Note_on_c, 0, 72, 0
1, 96973, Note_on_c, 0, 46, 123
1, 96978, Control_c, 0, 64, 0
1, 96984, Note_on_c, 0, 34, 105
1, 96987, Note_on_c, 0, 70, 120
1, 96992, Note_on_c, 0, 74, 120
1, 96995, Note_on_c, 0, 65, 99
1, 97064, Note_on_c, 0, 46, 0
1, 97077, Control_c, 0, 64, 127
1, 97154, Note_on_c, 0, 46, 70
1, 97186, Note_on_c, 0, 65, 0
1, 97192, Note_on_c, 0, 74, 0
1, 97233, Note_on_c, 0, 70, 0
1, 97233, Note_on_c, 0, 46, 0
1, 97328, Note_on_c, 0, 46, 65
1, 97358, Note_on_c, 0, 65, 70
1, 97366, Note_on_c, 0, 70, 60
1, 97378, Note_on_c, 0, 74, 38
1, 97392, Note_on_c, 0, 65, 0
1, 97394, Note_on_c, 0, 34, 0
1, 97401, Note_on_c, 0, 70, 0
1, 97416, Note_on_c, 0, 46, 0
1, 97428, Note_on_c, 0, 74, 0
1, 97531, Note_on_c, 0, 48, 120
1, 97535, Note_on_c, 0, 36, 118
1, 97540, Note_on_c, 0, 72, 120
1, 97544, Note_on_c, 0, 63, 111
1, 97547, Note_on_c, 0, 67, 109
1, 97616, Note_on_c, 0, 48, 0
1, 97642, Control_c, 0, 64, 0
1, 97727, Control_c, 0, 64, 127
1, 97763, Note_on_c, 0, 48, 73
1, 97797, Note_on_c, 0, 48, 0
1, 97820, Note_on_c, 0, 72, 0
1, 97909, Note_on_c, 0, 48, 83
1, 97929, Note_on_c, 0, 70, 88
1, 97956, Note_on_c, 0, 67, 0
1, 97964, Note_on_c, 0, 36, 0
1, 97970, Note_on_c, 0, 63, 0
1, 97996, Note_on_c, 0, 70, 0
1, 98004, Note_on_c, 0, 48, 0
1, 98108, Note_on_c, 0, 50, 109
1, 98111, Note_on_c, 0, 69, 122
1, 98115, Note_on_c, 0, 38, 113
1, 98119, Note_on_c, 0, 67, 107
1, 98124, Note_on_c, 0, 74, 120
1, 98128, Control_c, 0, 64, 0
1, 98194, Note_on_c, 0, 50, 0
1, 98269, Control_c, 0, 64, 127
1, 98299, Note_on_c, 0, 50, 70
1, 98313, Note_on_c, 0, 67, 0
1, 98342, Note_on_c, 0, 69, 0
1, 98344, Note_on_c, 0, 74, 0
1, 98359, Note_on_c, 0, 50, 0
1, 98451, Note_on_c, 0, 50, 70
1, 98539, Note_on_c, 0, 50, 0
1, 98649, Note_on_c, 0, 50, 61
1, 98657, Note_on_c, 0, 74, 81
1, 98661, Note_on_c, 0, 67, 70
1, 98666, Note_on_c, 0, 69, 64
1, 98687, Note_on_c, 0, 50, 0
1, 98688, Note_on_c, 0, 74, 0
1, 98694, Note_on_c, 0, 67, 0
1, 98697, Note_on_c, 0, 69, 0
1, 98821, Note_on_c, 0, 50, 76
1, 98830, Note_on_c, 0, 74, 99
1, 98841, Note_on_c, 0, 69, 80
1, 98869, Note_on_c, 0, 67, 33
1, 98873, Note_on_c, 0, 69, 0
1, 98875, Note_on_c, 0, 50, 0
1, 98894, Note_on_c, 0, 74, 0
1, 98913, Note_on_c, 0, 67, 0
1, 99009, Note_on_c, 0, 74, 94
1, 99011, Note_on_c, 0, 66, 101
1, 99016, Note_on_c, 0, 50, 95
1, 99020, Note_on_c, 0, 69, 94
1, 99058, Control_c, 0, 64, 0
1, 99085, Note_on_c, 0, 50, 0
1, 99181, Control_c, 0, 64, 127
1, 99210, Note_on_c, 0, 50, 65
1, 99250, Note_on_c, 0, 50, 0
1, 99295, Note_on_c, 0, 66, 0
1, 99305, Note_on_c, 0, 74, 0
1, 99320, Note_on_c, 0, 69, 0
1, 99392, Note_on_c, 0, 62, 95
1, 99397, Note_on_c, 0, 74, 101
1, 99401, Note_on_c, 0, 50, 80
1, 99432, Note_on_c, 0, 62, 0
1, 99434, Note_on_c, 0, 50, 0
1, 99467, Note_on_c, 0, 74, 0
1, 99563, Note_on_c, 0, 50, 84
1, 99581, Note_on_c, 0, 65, 116
1, 99584, Note_on_c, 0, 77, 104
1, 99637, Note_on_c, 0, 50, 0
1, 99639, Note_on_c, 0, 77, 0
1, 99645, Note_on_c, 0, 65, 0
1, 99753, Note_on_c, 0, 50, 73
1, 99766, Note_on_c, 0, 67, 120
1, 99769, Note_on_c, 0, 79, 118
1, 99783, Note_on_c, 0, 38, 0
1, 99790, Note_on_c, 0, 50, 0
1, 99884, Control_c, 0, 64, 0
1, 99945, Note_on_c, 0, 51, 111
1, 99950, Note_on_c, 0, 39, 102
1, 100021, Control_c, 0, 64, 127
1, 100041, Note_on_c, 0, 51, 0
1, 100054, Note_on_c, 0, 79, 0
1, 100114, Note_on_c, 0, 67, 0
1, 100133, Note_on_c, 0, 51, 60
1, 100213, Note_on_c, 0, 51, 0
1, 100313, Note_on_c, 0, 51, 80
1, 100325, Note_on_c, 0, 62, 84
1, 100368, Note_on_c, 0, 62, 0
1, 100388, Note_on_c, 0, 51, 0
1, 100493, Note_on_c, 0, 62, 90
1, 100512, Note_on_c, 0, 51, 75
1, 100562, Note_on_c, 0, 51, 0
1, 100578, Note_on_c, 0, 62, 0
1, 100688, Note_on_c, 0, 65, 95
1, 100699, Note_on_c, 0, 51, 85
1, 100762, Note_on_c, 0, 51, 0
1, 100780, Note_on_c, 0, 65, 0
1, 100861, Note_on_c, 0, 51, 82
1, 100873, Note_on_c, 0, 67, 111
1, 100933, Note_on_c, 0, 51, 0
1, 101033, Note_on_c, 0, 51, 76
1, 101095, Note_on_c, 0, 67, 0
1, 101106, Note_on_c, 0, 51, 0
1, 101212, Note_on_c, 0, 51, 84
1, 101226, Note_on_c, 0, 67, 104
1, 101300, Note_on_c, 0, 39, 0
1, 101320, Note_on_c, 0, 51, 0
1, 101375, Note_on_c, 0, 67, 0
1, 101416, Note_on_c, 0, 65, 99
1, 101419, Note_on_c, 0, 53, 93
1, 101430, Note_on_c, 0, 41, 80
1, 101466, Control_c, 0, 64, 0
1, 101516, Note_on_c, 0, 53, 0
1, 101601, Control_c, 0, 64, 127
1, 101623, Note_on_c, 0, 53, 77
1, 101678, Note_on_c, 0, 65, 0
1, 101682, Note_on_c, 0, 67, 98
1, 101712, Note_on_c, 0, 53, 0
1, 101807, Note_on_c, 0, 67, 0
1, 101816, Note_on_c, 0, 53, 69
1, 101894, Note_on_c, 0, 53, 0
1, 101973, Note_on_c, 0, 53, 81
1, 102025, Note_on_c, 0, 67, 101
1, 102054, Note_on_c, 0, 53, 0
1, 102139, Note_on_c, 0, 53, 76
1, 102213, Note_on_c, 0, 53, 0
1, 102316, Note_on_c, 0, 67, 0
1, 102331, Note_on_c, 0, 53, 69
1, 102345, Note_on_c, 0, 69, 70
1, 102411, Note_on_c, 0, 53, 0
1, 102448, Note_on_c, 0, 67, 89
1, 102496, Note_on_c, 0, 69, 0
1, 102500, Note_on_c, 0, 65, 70
1, 102519, Note_on_c, 0, 53, 64
1, 102560, Note_on_c, 0, 67, 0
1, 102562, Note_on_c, 0, 53, 0
1, 102679, Note_on_c, 0, 53, 81
1, 102722, Note_on_c, 0, 65, 0
1, 102753, Note_on_c, 0, 41, 0
1, 102767, Note_on_c, 0, 53, 0
1, 102870, Note_on_c, 0, 55, 102
1, 102873, Note_on_c, 0, 43, 104
1, 102903, Control_c, 0, 64, 0
1, 102956, Note_on_c, 0, 55, 0
1, 103026, Control_c, 0, 64, 127
1, 103063, Note_on_c, 0, 55, 73
1, 103140, Note_on_c, 0, 55, 0
1, 103249, Note_on_c, 0, 55, 63
1, 103320, Note_on_c, 0, 55, 0
1, 103424, Note_on_c, 0, 55, 70
1, 103433, Note_on_c, 0, 67, 77
1, 103437, Note_on_c, 0, 70, 76
1, 103468, Note_on_c, 0, 67, 0
1, 103473, Note_on_c, 0, 70, 0
1, 103502, Note_on_c, 0, 55, 0
1, 103597, Note_on_c, 0, 70, 94
1, 103600, Note_on_c, 0, 55, 70
1, 103603, Note_on_c, 0, 67, 81
1, 103658, Note_on_c, 0, 67, 0
1, 103676, Note_on_c, 0, 55, 0
1, 103680, Note_on_c, 0, 70, 0
1, 103762, Note_on_c, 0, 55, 75
1, 103772, Note_on_c, 0, 72, 86
1, 103779, Note_on_c, 0, 69, 82
1, 103833, Note_on_c, 0, 69, 0
1, 103843, Note_on_c, 0, 55, 0
1, 103854, Note_on_c, 0, 72, 0
1, 103939, Note_on_c, 0, 74, 97
1, 103949, Note_on_c, 0, 55, 79
1, 103956, Note_on_c, 0, 71, 90
1, 103987, Note_on_c, 0, 71, 0
1, 104021, Note_on_c, 0, 74, 0
1, 104022, Note_on_c, 0, 55, 0
1, 104122, Note_on_c, 0, 72, 100
1, 104126, Note_on_c, 0, 69, 92
1, 104147, Note_on_c, 0, 55, 75
1, 104177, Note_on_c, 0, 43, 0
1, 104203, Note_on_c, 0, 55, 0
1, 104216, Control_c, 0, 64, 0
1, 104324, Note_on_c, 0, 45, 94
1, 104328, Note_on_c, 0, 57, 98
1, 104338, Control_c, 0, 64, 127
1, 104414, Note_on_c, 0, 57, 0
1, 104435, Note_on_c, 0, 72, 0
1, 104457, Note_on_c, 0, 69, 0
1, 104518, Note_on_c, 0, 57, 71
1, 104594, Note_on_c, 0, 57, 0
1, 104695, Note_on_c, 0, 70, 66
1, 104702, Note_on_c, 0, 57, 68
1, 104779, Note_on_c, 0, 57, 0
1, 104786, Note_on_c, 0, 70, 0
1, 104881, Note_on_c, 0, 69, 95
1, 104884, Note_on_c, 0, 57, 73
1, 104896, Note_on_c, 0, 65, 89
1, 104961, Note_on_c, 0, 57, 0
1, 104975, Note_on_c, 0, 69, 0
1, 105000, Note_on_c, 0, 65, 0
1, 105078, Note_on_c, 0, 57, 73
1, 105162, Note_on_c, 0, 57, 0
1, 105253, Note_on_c, 0, 57, 72
1, 105332, Note_on_c, 0, 57, 0
1, 105432, Note_on_c, 0, 57, 70
1, 105492, Note_on_c, 0, 57, 0
1, 105593, Note_on_c, 0, 57, 79
1, 105672, Note_on_c, 0, 57, 0
1, 105690, Note_on_c, 0, 45, 0
1, 105786, Note_on_c, 0, 48, 118
1, 105789, Note_on_c, 0, 63, 109
1, 105794, Note_on_c, 0, 36, 118
1, 105798, Note_on_c, 0, 60, 105
1, 105841, Control_c, 0, 64, 0
1, 105937, Note_on_c, 0, 48, 0
1, 105975, Control_c, 0, 64, 127
1, 106038, Note_on_c, 0, 48, 87
1, 106068, Note_on_c, 0, 70, 94
1, 106125, Note_on_c, 0, 48, 0
1, 106229, Note_on_c, 0, 48, 81
1, 106246, Note_on_c, 0, 70, 0
1, 106314, Note_on_c, 0, 48, 0
1, 106414, Note_on_c, 0, 48, 82
1, 106417, Note_on_c, 0, 70, 94
1, 106490, Note_on_c, 0, 48, 0
1, 106570, Note_on_c, 0, 70, 0
1, 106608, Note_on_c, 0, 48, 65
1, 106645, Note_on_c, 0, 48, 0
1, 106776, Note_on_c, 0, 48, 83
1, 106805, Note_on_c, 0, 70, 89
1, 106857, Note_on_c, 0, 48, 0
1, 106928, Note_on_c, 0, 60, 0
1, 106953, Note_on_c, 0, 48, 80
1, 107016, Note_on_c, 0, 63, 0
1, 107018, Note_on_c, 0, 36, 0
1, 107030, Note_on_c, 0, 70, 0
1, 107052, Note_on_c, 0, 48, 0
1, 107157, Note_on_c, 0, 50, 87
1, 107161, Note_on_c, 0, 38, 93
1, 107165, Note_on_c, 0, 65, 101
1, 107169, Note_on_c, 0, 62, 70
1, 107218, Control_c, 0, 64, 0
1, 107235, Note_on_c, 0, 50, 0
1, 107328, Note_on_c, 0, 50, 68
1, 107336, Note_on_c, 0, 62, 0
1, 107339, Control_c, 0, 64, 127
1, 107408, Note_on_c, 0, 50, 0
1, 107423, Note_on_c, 0, 65, 0
1, 107518, Note_on_c, 0, 50, 73
1, 107522, Note_on_c, 0, 70, 97
1, 107598, Note_on_c, 0, 50, 0
1, 107696, Note_on_c, 0, 50, 70
1, 107745, Note_on_c, 0, 70, 0
1, 107782, Note_on_c, 0, 50, 0
1, 107886, Note_on_c, 0, 50, 77
1, 107888, Note_on_c, 0, 70, 113
1, 107961, Note_on_c, 0, 50, 0
1, 108061, Note_on_c, 0, 50, 73
1, 108075, Note_on_c, 0, 70, 0
1, 108138, Note_on_c, 0, 50, 0
1, 108244, Note_on_c, 0, 50, 80
1, 108322, Note_on_c, 0, 50, 0
1, 108426, Note_on_c, 0, 50, 79
1, 108498, Note_on_c, 0, 50, 0
1, 108592, Note_on_c, 0, 50, 83
1, 108658, Note_on_c, 0, 50, 0
1, 108661, Note_on_c, 0, 38, 0
1, 108771, Note_on_c, 0, 62, 102
1, 108775, Note_on_c, 0, 46, 122
1, 108777, Note_on_c, 0, 70, 85
1, 108782, Note_on_c, 0, 65, 96
1, 108786, Note_on_c, 0, 34, 107
1, 108822, Control_c, 0, 64, 0
1, 108856, Note_on_c, 0, 46, 0
1, 108935, Control_c, 0, 64, 127
1, 108944, Note_on_c, 0, 46, 61
1, 109019, Note_on_c, 0, 46, 0
1, 109062, Note_on_c, 0, 62, 0
1, 109116, Note_on_c, 0, 46, 71
1, 109124, Note_on_c, 0, 70, 0
1, 109128, Note_on_c, 0, 65, 0
1, 109145, Note_on_c, 0, 34, 0
1, 109209, Note_on_c, 0, 46, 0
1, 109312, Note_on_c, 0, 48, 102
1, 109315, Note_on_c, 0, 36, 99
1, 109319, Note_on_c, 0, 70, 87
1, 109324, Note_on_c, 0, 63, 94
1, 109372, Control_c, 0, 64, 0
1, 109400, Note_on_c, 0, 48, 0
1, 109487, Control_c, 0, 64, 127
1, 109496, Note_on_c, 0, 48, 92
1, 109580, Note_on_c, 0, 48, 0
1, 109646, Note_on_c, 0, 63, 0
1, 109684, Note_on_c, 0, 48, 86
1, 109692, Note_on_c, 0, 70, 0
1, 109725, Note_on_c, 0, 36, 0
1, 109780, Note_on_c, 0, 48, 0
1, 109871, Note_on_c, 0, 70, 97
1, 109877, Note_on_c, 0, 62, 106
1, 109889, Note_on_c, 0, 38, 104
1, 109892, Note_on_c, 0, 50, 109
1, 109930, Control_c, 0, 64, 0
1, 109978, Note_on_c, 0, 50, 0
1, 110042, Note_on_c, 0, 70, 0
1, 110050, Control_c, 0, 64, 127
1, 110140, Note_on_c, 0, 50, 87
1, 110160, Note_on_c, 0, 69, 95
1, 110232, Note_on_c, 0, 50, 0
1, 110336, Note_on_c, 0, 50, 68
1, 110400, Note_on_c, 0, 62, 0
1, 110412, Note_on_c, 0, 69, 0
1, 110417, Note_on_c, 0, 50, 0
1, 110511, Note_on_c, 0, 50, 70
1, 110589, Note_on_c, 0, 50, 0
1, 110682, Note_on_c, 0, 50, 65
1, 110714, Note_on_c, 0, 62, 84
1, 110768, Note_on_c, 0, 50, 0
1, 110779, Note_on_c, 0, 62, 0
1, 110869, Note_on_c, 0, 50, 68
1, 110884, Note_on_c, 0, 62, 84
1, 110945, Note_on_c, 0, 50, 0
1, 110961, Note_on_c, 0, 62, 0
1, 111056, Note_on_c, 0, 65, 94
1, 111066, Note_on_c, 0, 50, 70
1, 111120, Note_on_c, 0, 50, 0
1, 111145, Note_on_c, 0, 65, 0
1, 111240, Note_on_c, 0, 67, 99
1, 111253, Note_on_c, 0, 50, 76
1, 111307, Note_on_c, 0, 50, 0
1, 111329, Note_on_c, 0, 67, 0
1, 111433, Note_on_c, 0, 50, 76
1, 111482, Note_on_c, 0, 50, 0
1, 111607, Note_on_c, 0, 50, 102
1, 111614, Note_on_c, 0, 63, 98
1, 111618, Note_on_c, 0, 58, 111
1, 111624, Note_on_c, 0, 67, 93
1, 111663, Control_c, 0, 64, 0
1, 111682, Note_on_c, 0, 38, 0
1, 111690, Note_on_c, 0, 50, 0
1, 111803, Note_on_c, 0, 51, 105
1, 111812, Note_on_c, 0, 39, 98
1, 111846, Control_c, 0, 64, 127
1, 111894, Note_on_c, 0, 51, 0
1, 111927, Note_on_c, 0, 58, 0
1, 111978, Note_on_c, 0, 51, 76
1, 112060, Note_on_c, 0, 51, 0
1, 112062, Note_on_c, 0, 63, 0
1, 112099, Note_on_c, 0, 67, 0
1, 112164, Note_on_c, 0, 51, 82
1, 112187, Note_on_c, 0, 62, 86
1, 112234, Note_on_c, 0, 51, 0
1, 112271, Note_on_c, 0, 62, 0
1, 112349, Note_on_c, 0, 51, 80
1, 112356, Note_on_c, 0, 62, 95
1, 112419, Note_on_c, 0, 39, 0
1, 112438, Note_on_c, 0, 51, 0
1, 112464, Note_on_c, 0, 62, 0
1, 112540, Note_on_c, 0, 65, 113
1, 112544, Note_on_c, 0, 53, 113
1, 112547, Note_on_c, 0, 41, 92
1, 112556, Control_c, 0, 64, 0
1, 112636, Note_on_c, 0, 53, 0
1, 112660, Control_c, 0, 64, 127
1, 112663, Note_on_c, 0, 65, 0
1, 112698, Note_on_c, 0, 41, 0
1, 112719, Note_on_c, 0, 67, 102
1, 112760, Note_on_c, 0, 53, 82
1, 112763, Note_on_c, 0, 41, 62
1, 112848, Note_on_c, 0, 53, 0
1, 112893, Note_on_c, 0, 41, 0
1, 112930, Note_on_c, 0, 41, 62
1, 112933, Note_on_c, 0, 53, 82
1, 113032, Note_on_c, 0, 53, 0
1, 113090, Note_on_c, 0, 70, 95
1, 113109, Note_on_c, 0, 67, 0
1, 113111, Note_on_c, 0, 53, 83
1, 113175, Note_on_c, 0, 41, 0
1, 113186, Note_on_c, 0, 53, 0
1, 113198, Note_on_c, 0, 70, 0
1, 113211, Control_c, 0, 64, 0
1, 113277, Note_on_c, 0, 67, 125
1, 113280, Note_on_c, 0, 55, 114
1, 113285, Note_on_c, 0, 62, 116
1, 113289, Note_on_c, 0, 43, 101
1, 113373, Note_on_c, 0, 55, 0
1, 113421, Note_on_c, 0, 43, 0
1, 113430, Note_on_c, 0, 62, 0
1, 113455, Note_on_c, 0, 67, 0
1, 113600, Control_c, 0, 64, 127
1, 113643, Note_on_c, 0, 50, 116
1, 113646, Note_on_c, 0, 38, 122
1, 113656, Note_on_c, 0, 62, 122
1, 113659, Note_on_c, 0, 74, 122
1, 113697, Note_on_c, 0, 50, 0
1, 113709, Note_on_c, 0, 38, 0
1, 113721, Note_on_c, 0, 74, 0
1, 113722, Note_on_c, 0, 62, 0
1, 113821, Note_on_c, 0, 53, 116
1, 113824, Note_on_c, 0, 41, 113
1, 113829, Note_on_c, 0, 65, 118
1, 113834, Note_on_c, 0, 77, 123
1, 113856, Note_on_c, 0, 41, 0
1, 113877, Note_on_c, 0, 53, 0
1, 113883, Note_on_c, 0, 65, 0
1, 113885, Note_on_c, 0, 77, 0
1, 113996, Control_c, 0, 64, 0
1, 114008, Note_on_c, 0, 67, 126
1, 114012, Note_on_c, 0, 79, 126
1, 114016, Note_on_c, 0, 55, 127
1, 114020, Note_on_c, 0, 43, 126
1, 114303, Note_on_c, 0, 55, 0
1, 114305, Note_on_c, 0, 79, 0
1, 114309, Note_on_c, 0, 43, 0
1, 114312, Note_on_c, 0, 67, 0
1, 114312, End_track
0, 0, End_of_file
